<svg width="179" height="190" viewBox="0 0 179 190" fill="none" xmlns="http://www.w3.org/2000/svg">
<path opacity="0.35" d="M94.7094 162.331C74.0229 174.273 40.4835 174.273 19.7971 162.331C-0.88939 150.389 -0.88939 131.026 19.7971 119.084C40.4835 107.142 74.0229 107.142 94.7094 119.084C115.396 131.026 115.396 150.389 94.7094 162.331Z" fill="#A8ACB2"/>
<path d="M96.4281 10.4096C85.4658 4.08108 71.2807 1 57.2528 1C43.225 1 29.0399 4.08108 18.0775 10.4096C6.94168 16.8384 0.788315 25.7231 1.00556 35.1791V127.881C1.00556 127.905 1.00586 127.929 1.00645 127.953C1.23153 137.051 7.33585 145.53 18.0775 151.731C29.0399 158.06 43.225 161.141 57.2528 161.141C71.2807 161.141 85.4658 158.06 96.4281 151.731C107.17 145.53 113.274 137.051 113.499 127.953C113.5 127.938 113.5 127.923 113.5 127.908C113.5 127.899 113.5 127.89 113.5 127.881V35.1792C113.717 25.7232 107.564 16.8384 96.4281 10.4096Z" fill="#D2D2D2" fill-opacity="0.2" stroke="#1A1B1D" stroke-linejoin="round"/>
<path d="M94.9767 12.9399C74.1424 0.912288 40.3635 0.912288 19.5292 12.9399C8.91715 19.0663 3.71041 27.1315 3.90904 35.1604L3.90904 127.865C4.10037 135.599 9.3071 143.299 19.5292 149.2C40.3635 161.228 74.1424 161.228 94.9767 149.2C105.199 143.299 110.406 135.599 110.597 127.865V35.1604C110.795 27.1315 105.589 19.0663 94.9767 12.9399Z" fill="#F5F6F6" stroke="white" stroke-linejoin="round"/>
<path d="M94.9775 149.135C74.1431 161.163 40.3638 161.163 19.5294 149.135C-1.30504 137.107 -1.30504 117.607 19.5294 105.579C40.3638 93.5512 74.1431 93.5512 94.9775 105.579C115.812 117.607 115.812 137.107 94.9775 149.135Z" fill="#F5F6F6" stroke="#1A1B1D" stroke-linejoin="round"/>
<path d="M95.0888 149.199C74.1928 161.263 40.3136 161.263 19.4176 149.199C-1.4784 137.136 -1.4784 117.578 19.4176 105.514C40.3136 93.4512 74.1928 93.4512 95.0888 105.514C115.985 117.578 115.985 137.136 95.0888 149.199Z" fill="#E2E3E5" stroke="white" stroke-linejoin="round"/>
<path d="M90.2557 142.696C81.5912 148.196 69.6667 151.231 57.2522 151.231C44.8376 151.231 32.9131 148.196 24.2486 142.696C15.5413 137.168 13.2085 131.296 13.2085 127.435C13.2085 123.574 15.5413 117.702 24.2486 112.174C32.9131 106.673 44.8376 103.638 57.2522 103.638C69.6667 103.638 81.5912 106.673 90.2557 112.174C98.963 117.702 101.296 123.574 101.296 127.435C101.296 131.296 98.963 137.168 90.2557 142.696Z" stroke="white" stroke-linejoin="round"/>
<path fill-rule="evenodd" clip-rule="evenodd" d="M96.429 10.4351C85.4665 4.1065 71.2813 1.02539 57.2533 1.02539C43.2253 1.02539 29.04 4.1065 18.0776 10.4351C7.13151 16.7543 1 25.4425 1 34.7277C1 44.0128 7.13151 52.7011 18.0776 59.0203C29.04 65.3489 43.2253 68.43 57.2533 68.43C71.2813 68.43 85.4665 65.3489 96.429 59.0203C107.375 52.7011 113.507 44.0128 113.507 34.7277C113.507 25.4425 107.375 16.7543 96.429 10.4351Z" fill="#E2E3E5"/>
<path d="M96.429 10.4351L96.679 10.0021V10.0021L96.429 10.4351ZM18.0776 10.4351L17.8276 10.0021L18.0776 10.4351ZM18.0776 59.0203L18.3276 58.5872L18.0776 59.0203ZM96.429 59.0203L96.679 59.4533L96.429 59.0203ZM57.2533 1.52539C71.2168 1.52539 85.3105 4.59373 96.179 10.8681L96.679 10.0021C85.6226 3.61927 71.3457 0.525391 57.2533 0.525391V1.52539ZM18.3276 10.8681C29.1961 4.59373 43.2898 1.52539 57.2533 1.52539V0.525391C43.1608 0.525391 28.884 3.61927 17.8276 10.0021L18.3276 10.8681ZM1.5 34.7277C1.5 25.6847 7.47192 17.1351 18.3276 10.8681L17.8276 10.0021C6.79111 16.3735 0.5 25.2004 0.5 34.7277H1.5ZM18.3276 58.5872C7.47192 52.3203 1.5 43.7707 1.5 34.7277H0.5C0.5 44.255 6.79111 53.0819 17.8276 59.4533L18.3276 58.5872ZM57.2533 67.93C43.2898 67.93 29.1961 64.8616 18.3276 58.5872L17.8276 59.4533C28.884 65.8361 43.1608 68.93 57.2533 68.93V67.93ZM96.179 58.5872C85.3105 64.8616 71.2168 67.93 57.2533 67.93V68.93C71.3457 68.93 85.6226 65.8361 96.679 59.4533L96.179 58.5872ZM113.007 34.7277C113.007 43.7707 107.035 52.3203 96.179 58.5872L96.679 59.4533C107.715 53.0819 114.007 44.255 114.007 34.7277H113.007ZM96.179 10.8681C107.035 17.1351 113.007 25.6847 113.007 34.7277H114.007C114.007 25.2004 107.715 16.3735 96.679 10.0021L96.179 10.8681Z" fill="#1A1B1D"/>
<path d="M94.9775 56.506C74.1431 68.5337 40.3638 68.5337 19.5294 56.506C-1.30504 44.4782 -1.30504 24.9775 19.5294 12.9497C40.3638 0.922025 74.1431 0.922025 94.9775 12.9497C115.812 24.9775 115.812 44.4782 94.9775 56.506Z" stroke="white" stroke-linejoin="round"/>
<path d="M88.953 53.0278C71.446 63.1346 43.0614 63.1346 25.5544 53.0278C8.04731 42.921 8.04731 26.5346 25.5544 16.4278C43.0614 6.32095 71.446 6.32095 88.953 16.4278C106.46 26.5346 106.46 42.921 88.953 53.0278Z" fill="#F5F6F6" stroke="white" stroke-linejoin="round"/>
<g opacity="0.3">
<path opacity="0.1" fill-rule="evenodd" clip-rule="evenodd" d="M34.7242 102.28C35.8942 102.955 36.2238 103.932 35.713 104.778L56.5808 113.099C56.8291 112.857 57.1335 112.628 57.4942 112.42C57.9648 112.148 58.4949 111.932 59.0603 111.771L55.6058 108.904C54.8231 109.06 53.9197 108.958 53.2947 108.597C52.4229 108.094 52.4229 107.278 53.2948 106.775C54.1666 106.271 55.5801 106.271 56.4519 106.775C57.2527 107.237 57.3179 107.963 56.6473 108.469L60.3126 111.511C62.2466 111.246 64.3662 111.549 65.8747 112.42C66.3234 112.679 66.685 112.97 66.9597 113.279L78.9018 107.517C77.8253 106.493 78.0536 105.14 79.5868 104.255C81.3881 103.215 84.3086 103.215 86.1099 104.255C87.9112 105.295 87.9111 106.981 86.1097 108.021C85.2284 108.53 84.0793 108.79 82.9244 108.8L79.0611 123.827L79.9912 125.765L87.3095 118.619C86.4836 118.022 86.5497 117.149 87.5079 116.595C88.537 116.001 90.2055 116.001 91.2346 116.596C92.2637 117.19 92.2636 118.153 91.2345 118.747C90.4383 119.207 89.2595 119.311 88.2901 119.059L80.1913 126.967L79.6927 127.454L79.3912 126.826L78.8823 125.766L78.6667 128.465C79.6111 128.64 80.4993 128.944 81.249 129.377C83.7719 130.834 83.7718 133.195 81.2488 134.652C78.7259 136.108 74.6355 136.108 72.1126 134.651C69.5898 133.195 69.5899 130.833 72.1128 129.377C72.5879 129.103 73.1186 128.88 73.6839 128.709L69.9062 123.006C68.7414 123.354 67.2948 123.279 66.2516 122.78L59.5524 128.126C60.2925 128.777 60.1665 129.661 59.1742 130.234C58.0375 130.89 56.1946 130.89 55.058 130.234C54.2779 129.783 54.0332 129.141 54.324 128.57L44.0821 124.257C43.8137 124.926 43.2281 125.561 42.3253 126.082C41.9615 126.292 41.5657 126.472 41.1469 126.623L46.8536 135.496L46.0125 136.037L40.147 126.917C37.7713 127.472 34.9473 127.194 33.0209 126.082C30.4516 124.598 30.4517 122.193 33.0211 120.71C34.4152 119.905 36.2793 119.537 38.1034 119.606L32.4408 106.36C31.1637 106.479 29.8095 106.254 28.825 105.685C27.196 104.745 27.1961 103.22 28.8251 102.28C30.4541 101.339 33.0952 101.339 34.7242 102.28ZM34.7241 105.685C34.3468 105.903 33.9153 106.071 33.4546 106.187L39.2335 119.706C40.2061 119.842 41.1352 120.108 41.9384 120.504L55.9708 115.749C55.688 115.155 55.6877 114.526 55.9696 113.932L34.9447 105.548C34.8748 105.595 34.8013 105.641 34.7241 105.685ZM43.0299 121.19C43.7907 121.804 44.1964 122.519 44.247 123.242L55.1227 127.821C56.085 127.298 57.513 127.225 58.6058 127.602L65.4076 122.174C64.7663 121.451 64.9698 120.543 66.0181 119.938C67.3189 119.187 69.4279 119.187 70.7287 119.938C71.9935 120.669 72.0284 121.84 70.8333 122.594L74.7185 128.46C75.6754 128.285 76.6891 128.241 77.6743 128.329L78.0331 123.84L78.0365 123.797L78.0472 123.755L81.9061 108.745C81.1697 108.657 80.4635 108.464 79.8589 108.166L67.4844 114.136C67.88 115.228 67.3433 116.411 65.8745 117.258C63.5603 118.594 59.8082 118.594 57.494 117.258C57.1403 117.054 56.8406 116.83 56.595 116.593L43.0299 121.19Z" fill="#A8ACB2"/>
<circle opacity="0.1" cx="2.37642" cy="2.37642" r="2.37642" transform="matrix(0.866025 0.5 0.866063 -0.499935 43.3857 136.457)" fill="#A8ACB2"/>
<path d="M77.1736 125.731L83.077 89.0671L63.021 96.7977M77.1736 125.731L68.2666 109.574L57.3636 124.304L37.4652 117.297M77.1736 125.731L89.405 104.755M63.021 96.7977L37.4652 117.297M63.021 96.7977L29.4346 81.2334L37.4652 117.297M63.021 96.7977L53.3276 84.4607M37.4652 117.297L47.6764 133.013" stroke="#1A1B1D"/>
<circle cx="7.93361" cy="7.93361" r="7.93361" transform="matrix(-4.37114e-08 1 1 4.37114e-08 29.7395 109.075)" fill="#959AA1"/>
<path opacity="0.5" fill-rule="evenodd" clip-rule="evenodd" d="M45.3905 115.162C44.558 118.652 41.4187 121.248 37.6731 121.248C33.9276 121.248 30.7882 118.652 29.9557 115.162C29.8144 115.754 29.7395 116.373 29.7395 117.009C29.7395 121.391 33.2915 124.943 37.6731 124.943C42.0547 124.943 45.6067 121.391 45.6067 117.009C45.6067 116.373 45.5319 115.754 45.3905 115.162Z" fill="#BBBEC3"/>
<circle cx="7.93361" cy="7.93361" r="7.93361" transform="matrix(-4.37114e-08 1 1 4.37114e-08 29.7395 109.075)" stroke="#1A1B1D"/>
<circle cx="5.87438" cy="5.87438" r="5.87438" transform="matrix(0.258819 0.965926 0.965926 -0.258819 75.9963 85.762)" fill="#959AA1"/>
<path opacity="0.5" fill-rule="evenodd" clip-rule="evenodd" d="M88.8888 88.4861C89.6689 91.5911 87.8149 94.7584 84.7114 95.59C81.5776 96.4297 78.3565 94.5699 77.5168 91.4362C77.2481 90.4334 77.2558 89.4216 77.4932 88.4818C77.5008 88.5121 77.5087 88.5423 77.5168 88.5725C78.3565 91.7063 81.5776 93.5661 84.7114 92.7264C86.8424 92.1554 88.3842 90.4832 88.8888 88.4861Z" fill="#BBBEC3"/>
<circle cx="5.87438" cy="5.87438" r="5.87438" transform="matrix(0.258819 0.965926 0.965926 -0.258819 75.9963 85.762)" stroke="#1A1B1D"/>
<circle cx="6.96152" cy="6.96152" r="6.96152" transform="matrix(-4.37114e-08 1 1 4.37114e-08 69.7542 118.091)" fill="#BBBEC3"/>
<path opacity="0.5" fill-rule="evenodd" clip-rule="evenodd" d="M83.5216 123.583C82.8467 126.721 80.0559 129.074 76.7157 129.074C73.3754 129.074 70.5846 126.721 69.9097 123.583C69.8078 124.057 69.7542 124.548 69.7542 125.053C69.7542 128.898 72.8709 132.014 76.7157 132.014C80.5604 132.014 83.6772 128.898 83.6772 125.053C83.6772 124.548 83.6235 124.057 83.5216 123.583Z" fill="#CFD1D4"/>
<circle cx="6.96152" cy="6.96152" r="6.96152" transform="matrix(-4.37114e-08 1 1 4.37114e-08 69.7542 118.091)" stroke="#1A1B1D"/>
<circle cx="6.25281" cy="6.25281" r="6.25281" transform="matrix(-0.5 0.866025 0.866025 0.5 27.9041 73.7)" fill="#CFD1D4"/>
<path opacity="0.5" fill-rule="evenodd" clip-rule="evenodd" d="M35.5398 82.3419C33.8131 85.3326 29.989 86.3573 26.9983 84.6306C25.5118 83.7724 24.511 82.396 24.0923 80.8612C23.5026 83.4629 24.6346 86.2532 27.0661 87.657C30.0568 89.3837 33.881 88.359 35.6076 85.3683C36.4761 83.8642 36.6485 82.1492 36.2249 80.5962C36.0893 81.1945 35.8626 81.7828 35.5398 82.3419Z" fill="#BBBEC3"/>
<circle cx="6.25281" cy="6.25281" r="6.25281" transform="matrix(-0.5 0.866025 0.866025 0.5 27.9038 73.7)" stroke="#1A1B1D"/>
<circle cx="5.87438" cy="5.87438" r="5.87438" transform="matrix(-4.37114e-08 1 1 4.37114e-08 57.1169 90.6233)" fill="#BBBEC3"/>
<path opacity="0.5" fill-rule="evenodd" clip-rule="evenodd" d="M68.6135 94.7893C67.882 97.2006 65.6416 98.9557 62.9913 98.9557C60.341 98.9557 58.1007 97.2006 57.3691 94.7893C57.2051 95.3298 57.1169 95.9033 57.1169 96.4973C57.1169 99.7416 59.747 102.372 62.9913 102.372C66.2356 102.372 68.8657 99.7416 68.8657 96.4973C68.8657 95.9033 68.7775 95.3298 68.6135 94.7893Z" fill="#CFD1D4"/>
<circle cx="5.87438" cy="5.87438" r="5.87438" transform="matrix(-4.37114e-08 1 1 4.37114e-08 57.1169 90.6233)" stroke="#1A1B1D"/>
<circle cx="4.0302" cy="4.0302" r="4.0302" transform="matrix(-4.37114e-08 1 1 4.37114e-08 64.343 105.864)" fill="#A8ACB2"/>
<path opacity="0.5" fill-rule="evenodd" clip-rule="evenodd" d="M72.2304 108.722C71.7285 110.376 70.1915 111.58 68.3732 111.58C66.555 111.58 65.018 110.376 64.516 108.722C64.4035 109.093 64.343 109.486 64.343 109.894C64.343 112.12 66.1474 113.924 68.3732 113.924C70.599 113.924 72.4034 112.12 72.4034 109.894C72.4034 109.486 72.3429 109.093 72.2304 108.722Z" fill="#CFD1D4"/>
<circle cx="4.0302" cy="4.0302" r="4.0302" transform="matrix(-4.37114e-08 1 1 4.37114e-08 64.343 105.864)" stroke="#1A1B1D"/>
<circle cx="3.11029" cy="3.11029" r="3.11029" transform="matrix(-4.37114e-08 1 1 4.37114e-08 86.2617 101.167)" fill="#CFD1D4"/>
<path opacity="0.5" fill-rule="evenodd" clip-rule="evenodd" d="M92.349 103.374C91.9617 104.65 90.7755 105.579 89.3723 105.579C87.969 105.579 86.7828 104.65 86.3955 103.374C86.3087 103.66 86.262 103.963 86.262 104.278C86.262 105.996 87.6545 107.388 89.3723 107.388C91.09 107.388 92.4825 105.996 92.4825 104.278C92.4825 103.963 92.4359 103.66 92.349 103.374Z" fill="#BBBEC3"/>
<circle cx="3.11029" cy="3.11029" r="3.11029" transform="matrix(-4.37114e-08 1 1 4.37114e-08 86.2617 101.167)" stroke="#1A1B1D"/>
<circle cx="3.01098" cy="3.01098" r="3.01098" transform="matrix(-4.37114e-08 1 1 4.37114e-08 54.1067 120.385)" fill="#CFD1D4"/>
<path opacity="0.5" fill-rule="evenodd" clip-rule="evenodd" d="M59.9994 122.521C59.6244 123.757 58.4761 124.656 57.1177 124.656C55.7593 124.656 54.611 123.757 54.236 122.521C54.1519 122.798 54.1067 123.092 54.1067 123.397C54.1067 125.059 55.4548 126.408 57.1177 126.408C58.7806 126.408 60.1287 125.059 60.1287 123.397C60.1287 123.092 60.0834 122.798 59.9994 122.521Z" fill="#BBBEC3"/>
<circle cx="3.01098" cy="3.01098" r="3.01098" transform="matrix(-4.37114e-08 1 1 4.37114e-08 54.1067 120.385)" stroke="#1A1B1D"/>
<circle cx="3.01098" cy="3.01098" r="3.01098" transform="matrix(-4.37114e-08 1 1 4.37114e-08 44.7827 130.003)" fill="#A8ACB2"/>
<path opacity="0.5" fill-rule="evenodd" clip-rule="evenodd" d="M50.6757 132.138C50.3007 133.374 49.1524 134.274 47.7939 134.274C46.4355 134.274 45.2872 133.374 44.9122 132.138C44.8282 132.415 44.783 132.709 44.783 133.014C44.783 134.677 46.131 136.025 47.7939 136.025C49.4569 136.025 50.8049 134.677 50.8049 133.014C50.8049 132.709 50.7597 132.415 50.6757 132.138Z" fill="#CFD1D4"/>
<circle cx="3.01098" cy="3.01098" r="3.01098" transform="matrix(-4.37114e-08 1 1 4.37114e-08 44.7827 130.003)" stroke="#1A1B1D"/>
<circle cx="3.01098" cy="3.01098" r="3.01098" transform="matrix(-4.37114e-08 1 1 4.37114e-08 50.2346 81.0305)" fill="#A8ACB2"/>
<path opacity="0.5" fill-rule="evenodd" clip-rule="evenodd" d="M56.1273 83.166C55.7523 84.4019 54.604 85.3015 53.2456 85.3015C51.8872 85.3015 50.7389 84.4019 50.3639 83.166C50.2798 83.4431 50.2346 83.737 50.2346 84.0415C50.2346 85.7044 51.5827 87.0525 53.2456 87.0525C54.9085 87.0525 56.2566 85.7044 56.2566 84.0415C56.2566 83.737 56.2114 83.4431 56.1273 83.166Z" fill="#CFD1D4"/>
<circle cx="3.01098" cy="3.01098" r="3.01098" transform="matrix(-4.37114e-08 1 1 4.37114e-08 50.2346 81.0305)" stroke="#1A1B1D"/>
</g>
<path fill-rule="evenodd" clip-rule="evenodd" d="M157.258 89.9902C156.304 89.4388 155.441 89.3891 154.818 89.7513L170.567 80.593C171.19 80.23 172.053 80.2805 173.007 80.831C174.898 81.9236 176.426 84.5813 176.42 86.7553C176.417 87.8367 176.034 88.5997 175.417 88.9584L159.668 98.1167C160.285 97.7579 160.668 96.995 160.671 95.9136C160.676 93.7405 159.148 91.0819 157.258 89.9902Z" fill="#2A2925" stroke="black"/>
<path d="M132.739 86.5408L101 104.931L145.753 132L157.401 122.765C168.459 113.999 168.503 97.2298 157.491 88.4057C150.415 82.736 140.584 81.9952 132.739 86.5408Z" fill="#4C99A4" stroke="black"/>
<path fill-rule="evenodd" clip-rule="evenodd" d="M119.433 116.579L161.246 91.9351C168.346 101.178 167.073 114.877 157.455 122.522L145.714 131.855L119.433 116.579Z" fill="#8FE3E8"/>
<path d="M119.433 116.579L119.179 116.148L118.443 116.582L119.182 117.011L119.433 116.579ZM161.246 91.9351L161.643 91.6305L161.373 91.2797L160.992 91.5043L161.246 91.9351ZM157.455 122.522L157.144 122.13L157.455 122.522ZM145.714 131.855L145.463 132.287L145.758 132.458L146.025 132.246L145.714 131.855ZM119.687 117.01L161.5 92.3658L160.992 91.5043L119.179 116.148L119.687 117.01ZM157.766 122.913C167.604 115.094 168.904 101.084 161.643 91.6305L160.85 92.2396C167.788 101.273 166.542 114.66 157.144 122.13L157.766 122.913ZM146.025 132.246L157.766 122.913L157.144 122.13L145.403 131.463L146.025 132.246ZM119.182 117.011L145.463 132.287L145.965 131.422L119.684 116.147L119.182 117.011Z" fill="black"/>
<path d="M125.152 96.3853C114.724 90.3642 106.218 95.2217 106.184 107.205C106.15 119.189 114.601 133.83 125.029 139.851C135.455 145.871 143.962 141.024 143.997 129.04C144.03 117.057 135.579 102.407 125.152 96.3853Z" fill="#51A6B1" stroke="black"/>
<path d="M114.426 111.671C115.718 112.416 116.764 114.227 116.759 115.722C116.755 117.205 115.703 117.806 114.41 117.06C113.118 116.314 112.073 114.501 112.077 113.018C112.082 111.524 113.134 110.924 114.426 111.671Z" fill="#001213" stroke="black"/>
<path d="M109.473 96.1973L113.412 93.9077C110.014 95.8822 107.904 100.078 107.888 106.033C107.854 118.017 116.305 132.658 126.733 138.679C131.98 141.709 136.741 141.987 140.18 139.987L136.241 142.277C132.801 144.276 128.04 143.999 122.793 140.968C112.365 134.947 103.915 120.306 103.948 108.323C103.965 102.367 106.075 98.1709 109.473 96.1973Z" fill="#8FE3E8" stroke="black"/>
<path d="M131.299 121.414C132.591 122.16 133.636 123.971 133.632 125.463C133.628 126.949 132.576 127.548 131.284 126.802C129.992 126.056 128.946 124.245 128.951 122.76C128.955 121.267 130.007 120.667 131.299 121.414Z" fill="#001213" stroke="black"/>
<path fill-rule="evenodd" clip-rule="evenodd" d="M100.352 106.159C100.385 94.6809 112.917 87.5875 122.857 93.3275C136.757 101.354 145.404 116.262 145.358 132.313C145.326 143.791 132.793 150.884 122.853 145.144C108.954 137.118 100.307 122.21 100.352 106.159ZM122.794 140.969C133.221 146.99 141.728 142.142 141.761 130.157C141.795 118.175 133.344 103.525 122.917 97.5031C112.49 91.482 103.983 96.3395 103.949 108.323C103.915 120.307 112.366 134.947 122.794 140.969Z" fill="#51A6B1" stroke="black"/>
<path d="M58.0793 153.459L75.0032 163.75L75.0742 163.872C75.8289 165.158 77.6292 165.636 78.9255 164.874L98.7364 153.236C100.075 152.449 100.524 150.722 99.7375 149.382C98.9836 148.095 97.1833 147.619 95.887 148.38L78.7176 158.467L66.38 152.002L81.8056 142.941C82.4542 142.561 82.9154 141.949 83.1036 141.222C83.2927 140.494 83.1875 139.736 82.8067 139.088C82.0529 137.801 80.2535 137.324 78.9572 138.085L59.1463 149.722C57.8474 150.487 57.3862 152.138 58.0793 153.459Z" fill="#BBBEC3" stroke="black"/>
<path d="M78.7389 147.02C78.5232 146.65 77.7326 145.32 76.616 143.767C75.9512 142.839 74.9894 141.658 74.2578 140.783C73.4013 139.756 71.299 137.648 70.1576 136.74C68.4077 135.35 68.2238 135.204 67.0952 134.483C65.8579 133.693 65.7433 133.637 63.8257 132.697C63.0548 132.32 61.9664 131.946 61.1441 131.696C60.4536 131.487 59.5081 131.292 58.7971 131.172C57.0028 130.874 55.0357 131.023 54.1518 131.196C53.3954 131.344 51.3872 131.738 49.4868 133C47.9783 134.001 46.9207 135.038 45.8349 136.579C44.9792 137.793 44.1723 139.554 43.7283 141.175C41.8869 147.898 43.8763 154.484 44.53 156.648C45.1067 158.558 47.417 165.281 52.9205 171.608C54.7601 173.72 56.646 175.468 58.6876 176.951C61.7705 179.188 64.2561 180.109 64.9458 180.336C66.373 180.811 68.531 181.527 71.5574 181.364C73.5408 181.259 75.4489 180.689 77.2269 179.676C80.368 177.887 81.9493 174.94 82.3591 174.079C82.8434 173.062 83.3893 171.774 83.7641 169.938C83.8762 169.391 84.0088 168.657 84.0601 168.099C84.144 167.174 84.1953 165.935 84.2133 165.007C84.1063 159.127 82.2658 153.074 78.7389 147.02Z" fill="#C3F8FB" stroke="black"/>
<path d="M73.3602 150.111C73.1668 149.78 72.4609 148.592 71.4632 147.203C70.8685 146.375 70.0086 145.319 69.3549 144.536C68.5891 143.619 66.7109 141.735 65.691 140.925C64.1268 139.681 63.9634 139.551 62.9537 138.906C61.8482 138.2 61.7456 138.15 60.0326 137.31C59.3429 136.973 58.3709 136.639 57.6367 136.416C57.0198 136.229 56.1744 136.055 55.5387 135.948C53.9343 135.68 52.1768 135.814 51.3871 135.97C50.7111 136.102 48.916 136.454 47.2184 137.58C45.8699 138.475 44.9244 139.403 43.9549 140.78C43.1908 141.865 42.4686 143.439 42.0716 144.887C40.4262 150.896 42.2042 156.781 42.7878 158.715C43.3038 160.421 45.3676 166.43 50.2867 172.084C51.9296 173.973 53.616 175.534 55.4411 176.859C58.1955 178.859 60.4176 179.681 61.0328 179.884C62.3086 180.309 64.2372 180.949 66.9419 180.803C68.7148 180.707 70.4193 180.2 72.0091 179.294C74.8156 177.696 76.2283 175.062 76.5954 174.292C77.0283 173.383 77.516 172.232 77.8506 170.593C77.9516 170.104 78.0696 169.446 78.115 168.949C78.1903 168.122 78.2365 167.015 78.2519 166.185C78.1569 160.93 76.5115 155.521 73.3602 150.111Z" fill="#51A6B1" stroke="black"/>
<path fill-rule="evenodd" clip-rule="evenodd" d="M38.8993 178.829C38.4972 178.628 38.1044 178.417 37.7219 178.196C35.505 176.915 33.8553 175.431 32.7746 173.847C31.7401 172.331 31.225 170.725 31.2293 169.121L31.2678 155.449C31.2644 157.054 31.7786 158.659 32.8131 160.175C33.8946 161.76 35.5435 163.245 37.7604 164.526C39.9809 165.808 42.5512 166.759 45.2927 167.381C53.1929 169.173 62.505 168.221 68.8607 164.526L76.6702 159.983L76.6317 173.654L68.8222 178.196C63.9775 181.012 57.4173 182.236 51.0735 181.865C46.8184 181.635 42.5889 182.654 38.9045 184.796C38.8822 184.758 38.8822 184.758 38.8822 184.758L38.8993 178.829Z" fill="#C3F8FB" stroke="black"/>
<path d="M38.92 171.086L38.8815 184.759L26.4053 177.55L26.4438 163.878L38.92 171.086Z" fill="#51A6B1" stroke="black"/>
<path fill-rule="evenodd" clip-rule="evenodd" d="M15.4428 180.254C14.4887 179.702 13.6254 179.653 13.0024 180.015L28.7515 170.856C29.3753 170.493 30.2378 170.544 31.1918 171.094C33.0828 172.187 34.611 174.845 34.605 177.019C34.6016 178.1 34.2191 178.863 33.6022 179.222L17.8531 188.38C18.47 188.021 18.8525 187.258 18.8559 186.177C18.8611 184.004 17.3329 181.345 15.4428 180.254Z" fill="#2A2925" stroke="black"/>
<path d="M15.4423 180.254C17.3324 181.346 18.8606 184.004 18.8555 186.177C18.8486 188.351 17.3102 189.237 15.4192 188.144C13.5222 187.048 11.994 184.391 12 182.217C12.006 180.044 13.5453 179.157 15.4423 180.254Z" fill="#2A2925" stroke="black"/>
<path fill-rule="evenodd" clip-rule="evenodd" d="M51.1114 168.195C46.8562 167.963 42.6267 168.982 38.9423 171.124C38.9201 171.086 38.9201 171.086 38.9201 171.086L26.4438 163.878C26.4438 163.878 26.8469 163.644 27.4501 163.294C30.0162 161.801 31.511 158.978 31.3048 156.015C31.0361 152.588 33.1581 149.116 37.6588 146.498L45.4684 141.957L76.6696 159.983L68.8601 164.526C64.0163 167.342 57.456 168.565 51.1114 168.195Z" fill="#5DB3BF" stroke="black"/>
</svg>
