<svg width="169" height="32" viewBox="0 0 253 48" fill="none" xmlns="http://www.w3.org/2000/svg">
<path d="M156.729 24.7994C156.729 19.4522 160.565 15.668 166.009 15.668C171.449 15.668 175.253 19.383 175.253 24.7994V33.27H173.092V29.0349C171.87 32.09 169.01 33.7213 165.66 33.7213C160.81 33.7211 156.729 30.2841 156.729 24.7994ZM172.917 24.6953C172.917 20.7366 170.125 17.8208 166.009 17.8208C161.891 17.8208 159.1 20.7364 159.1 24.6953C159.1 28.6527 161.891 31.5685 166.009 31.5685C170.126 31.5685 172.917 28.6527 172.917 24.6953Z" fill="white"/>
<path d="M184.962 25.0759V16.1189H187.299V25.0757C187.299 29.277 189.741 31.5681 193.474 31.5681C197.207 31.5681 199.65 29.277 199.65 25.0757V16.1189H201.987V25.0757C201.987 30.77 198.569 33.7209 193.474 33.7209C188.379 33.7209 184.962 30.77 184.962 25.0759Z" fill="white"/>
<path d="M211.695 22.9936C211.695 18.0634 214.661 15.6682 218.953 15.6682C223.245 15.6682 226.174 18.0634 226.174 23.0288V23.2362H223.87V22.9936C223.87 19.4182 221.883 17.8208 218.953 17.8208C215.987 17.8208 214.032 19.4181 214.032 22.9936V33.27H211.695V22.9936Z" fill="white"/>
<path d="M234.067 24.7994C234.067 19.4522 237.904 15.668 243.348 15.668C248.788 15.668 252.592 19.383 252.592 24.7994V33.27H250.429V29.0349C249.207 32.09 246.348 33.7213 242.999 33.7213C238.149 33.7211 234.067 30.2841 234.067 24.7994ZM250.255 24.6953C250.255 20.7366 247.464 17.8208 243.347 17.8208C239.23 17.8208 236.439 20.7367 236.439 24.6953C236.439 28.6527 239.23 31.5685 243.348 31.5685C247.464 31.5685 250.255 28.6527 250.255 24.6953Z" fill="white"/>
<path d="M27.2607 10.2225C19.2878 10.2225 13.9363 14.9236 13.9363 23.9994V30.4501C14.7004 30.0674 15.5746 29.8485 16.5026 29.8485C17.4306 29.8485 18.3048 30.0674 19.124 30.4501V23.9443C19.124 18.0402 22.3457 15.0337 27.2607 15.0337C32.1758 15.0337 35.3974 18.0402 35.3974 23.9443V38.1039H40.5851V23.9443C40.6401 14.8148 35.2336 10.2225 27.2607 10.2225Z" fill="white"/>
<path d="M43.4253 24.4909C43.4253 16.2356 49.4319 10.1676 57.9516 10.1676C66.4712 10.1676 72.3691 16.2356 72.3691 24.4909V26.4043H48.9407C49.7047 31.2693 53.3093 33.9481 58.0052 33.9481C61.5011 33.9481 63.9583 32.8551 65.5419 30.5039H71.2759C69.2011 35.5877 64.2862 38.813 58.0052 38.813C49.4861 38.813 43.4241 32.745 43.4241 24.4897L43.4253 24.4909ZM66.9624 21.7571C65.9243 17.3837 62.3753 15.0325 58.0067 15.0325C53.6381 15.0325 50.1427 17.4375 49.1055 21.7571H66.9639H66.9624Z" fill="white"/>
<path d="M75.2092 24.4909C75.2092 16.2356 81.216 10.1676 89.7356 10.1676C98.2548 10.1676 104.262 16.2356 104.262 24.4909C104.262 32.7462 98.2548 38.8142 89.7356 38.8142C81.216 38.8142 75.2092 32.7462 75.2092 24.4909ZM99.0738 24.4909C99.0738 18.9694 95.3609 15.0337 89.7903 15.0337C84.2201 15.0337 80.5067 18.9694 80.5067 24.4909C80.5067 30.0124 84.2201 33.9481 89.7903 33.9481C95.3609 33.9481 99.0738 30.0124 99.0738 24.4909Z" fill="white"/>
<path d="M133.969 43.5165H134.57C137.901 43.5165 139.157 42.0408 139.157 38.1589V11.098H144.345V37.8312C144.345 44.556 141.724 48.0001 135.061 48.0001H133.969V43.5179V43.5165Z" fill="white"/>
<path d="M131.404 40.7275H126.214V34.2769H113.054C110.432 34.2769 108.139 32.965 107.101 30.8877C106.118 28.9192 106.391 26.6231 107.811 24.7097L119.661 9.12947C121.355 6.83333 124.248 5.90411 126.925 6.77831C129.655 7.6525 131.404 10.1125 131.404 13.0101V29.6834H135.334V34.3307H131.404V40.7266V40.7275ZM112.126 27.5524C111.962 27.7712 111.907 28.0439 111.907 28.3177C111.907 29.0281 112.507 29.6296 113.218 29.6296H126.214V12.8463C126.214 11.9721 125.559 11.6433 125.287 11.5894C125.178 11.5344 125.014 11.5344 124.795 11.5344C124.467 11.5344 124.085 11.6433 123.757 12.0809L112.126 27.5524Z" fill="white"/>
<path d="M141.774 0C139.316 0 137.35 2.02225 137.35 4.48344C137.35 6.94464 139.371 8.9657 141.774 8.9657C144.176 8.9657 146.197 6.9434 146.197 4.48344C146.197 2.02348 144.176 0 141.774 0Z" fill="white"/>
<path d="M2.25015 25.804C1.59482 26.1317 0.994499 26.6782 0.556788 27.3897C0.120303 28.1001 -0.0435285 28.8655 0.0102679 29.6309C0.0652853 30.9978 0.829442 32.2546 2.08509 32.965C3.23195 33.6203 4.54263 33.4565 5.79829 33.1839C7.3278 32.8012 8.63848 32.6373 10.003 33.4578H10.058C12.4067 34.8246 12.4067 38.2689 10.058 39.6346H10.003C8.63729 40.4548 7.32662 40.2909 5.79829 39.9084C4.59641 39.5807 3.28574 39.4169 2.08509 40.1275C0.829442 40.8377 0.119082 42.1495 0.0102679 43.4613C-0.0447542 44.2267 0.119082 44.9921 0.556788 45.7024C0.993274 46.4131 1.5398 46.9595 2.25015 47.2883C3.45202 47.8898 4.92652 47.8898 6.18218 47.1795C7.32904 46.5243 7.87555 45.2662 8.20324 44.0628C8.63972 42.5324 9.13121 41.329 10.5519 40.5636C11.9176 39.7434 13.2283 39.9084 14.7566 40.2909C15.9585 40.6187 17.2692 40.7826 18.4698 40.0723C19.7255 39.3619 20.4358 38.05 20.5447 36.7381V36.1916C20.4896 34.8246 19.7255 33.5678 18.4698 32.8574C17.323 32.2009 16.0123 32.3659 14.7566 32.6386C13.2271 33.0213 11.9164 33.1851 10.5519 32.3647C9.18623 31.5443 8.64095 30.3962 8.20324 28.8655C7.87555 27.6624 7.32904 26.4605 6.18218 25.749C4.92652 25.2024 3.45202 25.2024 2.25015 25.804Z" fill="white"/>
</svg>
