<svg fill="none" xmlns="http://www.w3.org/2000/svg" viewBox="2.2 19.89 137.55 132.52"> <path d="M49.6035 143.685L103.428 79.23L80.3555 66.0064C79.5938 65.3197 78.4946 65.2421 77.2678 65.9505L28.9448 93.8572C26.6477 95.184 24.7852 98.7439 24.7852 101.808V126.867C24.7852 128.376 25.239 129.481 25.9717 130.058L25.9743 130.061C26.1263 130.18 26.2915 130.272 26.4658 130.344L49.6042 143.685H49.6035Z" fill="#02507B" stroke="black" stroke-width="0.283973"></path> <path d="M65.0305 125.212L71.2283 117.791L29.3653 93.6152L28.9454 93.8575C26.6477 95.1842 24.7852 98.7441 24.7852 101.808V101.97L65.0305 125.212Z" fill="#02507B" stroke="black" stroke-width="0.283973"></path> <path d="M80.356 66.0064C79.5947 65.3197 78.4955 65.2421 77.2686 65.9505L28.9453 93.8572L29.3651 93.615L71.2281 117.791L103.428 79.23L80.356 66.0064Z" fill="#02507B" stroke="black" stroke-width="0.283973"></path> <path d="M70.126 47.4041L62.4835 43.0072C62.3742 42.9416 62.2643 42.8779 62.153 42.8166L62.0071 42.7327L62.0001 42.738C58.6108 40.9747 54.0204 41.3366 48.9601 44.258C38.5361 50.2782 30.0859 64.8572 30.0859 76.8212C30.0859 82.5528 32.0288 86.6381 35.1951 88.6846L35.1935 88.691L35.3281 88.7679C35.5107 88.8816 35.6969 88.9882 35.8869 89.0878L43.6033 93.5093L45.3766 89.2594C46.5371 88.8456 47.7343 88.2928 48.9591 87.5854C59.3831 81.5653 67.8333 66.986 67.8333 55.0219C67.8333 52.8425 67.5501 50.9033 67.028 49.2207L70.1244 47.4041H70.126Z" fill="#02507B" stroke="black" stroke-width="0.283973"></path> <path d="M34.0593 61.2646C31.5776 66.3645 30.0859 71.8196 30.0859 76.8225C30.0859 82.5542 32.0288 86.6395 35.1952 88.686L35.1935 88.6923L35.3281 88.7693C35.5107 88.8829 35.6969 88.9895 35.8869 89.0891L43.6033 93.5106L45.3766 89.2607C46.5371 88.8469 47.7343 88.2941 48.9591 87.5868C53.2753 85.0938 57.2407 81.1231 60.42 76.4893L34.0583 61.2656L34.0593 61.2646Z" fill="#02507B" stroke="black" stroke-width="0.283973"></path> <path d="M51.5363 88.1483L78.6867 72.4691C80.1111 71.6458 81.2663 69.4393 81.2663 67.5395V43.2012C81.2663 41.3016 80.1111 40.4287 78.6867 41.2507L51.5363 56.9295C50.1119 57.7525 48.957 59.9593 48.957 61.8588V86.1971C48.957 88.097 50.1119 88.9696 51.5363 88.1476V88.1483Z" fill="#02507B" stroke="black" stroke-width="0.283973"></path> <path fill-rule="evenodd" clip-rule="evenodd" d="M103.852 51.6503C107.172 45.8194 109.218 39.3034 109.218 33.4145C109.218 30.9618 108.861 28.8094 108.204 26.9945C107.335 24.5911 105.955 22.7569 104.17 21.5884L103.166 21.019C99.7979 19.3773 95.2905 19.7928 90.3395 22.6503C85.2533 25.5951 80.6305 30.5757 77.2526 36.2903L77.2523 36.29C75.7279 38.8289 74.4638 41.5221 73.5078 44.2447L73.5081 44.245L73.5078 44.2457L80.8914 48.5805L85.7944 41.2249L103.852 51.6503Z" fill="#02507B"></path> <path d="M103.853 51.6508L103.77 51.7951L103.915 51.8791L103.998 51.7335L103.853 51.6508ZM104.171 21.5889L104.262 21.4497L104.258 21.4467L104.253 21.444L104.171 21.5889ZM103.168 21.0195L103.25 20.8749L103.245 20.8722L103.241 20.8699L103.168 21.0195ZM90.3409 22.6508L90.2576 22.5066H90.2573L90.3409 22.6508ZM77.254 36.2909L77.1707 36.4351L77.3133 36.5178L77.3973 36.3755L77.254 36.2909ZM77.2537 36.2905L77.337 36.1463L77.195 36.0643L77.1107 36.2049L77.2537 36.2905ZM73.5092 44.2452L73.3523 44.1899L73.3066 44.3195L73.4253 44.3892L73.5092 44.2452ZM73.5096 44.2456L73.6668 44.3009L73.7125 44.1709L73.5939 44.1016L73.5096 44.2456ZM73.5092 44.2462L73.3523 44.1909L73.3066 44.3205L73.4249 44.3898L73.5092 44.2462ZM80.8928 48.5811L80.8085 48.7247L80.9441 48.8043L81.0314 48.6734L80.8928 48.5811ZM85.7958 41.2255L85.8791 41.0812L85.7435 41.0029L85.6569 41.1329L85.7958 41.2255ZM109.053 33.415C109.053 39.268 107.018 45.7556 103.708 51.5685L103.998 51.7335C107.328 45.8839 109.386 39.3396 109.386 33.415H109.053ZM108.049 27.0517C108.698 28.8453 109.053 30.9784 109.053 33.415H109.386C109.386 30.9467 109.027 28.7746 108.362 26.9384L108.049 27.0517ZM104.08 21.7286C105.831 22.8737 107.19 24.676 108.049 27.0517L108.362 26.9384C107.483 24.5074 106.083 22.6412 104.262 21.4497L104.08 21.7286ZM103.085 21.1645L104.089 21.7339L104.253 21.444L103.25 20.8749L103.085 21.1645ZM90.4242 22.7951C95.3465 19.9543 99.7933 19.5605 103.095 21.1695L103.241 20.8699C99.8053 19.1956 95.2369 19.6328 90.2576 22.5066L90.4242 22.7951ZM77.3973 36.3755C80.7642 30.6795 85.3683 25.7222 90.4242 22.7951L90.2573 22.5066C85.1407 25.469 80.4993 30.4729 77.1107 36.2059L77.3973 36.3755ZM77.17 36.4348L77.1707 36.4351L77.3373 36.1466L77.337 36.1463L77.17 36.4348ZM73.6665 44.3005C74.6184 41.5883 75.8779 38.9058 77.3963 36.3762L77.1107 36.2049C75.581 38.7535 74.3116 41.4567 73.3523 44.1899L73.6665 44.3005ZM73.5939 44.1016L73.5935 44.1013L73.4253 44.3892H73.4256L73.5939 44.1016ZM73.6665 44.3015C73.6665 44.3012 73.6668 44.3012 73.6668 44.3009L73.3526 44.1903C73.3523 44.1903 73.3523 44.1906 73.3523 44.1909L73.6665 44.3015ZM80.9771 48.4372L73.5935 44.1026L73.4249 44.3898L80.8085 48.7247L80.9771 48.4372ZM85.6569 41.1329L80.7542 48.4885L81.0314 48.6734L85.9344 41.3178L85.6569 41.1329ZM103.936 51.5066L85.8791 41.0812L85.7125 41.3698L103.77 51.7951L103.936 51.5066Z" fill="black"></path> <path d="M58.9523 92.4096L86.1027 76.7301C87.5272 75.9071 88.6823 73.7004 88.6823 71.8005V47.4622C88.6823 45.5627 87.5272 44.6887 86.1027 45.512L58.9523 61.1905C57.5279 62.0135 56.373 64.2203 56.373 66.1198V90.4581C56.373 92.358 57.5279 93.2306 58.9523 92.4086V92.4096Z" fill="#02507B" stroke="black" stroke-width="0.283973"></path> <path d="M52.2348 143.417L100.558 115.51C102.856 114.183 104.718 110.624 104.718 107.56V82.5007C104.718 79.437 102.856 78.0279 100.558 79.3547L52.2348 107.261C49.9368 108.588 48.0742 112.148 48.0742 115.212V140.271C48.0742 143.335 49.9368 144.744 52.2348 143.417Z" fill="#02507B" stroke="black" stroke-width="0.283973"></path> <path d="M53.8364 142.918L100.377 116.042C102.59 114.764 104.383 111.335 104.383 108.384V84.2497C104.383 81.2989 102.59 79.9422 100.377 81.2203L53.8364 108.097C51.6233 109.375 49.8301 112.804 49.8301 115.755V139.889C49.8301 142.84 51.6233 144.197 53.8364 142.919V142.918Z" fill="#51A6B1" stroke="black" stroke-width="0.283973"></path> <path opacity="0.53" d="M57.3594 140.195L98.9236 116.192C100.9 115.05 102.502 111.989 102.502 109.353V87.7984C102.502 85.1631 100.9 83.9516 98.9236 85.0922L57.3594 109.096C55.3832 110.237 53.7812 113.298 53.7812 115.934V137.489C53.7812 140.124 55.3832 141.335 57.3594 140.195Z" fill="#02507B" stroke="black" stroke-width="0.283973"></path> <path d="M55.8035 120.581C55.8401 120.581 55.8778 120.573 55.9127 120.552L77.1459 108.364C77.2509 108.303 77.2866 108.169 77.2262 108.064C77.1659 107.959 77.033 107.924 76.9274 107.984L55.6938 120.172C55.5892 120.232 55.5532 120.366 55.6125 120.471C55.6528 120.542 55.7272 120.581 55.8025 120.581L55.8035 120.581Z" fill="#02507B" stroke="black" stroke-width="0.283973"></path> <path d="M55.8035 122.475C55.8401 122.475 55.8777 122.465 55.9117 122.446L77.1449 110.275C77.2499 110.215 77.2859 110.081 77.2262 109.976C77.1659 109.871 77.0323 109.835 76.9274 109.895L55.6938 122.065C55.5892 122.126 55.5532 122.26 55.6125 122.365C55.6528 122.435 55.7272 122.474 55.8025 122.474L55.8035 122.475Z" fill="#02507B" stroke="black" stroke-width="0.283973"></path> <path d="M55.8028 124.367C55.8394 124.367 55.8771 124.358 55.9111 124.339L77.1446 112.187C77.2496 112.126 77.2852 111.992 77.2259 111.888C77.1656 111.783 77.0317 111.747 76.9277 111.807L55.6945 123.959C55.5895 124.019 55.5526 124.153 55.6132 124.258C55.6532 124.328 55.7275 124.368 55.8028 124.368V124.367Z" fill="#02507B" stroke="black" stroke-width="0.283973"></path> <path d="M55.8028 126.261C55.8394 126.261 55.8771 126.252 55.9111 126.232L77.1446 114.098C77.2492 114.038 77.2862 113.904 77.2259 113.8C77.1656 113.694 77.0317 113.659 76.9277 113.718L55.6945 125.852C55.5895 125.912 55.5526 126.046 55.6132 126.151C55.6532 126.222 55.7275 126.261 55.8028 126.261V126.261Z" fill="#02507B" stroke="black" stroke-width="0.283973"></path> <path d="M55.8028 128.153C55.8394 128.153 55.8771 128.145 55.9111 128.125L77.1446 116.01C77.2492 115.95 77.2862 115.816 77.2259 115.712C77.1656 115.606 77.0317 115.571 76.9277 115.631L55.6945 127.746C55.5895 127.806 55.5526 127.94 55.6132 128.045C55.6532 128.116 55.7275 128.155 55.8028 128.155V128.153Z" fill="#02507B" stroke="black" stroke-width="0.283973"></path> <path d="M55.8019 130.046C55.8389 130.046 55.8762 130.037 55.9105 130.018L77.1437 117.921C77.2487 117.86 77.2853 117.727 77.226 117.622C77.1654 117.517 77.0308 117.481 76.9278 117.54L55.6946 129.637C55.5896 129.698 55.5527 129.831 55.613 129.936C55.6533 130.006 55.7276 130.046 55.8029 130.046H55.8019Z" fill="#02507B" stroke="black" stroke-width="0.283973"></path> <path d="M55.8022 131.938C55.8388 131.938 55.8765 131.929 55.9108 131.91L77.144 119.831C77.249 119.771 77.2856 119.638 77.226 119.533C77.1657 119.427 77.031 119.391 76.9278 119.451L55.6945 131.529C55.5896 131.59 55.5529 131.723 55.6126 131.827C55.6526 131.898 55.7269 131.938 55.8032 131.938H55.8022Z" fill="#02507B" stroke="black" stroke-width="0.283973"></path> <path d="M55.8022 133.831C55.8388 133.831 55.8765 133.823 55.9108 133.803L77.144 121.743C77.249 121.684 77.2856 121.55 77.226 121.445C77.1657 121.339 77.031 121.303 76.9278 121.363L55.6945 133.423C55.5896 133.483 55.5529 133.616 55.6126 133.721C55.6526 133.792 55.7269 133.831 55.8032 133.831H55.8022Z" fill="#02507B" stroke="black" stroke-width="0.283973"></path> <path d="M80.811 106.172C80.8477 106.172 80.8853 106.162 80.9203 106.143L102.154 93.9544C102.258 93.8941 102.294 93.7602 102.234 93.6552C102.174 93.5503 102.041 93.5153 101.935 93.5749L80.7017 105.764C80.5968 105.824 80.5611 105.958 80.6204 106.063C80.6607 106.133 80.735 106.172 80.8103 106.172H80.811Z" fill="#02507B" stroke="black" stroke-width="0.283973"></path> <path d="M80.811 108.065C80.8477 108.065 80.8853 108.056 80.9196 108.037L102.153 95.8662C102.258 95.8058 102.293 95.6719 102.234 95.5669C102.174 95.462 102.04 95.4263 101.935 95.4856L80.7017 107.656C80.5968 107.717 80.5611 107.85 80.6204 107.955C80.6607 108.026 80.735 108.065 80.8103 108.065L80.811 108.065Z" fill="#02507B" stroke="black" stroke-width="0.283973"></path> <path d="M80.8113 109.957C80.8479 109.957 80.8856 109.948 80.9196 109.929L102.154 97.7764C102.259 97.7161 102.295 97.5825 102.235 97.4782C102.175 97.3726 102.041 97.3376 101.937 97.3969L80.7037 109.549C80.5987 109.61 80.5631 109.743 80.6224 109.847C80.6627 109.918 80.737 109.957 80.812 109.957H80.8113Z" fill="#02507B" stroke="black" stroke-width="0.283973"></path> <path d="M80.8108 111.85C80.8474 111.85 80.8851 111.842 80.9191 111.821L102.152 99.6876C102.257 99.6273 102.294 99.4933 102.234 99.3894C102.173 99.2844 102.04 99.2484 101.935 99.3081L80.7022 111.442C80.5972 111.502 80.5606 111.636 80.6209 111.741C80.6612 111.812 80.7355 111.851 80.8108 111.851V111.85Z" fill="#02507B" stroke="black" stroke-width="0.283973"></path> <path d="M80.8108 113.743C80.8474 113.743 80.8851 113.735 80.9191 113.715L102.152 101.6C102.257 101.54 102.294 101.406 102.234 101.301C102.173 101.195 102.04 101.16 101.935 101.219L80.7022 113.335C80.5972 113.395 80.5606 113.529 80.6209 113.633C80.6612 113.704 80.7355 113.743 80.8108 113.743Z" fill="#02507B" stroke="black" stroke-width="0.283973"></path> <path d="M80.812 115.638C80.8487 115.638 80.8863 115.629 80.9203 115.61L102.154 103.513C102.258 103.452 102.295 103.319 102.236 103.214C102.176 103.109 102.041 103.073 101.938 103.132L80.7044 115.229C80.5995 115.29 80.5628 115.423 80.6221 115.528C80.6624 115.598 80.7367 115.638 80.812 115.638Z" fill="#02507B" stroke="black" stroke-width="0.283973"></path> <path d="M80.812 117.53C80.8487 117.53 80.8863 117.521 80.9203 117.501L102.154 105.423C102.258 105.363 102.295 105.23 102.236 105.125C102.176 105.019 102.041 104.983 101.938 105.042L80.7044 117.121C80.5995 117.181 80.5628 117.314 80.6221 117.419C80.6624 117.49 80.7367 117.53 80.8127 117.53H80.812Z" fill="#02507B" stroke="black" stroke-width="0.283973"></path> <path d="M80.812 119.422C80.8487 119.422 80.8863 119.413 80.9203 119.394L102.154 107.334C102.258 107.274 102.295 107.141 102.236 107.036C102.176 106.93 102.041 106.894 101.938 106.953L80.7044 119.014C80.5995 119.073 80.5628 119.207 80.6221 119.312C80.6624 119.383 80.7367 119.422 80.8127 119.422H80.812Z" fill="#02507B" stroke="black" stroke-width="0.283973"></path> <path d="M78.8828 59.4781C78.8828 71.4429 87.333 76.2622 97.757 70.242C108.181 64.2222 116.632 49.6429 116.632 37.6788C116.632 25.7148 108.182 20.8954 97.757 26.9146C87.333 32.9348 78.8828 47.5141 78.8828 59.4781Z" fill="#5DB3BF" stroke="black" stroke-width="0.283973"></path> <path d="M97.7617 31.8095C99.8155 30.6236 101.482 31.5735 101.482 33.9306C101.482 36.2876 99.8165 39.1607 97.7617 40.3476C95.7076 41.5338 94.0429 40.5838 94.0429 38.2268C94.0429 35.8694 95.7076 32.9963 97.7617 31.8095ZM104.22 59.5923C106.274 58.4061 107.939 55.533 107.939 53.1749C107.939 50.8169 106.274 49.868 104.22 51.0542C102.166 52.24 100.5 55.1131 100.5 57.4712C100.5 59.8292 102.165 60.7781 104.22 59.5923ZM90.9972 48.8641C90.9972 46.506 89.3325 45.5561 87.2784 46.7429C85.2246 47.9291 83.5586 50.8023 83.5586 53.1603C83.5586 55.518 85.2236 56.4672 87.2784 55.2811C89.3325 54.0952 90.9972 51.2221 90.9972 48.8641ZM91.2947 58.5191C89.2406 59.7049 87.5756 62.578 87.5756 64.9361C87.5756 67.2941 89.2406 68.243 91.2947 67.0572C93.3485 65.871 95.0142 62.9979 95.0142 60.6399C95.0142 58.2818 93.3495 57.3322 91.2947 58.5191ZM111.957 36.7601C111.957 34.402 110.292 33.4531 108.237 34.6389C106.183 35.8251 104.517 38.6983 104.517 41.0563C104.517 43.414 106.182 44.3639 108.237 43.1771C110.291 41.9912 111.957 39.1181 111.957 36.7601Z" fill="#262F31" stroke="black" stroke-width="0.283973"></path> <path d="M97.7297 26.8829C87.3056 32.9031 78.8555 47.482 78.8555 59.4461C78.8555 71.4101 87.3056 76.2295 97.7297 70.2103C108.153 64.1901 116.604 49.6108 116.604 37.6468C116.604 25.6827 108.153 20.8627 97.7297 26.8829ZM97.7297 68.3061C88.2213 73.7971 80.5141 69.4013 80.5141 58.4885C80.5141 47.5757 88.2223 34.2778 97.7297 28.7868C107.237 23.2961 114.945 27.6919 114.945 38.6047C114.945 49.5172 107.237 62.8154 97.7297 68.3061Z" fill="#02507B" stroke="black" stroke-width="0.283973"></path> <path d="M100.482 53.0737C100.978 52.4946 101.43 51.8632 101.832 51.1975C101.841 51.1855 101.849 51.1742 101.857 51.1625H101.854C102.995 49.2587 103.71 47.0912 103.71 45.1417C103.71 41.3696 101.046 39.8502 97.7595 41.7481C94.999 43.3428 92.6836 46.8403 92.0123 50.155H92.0059C92.0059 50.155 92.0026 50.1876 91.9956 50.2383C91.924 50.6074 91.867 50.9746 91.838 51.3358C91.4045 54.1126 90.0621 61.1431 87.1016 65.2417L87.1136 65.2477C86.2157 66.5895 85.6289 68.1805 85.6289 69.6016C85.6289 72.0822 87.3812 73.0818 89.543 71.8336C90.9141 71.042 92.1162 69.5353 92.8149 67.9066L92.8183 67.9083C92.8183 67.9083 92.8246 67.8856 92.8263 67.8769C93.0345 67.3871 93.1854 66.8894 93.2924 66.3952C94.0934 64.1132 96.0852 59.3711 100.482 53.0747L100.482 53.0737Z" fill="#02507B" stroke="black" stroke-width="0.283973"></path> <path d="M92.9551 51.353C92.9551 54.3984 95.1059 55.6256 97.7598 54.0932C100.414 52.5608 102.565 48.85 102.565 45.8036C102.565 42.7572 100.414 41.5311 97.7598 43.0634C95.1059 44.5958 92.9551 48.3066 92.9551 51.353Z" fill="#02507B" stroke="black" stroke-width="0.283973"></path> <path d="M94.0391 51.5218C94.0391 54.275 95.9839 55.3852 98.3833 53.9988C100.783 52.6134 102.727 49.2574 102.727 46.5042C102.727 43.7507 100.783 42.6408 98.3833 44.0262C95.9839 45.4117 94.0391 48.7676 94.0391 51.5208V51.5218Z" fill="#FFCF72" stroke="black" stroke-width="0.283973"></path> <path d="M96.9668 50.6659C96.9668 52.018 97.9217 52.5631 99.0996 51.8824C100.277 51.202 101.233 49.5543 101.233 48.2022C101.233 46.8498 100.278 46.305 99.0996 46.9854C97.9217 47.6658 96.9668 49.3138 96.9668 50.6659Z" fill="#02507B" stroke="black" stroke-width="0.283973"></path> <path d="M37.498 81.0849C37.498 93.0496 45.9482 97.8689 56.3722 91.8488C66.7959 85.8286 75.2461 71.2496 75.2461 59.2856C75.2461 47.3215 66.7959 42.5015 56.3722 48.5214C45.9482 54.5415 37.498 69.1208 37.498 81.0849Z" fill="#5DB3BF" stroke="black" stroke-width="0.283973"></path> <path opacity="0.53" d="M51.5703 72.9587C51.5703 76.0041 53.7211 77.2313 56.375 75.6989C59.0289 74.1666 61.18 70.4554 61.18 67.409C61.18 64.363 59.0289 63.1365 56.375 64.6688C53.7211 66.2012 51.5703 69.9123 51.5703 72.9587Z" fill="#02507B" stroke="black" stroke-width="0.283973"></path> <path d="M52.7285 73.1019C52.7285 75.8551 54.673 76.9643 57.0727 75.5789C59.4721 74.1934 61.4166 70.8375 61.4166 68.084C61.4166 65.3308 59.4721 64.2209 57.0727 65.6063C54.673 66.9918 52.7285 70.3477 52.7285 73.1009V73.1019Z" fill="#FFCF72" stroke="black" stroke-width="0.283973"></path> <path d="M55.6582 72.245C55.6582 73.5971 56.6131 74.1419 57.791 73.4615C58.9688 72.7811 59.9244 71.1331 59.9244 69.781C59.9244 68.4289 58.9695 67.8841 57.791 68.5645C56.6131 69.2449 55.6582 70.8929 55.6582 72.245Z" fill="#02507B" stroke="black" stroke-width="0.283973"></path> <path d="M56.3722 48.5194C45.9482 54.5396 37.498 69.1189 37.498 81.0829C37.498 93.047 45.9482 97.867 56.3722 91.8468C66.7959 85.827 75.2461 71.2477 75.2461 59.2836C75.2461 47.3196 66.7959 42.4996 56.3722 48.5194ZM56.3722 89.9436C46.8638 95.4347 39.1567 91.0388 39.1567 80.126C39.1567 69.2132 46.8648 55.9144 56.3722 50.4246C65.8803 44.9336 73.5874 49.3294 73.5874 60.2422C73.5874 71.155 65.8803 84.4529 56.3722 89.9436Z" fill="#02507B" stroke="black" stroke-width="0.283973"></path> <path d="M81.7148 76.6686C81.7148 77.2073 82.0954 77.4242 82.5648 77.153C83.0343 76.8821 83.4148 76.2251 83.4148 75.6863C83.4148 75.1475 83.0343 74.9306 82.5648 75.2018C82.0954 75.4731 81.7148 76.1298 81.7148 76.6686Z" fill="#02507B" stroke="black" stroke-width="0.283973"></path> <path d="M78.3594 78.606C78.3594 79.1448 78.7395 79.3617 79.2094 79.0905C79.6788 78.8193 80.059 78.1626 80.059 77.6238C80.059 77.085 79.6788 76.8681 79.2094 77.1393C78.7395 77.4102 78.3594 78.0673 78.3594 78.606Z" fill="#02507B" stroke="black" stroke-width="0.283973"></path> <path d="M81.8906 76.7494C81.8906 77.2882 82.2708 77.5051 82.7403 77.2342C83.2101 76.963 83.5903 76.3062 83.5903 75.7675C83.5903 75.2287 83.2101 75.0118 82.7403 75.2827C82.2708 75.5539 81.8906 76.2106 81.8906 76.7494Z" fill="#02507B" stroke="black" stroke-width="0.283973"></path> <path d="M78.5371 78.6852C78.5371 79.2239 78.9176 79.4408 79.3871 79.1696C79.8566 78.8984 80.2371 78.2417 80.2371 77.7029C80.2371 77.1641 79.8566 76.9472 79.3871 77.2184C78.9176 77.4897 78.5371 78.1464 78.5371 78.6852Z" fill="#02507B" stroke="black" stroke-width="0.283973"></path> <path d="M86.9199 68.8557C86.9199 70.5184 88.0944 71.1884 89.5432 70.3514C90.9922 69.5151 92.1664 67.4886 92.1664 65.826C92.1664 64.1633 90.9922 63.4933 89.5432 64.3302C88.0944 65.1672 86.9199 67.1931 86.9199 68.8557Z" fill="#02507B" stroke="black" stroke-width="0.283973"></path> <path d="M87.5098 68.8501C87.5098 70.3212 88.5483 70.9133 89.8305 70.1736C91.1123 69.4336 92.1508 67.6413 92.1508 66.1702C92.1508 64.6992 91.1123 64.1071 89.8305 64.8471C88.5483 65.5868 87.5098 67.3791 87.5098 68.8501Z" fill="#FFCF72" stroke="black" stroke-width="0.283973"></path> <path d="M89.0742 68.3912C89.0742 69.1135 89.584 69.4048 90.2134 69.0409C90.8432 68.6781 91.3529 67.7971 91.3529 67.0757C91.3529 66.354 90.8432 66.0628 90.2134 66.4257C89.584 66.7888 89.0742 67.6695 89.0742 68.3912Z" fill="#02507B" stroke="black" stroke-width="0.283973"></path> <path d="M70.4918 108.773L70.6171 108.556C70.707 108.529 70.8007 108.49 70.8976 108.434C71.557 108.053 72.0921 107.13 72.0921 106.374C72.0921 106.26 72.0791 106.158 72.0555 106.065L72.1751 105.857L71.7433 105.607C71.7433 105.607 71.7416 105.607 71.7396 105.606H71.7389C71.523 105.484 71.2255 105.503 70.8976 105.693C70.2382 106.074 69.7031 106.997 69.7031 107.754C69.7031 108.133 69.8377 108.399 70.0556 108.523L70.4918 108.774V108.773Z" fill="#02507B" stroke="black" stroke-width="0.283973"></path> <path d="M72.5277 106.625C72.5277 105.869 71.9932 105.564 71.3332 105.944C70.6738 106.325 70.1387 107.247 70.1387 108.005C70.1387 108.762 70.6738 109.066 71.3332 108.686C71.9922 108.305 72.5277 107.383 72.5277 106.625Z" fill="#02507B" stroke="black" stroke-width="0.283973"></path> <path d="M65.2262 111.781L65.3511 111.564C65.4411 111.536 65.5347 111.497 65.6317 111.441C66.2911 111.06 66.8262 110.138 66.8262 109.381C66.8262 109.267 66.8122 109.164 66.7895 109.072L66.9095 108.865L66.4773 108.615C66.4773 108.615 66.4747 108.614 66.474 108.614H66.473C66.2571 108.492 65.9599 108.511 65.6317 108.701C64.9726 109.082 64.4375 110.004 64.4375 110.761C64.4375 111.14 64.5721 111.406 64.7897 111.529L65.2262 111.781V111.781Z" fill="#02507B" stroke="black" stroke-width="0.283973"></path> <path d="M67.2621 109.633C67.2621 108.877 66.7276 108.571 66.0675 108.952C65.4082 109.333 64.873 110.255 64.873 111.012C64.873 111.768 65.4075 112.073 66.0675 111.693C66.7269 111.312 67.2621 110.39 67.2621 109.633Z" fill="#02507B" stroke="black" stroke-width="0.283973"></path> <path d="M59.9576 114.788L60.0826 114.571C60.1726 114.543 60.2662 114.504 60.3625 114.448C61.0219 114.067 61.557 113.145 61.557 112.387C61.557 112.274 61.5436 112.171 61.52 112.079L61.6399 111.87L61.2081 111.621C61.2081 111.621 61.2055 111.619 61.2045 111.619H61.2035C60.9876 111.498 60.6903 111.517 60.3625 111.707C59.7031 112.087 59.168 113.01 59.168 113.768C59.168 114.148 59.3026 114.413 59.5205 114.536L59.9566 114.788H59.9576Z" fill="#02507B" stroke="black" stroke-width="0.283973"></path> <path d="M61.9941 112.64C61.9941 111.883 61.46 111.578 60.7996 111.959C60.1406 112.339 59.6055 113.262 59.6055 114.018C59.6055 114.775 60.1396 115.08 60.7996 114.7C61.459 114.319 61.9941 113.396 61.9941 112.639V112.64Z" fill="#02507B" stroke="black" stroke-width="0.283973"></path> <path d="M56.7438 53.0479C58.798 51.8621 60.4636 52.811 60.4636 55.169C60.4636 57.5267 58.799 60.3992 56.7438 61.586C54.69 62.7719 53.025 61.823 53.025 59.4649C53.025 57.1069 54.69 54.2348 56.7438 53.0479ZM63.2025 80.8304C65.2563 79.6446 66.9213 76.7714 66.9213 74.4134C66.9213 72.0554 65.2563 71.1064 63.2025 72.2923C61.1483 73.4785 59.4827 76.3516 59.4827 78.7096C59.4827 81.0676 61.1476 82.0166 63.2025 80.8304ZM49.9796 70.1015C49.9796 67.7435 48.3146 66.7946 46.2608 67.9804C44.2067 69.1666 42.541 72.0397 42.541 74.3977C42.541 76.7554 44.2057 77.7054 46.2608 76.5185C48.3146 75.3327 49.9796 72.4595 49.9796 70.1015ZM50.2768 79.7572C48.223 80.9434 46.558 83.8165 46.558 86.1745C46.558 88.5326 48.223 89.4815 50.2768 88.2953C52.331 87.1095 53.9966 84.2363 53.9966 81.8783C53.9966 79.5203 52.3316 78.5713 50.2768 79.7572ZM70.9393 57.9975C70.9393 55.6395 69.2743 54.6906 67.2195 55.8764C65.1653 57.0626 63.4997 59.9357 63.4997 62.2938C63.4997 64.6514 65.1647 65.6007 67.2195 64.4145C69.2733 63.2287 70.9393 60.3556 70.9393 57.9975Z" fill="#262F31" stroke="black" stroke-width="0.283973"></path> <path d="M25.9102 116.815C25.9102 123.354 30.5279 131.321 36.2245 134.612C41.9212 137.901 46.539 135.267 46.539 128.729C46.539 122.19 41.9212 114.223 36.2245 110.933C30.5279 107.642 25.9102 110.277 25.9102 116.815Z" fill="#02507B" stroke="black" stroke-width="0.283973"></path> <path d="M25.9414 118.802C25.9414 124.199 29.7532 130.776 34.4555 133.491C39.1573 136.206 42.9697 134.032 42.9697 128.636C42.9697 123.239 39.1583 116.662 34.4555 113.946C29.7532 111.23 25.9414 113.405 25.9414 118.801V118.802Z" fill="#02507B" stroke="black" stroke-width="0.283973"></path> <path fill-rule="evenodd" clip-rule="evenodd" d="M34.4575 115.401C38.4448 117.703 41.6765 123.28 41.6765 127.856C41.6765 130.025 40.9448 131.57 39.7563 132.361V132.371L39.62 132.455C39.6077 132.462 39.5957 132.469 39.5837 132.477C39.5663 132.488 39.549 132.499 39.5307 132.509L32.1184 136.781L32.1181 136.781L32.1168 136.781L31.518 135.769C30.814 135.626 30.0629 135.339 29.2819 134.888C29.2703 134.881 29.2586 134.874 29.2466 134.866C25.2763 132.551 22.0646 126.995 22.0646 122.433C22.0646 121.632 22.1685 120.919 22.3538 120.293L21.748 119.269L29.3799 114.86L29.3869 114.864C30.6904 114.14 32.4803 114.26 34.4575 115.401Z" fill="#02507B"></path> <path d="M39.757 132.362L39.6647 132.223L39.5904 132.273V132.362H39.757ZM39.757 132.372L39.8436 132.514L39.9236 132.466V132.372H39.757ZM39.6207 132.455L39.705 132.599L39.7073 132.598L39.6207 132.455ZM39.5314 132.509L39.4521 132.363L39.4481 132.365L39.5314 132.509ZM32.1191 136.782L31.9755 136.867L32.0595 137.009L32.2024 136.926L32.1191 136.782ZM32.1188 136.781L32.2621 136.697L32.1781 136.555L32.0355 136.637L32.1188 136.781ZM32.1175 136.782L31.9742 136.867L32.0582 137.009L32.2008 136.926L32.1175 136.782ZM31.5187 135.77L31.662 135.685L31.6243 135.622L31.552 135.607L31.5187 135.77ZM29.2827 134.888L29.1987 135.032L29.1994 135.033L29.2827 134.888ZM29.2473 134.867L29.335 134.725L29.3313 134.723L29.2473 134.867ZM22.3545 120.294L22.5145 120.341L22.5351 120.271L22.4978 120.209L22.3545 120.294ZM21.7488 119.27L21.6651 119.126L21.5195 119.21L21.6052 119.355L21.7488 119.27ZM29.3806 114.86L29.4686 114.719L29.3836 114.666L29.297 114.716L29.3806 114.86ZM29.3876 114.865L29.2993 115.006L29.3826 115.058L29.4682 115.01L29.3876 114.865ZM41.8438 127.856C41.8438 125.532 41.0241 122.965 39.707 120.693C38.3899 118.42 36.5663 116.426 34.5415 115.258L34.3749 115.546C36.3374 116.679 38.1233 118.625 39.4188 120.86C40.7143 123.095 41.5106 125.605 41.5106 127.856H41.8438ZM39.8493 132.5C41.0994 131.669 41.8438 130.06 41.8438 127.856H41.5106C41.5106 129.991 40.7912 131.474 39.6647 132.223L39.8493 132.5ZM39.9236 132.372V132.362H39.5904V132.372H39.9236ZM39.7073 132.598L39.8436 132.514L39.6704 132.23L39.5341 132.313L39.7073 132.598ZM39.6734 132.618C39.686 132.611 39.6957 132.604 39.705 132.599L39.5361 132.312C39.5214 132.321 39.5071 132.33 39.4954 132.337L39.6734 132.618ZM39.611 132.656C39.6347 132.643 39.657 132.629 39.6734 132.618L39.4954 132.337C39.4774 132.348 39.4644 132.357 39.4521 132.363L39.611 132.656ZM32.2024 136.926L39.6147 132.654L39.4481 132.365L32.0358 136.638L32.2024 136.926ZM31.9752 136.866L31.9755 136.867L32.2624 136.697L32.2621 136.697L31.9752 136.866ZM32.2008 136.926L32.2021 136.926L32.0355 136.637L32.0342 136.638L32.2008 136.926ZM31.3754 135.855L31.9742 136.867L32.2611 136.697L31.662 135.685L31.3754 135.855ZM29.1994 135.033C29.9937 135.492 30.7617 135.786 31.4854 135.933L31.552 135.607C30.868 135.468 30.1336 135.188 29.3663 134.744L29.1994 135.033ZM29.16 135.009C29.1727 135.017 29.1857 135.025 29.1987 135.032L29.3669 134.745C29.3563 134.739 29.3456 134.732 29.3346 134.725L29.16 135.009ZM21.8987 122.434C21.8987 124.751 22.713 127.309 24.0232 129.576C25.3333 131.844 27.1475 133.836 29.1637 135.011L29.3313 134.723C27.3771 133.584 25.6002 131.64 24.3117 129.41C23.0232 127.18 22.2319 124.679 22.2319 122.434H21.8987ZM22.1949 120.246C22.0047 120.889 21.8987 121.618 21.8987 122.434H22.2319C22.2319 121.647 22.3339 120.95 22.5145 120.341L22.1949 120.246ZM21.6052 119.355L22.2112 120.378L22.4978 120.209L21.892 119.185L21.6052 119.355ZM29.297 114.716L21.6651 119.126L21.8321 119.415L29.4639 115.005L29.297 114.716ZM29.4756 114.723L29.4686 114.719L29.2923 115.002L29.2993 115.006L29.4756 114.723ZM34.5415 115.258C32.5343 114.099 30.6794 113.956 29.3066 114.719L29.4682 115.01C30.7031 114.325 32.4277 114.422 34.3749 115.546L34.5415 115.258Z" fill="black"></path> <path d="M19.8164 123.792C19.8164 128.369 23.0481 133.945 27.0354 136.247C31.0228 138.55 34.2544 136.706 34.2544 132.13C34.2544 127.554 31.0228 121.978 27.0354 119.676C23.0481 117.372 19.8164 119.216 19.8164 123.792Z" fill="#02507B" stroke="black" stroke-width="0.283973"></path> <path fill-rule="evenodd" clip-rule="evenodd" d="M25.9113 118.365C30.7083 121.135 34.597 127.844 34.597 133.35L34.596 133.349C34.596 135.577 33.956 137.262 32.8791 138.3C32.7698 138.405 32.6558 138.504 32.5376 138.596V138.602L32.5369 138.602L32.5362 138.603L21.1459 149.309L20.2307 147.763C19.9611 147.707 19.6875 147.639 19.4103 147.556C18.578 147.308 17.7087 146.933 16.8134 146.415C16.7814 146.397 16.7494 146.378 16.7178 146.358C10.6696 142.805 5.78263 134.337 5.78263 127.38C5.78263 126.155 5.94256 125.066 6.22511 124.109L5.29883 122.546L20.3169 117.483C20.3693 117.463 20.4232 117.446 20.4769 117.428C20.4995 117.421 20.5219 117.414 20.5442 117.406L20.7244 117.345L20.7304 117.354C22.1785 116.951 23.9668 117.242 25.9113 118.365Z" fill="#02507B"></path> <path d="M34.5953 133.35L34.4773 133.468L34.7619 133.753V133.35H34.5953ZM34.5943 133.349L34.7122 133.232L34.4277 132.947V133.349H34.5943ZM32.5358 138.597L32.4335 138.465L32.3692 138.515V138.597H32.5358ZM32.5358 138.603L32.6511 138.723L32.7024 138.674V138.603H32.5358ZM32.5351 138.603L32.4198 138.483L32.4172 138.485L32.5351 138.603ZM32.5345 138.604L32.6484 138.725L32.6504 138.724L32.6524 138.722L32.5345 138.604ZM21.1442 149.309L21.0009 149.394L21.1068 149.573L21.2584 149.431L21.1442 149.309ZM20.2289 147.763L20.3721 147.678L20.3345 147.614L20.2622 147.6L20.2289 147.763ZM16.716 146.358L16.805 146.217L16.8026 146.216L16.8003 146.214L16.716 146.358ZM6.22334 124.11L6.38294 124.157L6.4036 124.087L6.36662 124.025L6.22334 124.11ZM5.29706 122.547L5.24408 122.389L5.04883 122.455L5.15379 122.632L5.29706 122.547ZM20.3152 117.484L20.3685 117.642L20.3718 117.64L20.3755 117.639L20.3152 117.484ZM20.5424 117.407L20.5951 117.565L20.5961 117.564L20.5424 117.407ZM20.7227 117.345L20.8593 117.25L20.7873 117.147L20.669 117.188L20.7227 117.345ZM20.7287 117.354L20.5924 117.45L20.6597 117.546L20.7733 117.515L20.7287 117.354ZM34.7619 133.35C34.7619 130.561 33.7779 127.478 32.1953 124.748C30.6129 122.018 28.4225 119.624 25.9928 118.221L25.8262 118.51C28.1936 119.877 30.346 122.222 31.907 124.915C33.4681 127.608 34.4287 130.634 34.4287 133.35H34.7619ZM34.4763 133.467L34.4773 133.468L34.7129 133.232L34.7122 133.232L34.4763 133.467ZM32.9929 138.42C34.1125 137.342 34.7609 135.607 34.7609 133.349H34.4277C34.4277 135.548 33.7963 137.183 32.7617 138.18L32.9929 138.42ZM32.6381 138.728C32.761 138.632 32.8793 138.53 32.9929 138.42L32.7617 138.18C32.6564 138.282 32.5471 138.377 32.4335 138.465L32.6381 138.728ZM32.7024 138.603V138.597H32.3692V138.603H32.7024ZM32.6504 138.723L32.6511 138.723L32.4205 138.482L32.4198 138.483L32.6504 138.723ZM32.6524 138.722L32.6531 138.721L32.4172 138.485L32.4165 138.486L32.6524 138.722ZM21.2584 149.431L32.6484 138.725L32.4202 138.483L21.0302 149.188L21.2584 149.431ZM20.0856 147.848L21.0009 149.394L21.2878 149.225L20.3721 147.678L20.0856 147.848ZM19.3609 147.716C19.6428 147.801 19.9213 147.87 20.1956 147.926L20.2622 147.6C19.9976 147.546 19.7287 147.479 19.4565 147.397L19.3609 147.716ZM16.728 146.56C17.6336 147.083 18.5149 147.465 19.3612 147.716L19.4565 147.397C18.6379 147.153 17.7802 146.783 16.8949 146.272L16.728 146.56ZM16.627 146.499C16.66 146.52 16.6937 146.54 16.728 146.56L16.8953 146.272C16.8653 146.255 16.8353 146.236 16.805 146.217L16.627 146.499ZM5.61426 127.381C5.61426 130.895 6.84742 134.78 8.83593 138.229C10.8244 141.678 13.577 144.707 16.6317 146.502L16.8003 146.214C13.8069 144.456 11.0917 141.475 9.12447 138.062C7.15762 134.651 5.94746 130.823 5.94746 127.381H5.61426ZM6.06341 124.063C5.77619 125.036 5.61426 126.141 5.61426 127.381H5.94746C5.94746 126.17 6.10539 125.097 6.38294 124.157L6.06341 124.063ZM5.15379 122.632L6.07973 124.195L6.36662 124.025L5.44066 122.462L5.15379 122.632ZM20.2619 117.326L5.24408 122.389L5.35037 122.705L20.3685 117.642L20.2619 117.326ZM20.4241 117.27C20.3712 117.287 20.3125 117.306 20.2549 117.328L20.3755 117.639C20.4225 117.621 20.4718 117.605 20.5264 117.587L20.4241 117.27ZM20.4898 117.249C20.4684 117.256 20.4468 117.263 20.4241 117.27L20.5264 117.587C20.5487 117.58 20.5717 117.573 20.5951 117.565L20.4898 117.249ZM20.669 117.188L20.4888 117.249L20.5961 117.564L20.7763 117.503L20.669 117.188ZM20.8653 117.259L20.8593 117.25L20.5861 117.441L20.5924 117.45L20.8653 117.259ZM25.9928 118.221C24.0226 117.083 22.1877 116.776 20.684 117.194L20.7733 117.515C22.1657 117.128 23.9073 117.401 25.8262 118.51L25.9928 118.221Z" fill="black"></path> <path d="M2.3457 129.457C2.3457 136.45 7.28532 144.972 13.3781 148.491C19.4709 152.009 24.4106 149.192 24.4106 142.199C24.4106 135.207 19.4709 126.684 13.3781 123.166C7.28532 119.647 2.3457 122.465 2.3457 129.457Z" fill="#02507B" stroke="black" stroke-width="0.283973"></path> <path d="M3.05273 130.27C3.05273 136.592 7.51855 144.297 13.0273 147.479C18.536 150.66 23.0015 148.113 23.0015 141.79C23.0015 135.468 18.536 127.762 13.0273 124.581C7.51855 121.4 3.05273 123.946 3.05273 130.27Z" fill="#02507B" stroke="black" stroke-width="0.283973"></path> <path opacity="0.57" d="M3.35352 133.184L10.2447 132.215L21.0452 140.762L22.369 145.41C20.9579 148.95 17.3141 149.954 13.0278 147.479C8.34345 144.773 4.42541 138.8 3.35352 133.185V133.184Z" fill="#02507B" stroke="black" stroke-width="0.283973"></path> <path d="M8.51758 130.86C8.51758 135.126 11.531 140.324 15.2471 142.471C18.9643 144.617 21.9767 142.898 21.9767 138.633C21.9767 134.367 18.9633 129.169 15.2471 127.023C11.531 124.877 8.51758 126.595 8.51758 130.861V130.86Z" fill="#E7FAFB" stroke="black" stroke-width="0.283973"></path> <g style="mix-blend-mode:overlay" opacity="0.33"> <path d="M10.3828 133.767L20.1108 140.776C19.3334 142.425 17.5215 142.85 15.4097 141.631C12.8585 140.157 10.7623 136.793 10.3828 133.767Z" fill="#02507B"></path> <path d="M10.3828 133.767L20.1108 140.776C19.3334 142.425 17.5215 142.85 15.4097 141.631C12.8585 140.157 10.7623 136.793 10.3828 133.767Z" stroke="black" stroke-width="0.283973"></path> </g> <path d="M166.613 113.056L113.812 85.002L162.588 152.276L165.607 150.469L166.613 113.056Z" fill="#3C3F44" stroke="#09090A" stroke-width="0.283973"></path> <path d="M159.153 75.6671L110.5 70.9971L107.486 72.8093L159.446 88.7634L162.46 86.9558L159.153 75.6671Z" fill="#3C3F44" stroke="#09090A" stroke-width="0.283973"></path> <path d="M149.177 81.5086L159.172 75.7397L159.152 75.6664L109.317 70.0391L106.303 71.8513L149.177 85.4947V81.5086Z" fill="#3C3F44" stroke="#09090A" stroke-width="0.283973"></path> <path d="M166.613 113.055L115.122 85.2793L111.072 87.1795L163.599 122.902L166.613 120.866V113.055Z" fill="#3C3F44" stroke="#09090A" stroke-width="0.283973"></path> <path d="M166.612 113.056L112.85 82.0127L110.822 85.3343L162.929 121.912L163.598 114.863L166.612 113.056Z" fill="#3C3F44" stroke="#09090A" stroke-width="0.283973"></path> <path d="M112.85 82.0127L111.688 83.9226V85.9401L113.382 87.1319H121.716L112.85 82.0127Z" fill="#3C3F44" stroke="#09090A" stroke-width="0.283973"></path> <path d="M163.598 114.863L109.836 83.8242L110.842 122.4L162.587 152.276L163.598 114.863Z" fill="#3C3F44" stroke="#09090A" stroke-width="0.283973"></path> <path d="M156.138 77.4799L106.303 71.8525L109.61 83.1415L159.445 88.7639L156.138 77.4799Z" fill="#3C3F44" stroke="#09090A" stroke-width="0.283973"></path> <path d="M163.598 114.863L109.836 83.8242L110.026 92.0065L163.598 122.903V114.863Z" fill="#3C3F44" stroke="#09090A" stroke-width="0.283973"></path> <path d="M134.209 97.8984L137.731 107.986L146.739 113.183L143.217 103.101L134.209 97.8984Z" fill="#F5F6F6" stroke="#09090A" stroke-width="0.283973"></path> <path d="M117.762 88.4014L121.289 98.5035L130.296 103.696L126.769 93.6039L117.762 88.4014Z" fill="#F5F6F6" stroke="#09090A" stroke-width="0.283973"></path> <path d="M109.836 83.8242L110.026 92.0065L113.851 94.2143L110.324 84.1074L109.836 83.8242Z" fill="#3C3F44" stroke="#09090A" stroke-width="0.283973"></path> <path d="M109.612 83.1404L116.548 83.922L117.642 73.1315L109.499 72.2129L108.703 80.0533L109.612 83.1404Z" fill="#F5F6F6" stroke="#09090A" stroke-width="0.283973"></path> <path d="M132.166 85.6847L133.26 74.8942L125.122 73.9756L124.027 84.7665L132.166 85.6847Z" fill="#F5F6F6" stroke="#09090A" stroke-width="0.283973"></path> <path d="M147.789 87.4494L148.883 76.6589L140.745 75.7402L139.65 86.5311L147.789 87.4494Z" fill="#F5F6F6" stroke="#09090A" stroke-width="0.283973"></path> <path d="M108.16 81.8013C108.16 83.5013 109.362 85.5678 110.842 86.4224C112.322 87.2774 113.519 86.5937 113.519 84.8937C113.519 83.1937 112.317 81.1273 110.837 80.2726C109.357 79.4176 108.16 80.1017 108.16 81.8013Z" fill="#3C3F44" stroke="#09090A" stroke-width="0.283973"></path> <path d="M107.119 82.4177C107.119 84.1127 108.316 86.1839 109.801 87.0388C111.281 87.8938 112.478 87.2098 112.478 85.5148C112.478 83.8148 111.276 81.7487 109.796 80.8937C108.316 80.0387 107.119 80.7228 107.119 82.4227V82.4177Z" fill="#3C3F44" stroke="#09090A" stroke-width="0.283973"></path> <path d="M107.885 82.9013C107.885 84.0688 108.71 85.4902 109.726 86.0767C110.743 86.6628 111.568 86.1936 111.568 85.0264C111.568 83.8589 110.743 82.4372 109.726 81.8511C108.71 81.265 107.885 81.7338 107.885 82.9013Z" fill="#51A6B1" stroke="#09090A" stroke-width="0.283973"></path> <path d="M131.838 125.771L132.056 125.896V132.285L131.838 132.157V125.771Z" fill="white" stroke="white" stroke-width="0.283973"></path> <path d="M121.096 119.666L121.314 119.794V126.181L121.096 126.055V119.666Z" fill="white" stroke="white" stroke-width="0.283973"></path> <path d="M157.423 140.404V140.727L114.486 115.934V115.615L157.423 140.404Z" fill="white" stroke="white" stroke-width="0.283973"></path> <path d="M157.423 123.698V124.017L114.486 99.228V98.9092L157.423 123.698Z" fill="#3C3F44" stroke="white" stroke-width="0.283973"></path> <path d="M111.781 121.203C111.781 121.769 112.182 122.463 112.68 122.746C113.173 123.034 113.574 122.805 113.574 122.238C113.574 121.671 113.173 120.978 112.68 120.694C112.186 120.411 111.786 120.636 111.786 121.207L111.781 121.203Z" fill="#3C3F44" stroke="#09090A" stroke-width="0.283973"></path> <path d="M111.781 95.0834C111.781 95.6502 112.182 96.3439 112.68 96.6271C113.173 96.9106 113.574 96.6857 113.574 96.1193C113.574 95.5525 113.173 94.8588 112.68 94.5756C112.186 94.2921 111.786 94.517 111.786 95.0834H111.781Z" fill="#3C3F44" stroke="#09090A" stroke-width="0.283973"></path> </svg>