<svg fill="none" xmlns="http://www.w3.org/2000/svg" viewBox="5.28 2.75 161.41 98.07">
    <path d="M76.0602 14.4726V30.3927C74.897 28.6015 73.3015 27.132 71.4209 26.1197C69.1359 24.8545 66.6628 23.9642 64.0957 23.4826V7.5625C66.6628 8.04409 69.1359 8.93443 71.4209 10.1996C73.3015 11.2119 74.897 12.6814 76.0602 14.4726Z"
          fill="#0A6190" stroke="#1A1B1D" stroke-linejoin="round"></path>
    <path opacity="0.5"
          d="M134.404 32.3239C146.186 32.2402 157.773 35.3263 167.952 41.2588C177.817 46.96 183.499 53.4953 183.682 60.423C183.866 67.3692 178.516 74.2973 167.377 80.7603L133.055 100.72C132.849 100.84 132.595 100.841 132.388 100.722L119.596 93.3444C119.39 93.2258 119.264 93.0068 119.263 92.7695C119.263 92.5322 119.389 92.3127 119.594 92.1935L153.917 72.2325C161.033 68.1086 164.186 63.9824 164.305 60.2233C164.424 56.4842 161.546 52.7011 155.54 49.2379C143.644 42.3775 128.62 42.0524 114.507 50.257L98.8117 59.4126C98.5055 59.5912 98.1132 59.4983 97.9196 59.2014C96.7272 57.3729 95.0924 55.875 93.1667 54.8467L93.1578 54.8419C90.772 53.5209 88.1896 52.5913 85.5092 52.0884C85.2361 52.0372 85.0237 51.8216 84.9765 51.5478C84.9293 51.274 85.0573 50.9997 85.2975 50.86L100.989 41.7325C111.083 35.6573 122.624 32.4076 134.404 32.3239Z"
          fill="#51A6B1"></path>
    <path d="M98.4514 32.1749V49.2315C97.2052 47.3124 95.4958 45.738 93.4809 44.6534C91.0328 43.298 88.3831 42.3441 85.6328 41.8281V24.7715C88.3831 25.2875 91.0328 26.2414 93.4809 27.5968C95.4958 28.6814 97.2052 30.2558 98.4514 32.1749Z"
          fill="#51A6B1" stroke="#1A1B1D" stroke-linejoin="round"></path>
    <path fill-rule="evenodd" clip-rule="evenodd"
          d="M164.977 50.4339V33.3511C164.977 29.2701 161.811 25.4245 155.899 21.9975C143.787 15.0127 128.509 14.6987 114.199 23.0178V23.0938L114.173 23.044L98.4507 32.174L98.3984 49.2306L114.265 40.0367L114.266 40.0358C128.53 31.7563 143.805 32.0801 155.873 39.0541C161.811 42.5858 164.977 46.379 164.977 50.4339Z"
          fill="#51A6B1"></path>
    <path d="M164.477 50.4339C164.477 50.71 164.7 50.9339 164.977 50.9339C165.253 50.9339 165.477 50.71 165.477 50.4339H164.477ZM155.899 21.9975L156.15 21.5649L156.149 21.5644L155.899 21.9975ZM114.199 23.0178L113.948 22.5855C113.794 22.675 113.699 22.8397 113.699 23.0178H114.199ZM114.199 23.0938L113.756 23.3256C113.863 23.5295 114.095 23.6343 114.319 23.5793C114.542 23.5243 114.699 23.3239 114.699 23.0938H114.199ZM114.173 23.044L114.616 22.8121C114.553 22.6913 114.443 22.6015 114.312 22.5637C114.181 22.5258 114.04 22.5431 113.922 22.6116L114.173 23.044ZM98.4507 32.174L98.1997 31.7416C98.046 31.8308 97.9513 31.9948 97.9507 32.1725L98.4507 32.174ZM98.3984 49.2306L97.8984 49.2291C97.8979 49.4081 97.9931 49.5738 98.1481 49.6634C98.3031 49.7531 98.4942 49.753 98.6491 49.6632L98.3984 49.2306ZM114.265 40.0367L114.516 40.4693C114.577 40.4337 114.63 40.3853 114.672 40.3275L114.265 40.0367ZM114.266 40.0358L114.015 39.6033C113.953 39.639 113.9 39.6872 113.859 39.745L114.266 40.0358ZM155.873 39.0541L156.128 38.6243L156.123 38.6212L155.873 39.0541ZM164.477 33.3511V50.4339H165.477V33.3511H164.477ZM155.648 22.4301C161.523 25.8354 164.477 29.5514 164.477 33.3511H165.477C165.477 28.9888 162.099 25.0136 156.15 21.5649L155.648 22.4301ZM114.451 23.45C128.613 15.2168 143.699 15.5393 155.649 22.4306L156.149 21.5644C143.874 14.486 128.405 14.1806 113.948 22.5855L114.451 23.45ZM114.699 23.0938V23.0178H113.699V23.0938H114.699ZM113.73 23.2759L113.756 23.3256L114.642 22.8619L114.616 22.8121L113.73 23.2759ZM98.7018 32.6064L114.424 23.4764L113.922 22.6116L98.1997 31.7416L98.7018 32.6064ZM98.8984 49.2321L98.9507 32.1755L97.9507 32.1725L97.8984 49.2291L98.8984 49.2321ZM114.014 39.6041L98.1478 48.798L98.6491 49.6632L114.516 40.4693L114.014 39.6041ZM113.859 39.745L113.858 39.7459L114.672 40.3275L114.672 40.3266L113.859 39.745ZM156.123 38.6212C143.893 31.5535 128.427 31.2381 114.015 39.6033L114.517 40.4682C128.633 32.2745 143.717 32.6067 155.623 39.487L156.123 38.6212ZM165.477 50.4339C165.477 46.0962 162.096 42.1735 156.128 38.6244L155.617 39.4839C161.526 42.9981 164.477 46.6619 164.477 50.4339H165.477Z"
          fill="#1A1B1D"></path>
    <path d="M167.62 15.1699C187.266 26.5235 189.228 40.6502 167.044 53.5211L132.722 73.4815L119.929 66.1043L154.252 46.1439C168.561 37.851 167.986 28.9826 155.874 21.9978C143.761 15.0129 128.484 14.699 114.174 23.018L98.4776 32.1742C97.224 30.2518 95.5054 28.6771 93.4809 27.5961C91.0328 26.2407 88.3831 25.2868 85.6328 24.7708L101.329 15.6408C111.321 9.62539 122.747 6.40773 134.41 6.32488C146.073 6.24204 157.543 9.29705 167.62 15.1699Z"
          fill="#C3F8FB" stroke="#1A1B1D" stroke-linejoin="round"></path>
    <path fill-rule="evenodd" clip-rule="evenodd"
          d="M183.002 34.1357V51.1923C183.002 57.6278 177.9 64.2725 167.018 70.6033V70.4608L166.992 70.6035L132.67 90.5377L132.722 73.4811L167.018 53.5474V53.5206C177.927 47.1898 183.002 40.5712 183.002 34.1357ZM132.722 73.4808L132.669 90.5374L119.877 83.1601L119.929 66.1035L132.722 73.4808Z"
          fill="#51A6B1"></path>
    <path d="M183.502 34.1357C183.502 33.8596 183.278 33.6357 183.002 33.6357C182.726 33.6357 182.502 33.8596 182.502 34.1357H183.502ZM167.018 70.6033H166.518C166.518 70.7823 166.613 70.9476 166.768 71.0368C166.923 71.126 167.114 71.1255 167.269 71.0355L167.018 70.6033ZM167.018 70.4608H167.518C167.518 70.2016 167.32 69.9854 167.061 69.9627C166.803 69.9401 166.57 70.1185 166.525 70.3737L167.018 70.4608ZM166.992 70.6035L167.244 71.0358C167.371 70.9619 167.459 70.8356 167.485 70.6906L166.992 70.6035ZM132.67 90.5377L132.17 90.5362C132.169 90.7153 132.265 90.8811 132.42 90.9707C132.575 91.0603 132.766 91.0601 132.921 90.9701L132.67 90.5377ZM132.722 73.4811L132.471 73.0488C132.317 73.1381 132.223 73.302 132.222 73.4796L132.722 73.4811ZM167.018 53.5474L167.269 53.9797C167.423 53.8902 167.518 53.7255 167.518 53.5474H167.018ZM167.018 53.5206L166.767 53.0881C166.613 53.1776 166.518 53.3424 166.518 53.5206H167.018ZM132.669 90.5374L132.42 90.9705C132.574 91.0596 132.764 91.0597 132.919 90.9707C133.073 90.8817 133.169 90.7172 133.169 90.5389L132.669 90.5374ZM132.722 73.4808L133.222 73.4823C133.222 73.303 133.127 73.1372 132.972 73.0476L132.722 73.4808ZM119.877 83.1601L119.377 83.1586C119.376 83.3379 119.472 83.5037 119.627 83.5933L119.877 83.1601ZM119.929 66.1035L120.179 65.6704C120.025 65.5813 119.834 65.5812 119.68 65.6702C119.525 65.7591 119.43 65.9237 119.429 66.102L119.929 66.1035ZM183.502 51.1923V34.1357H182.502V51.1923H183.502ZM167.269 71.0355C178.186 64.6846 183.502 57.9104 183.502 51.1923H182.502C182.502 57.3452 177.614 63.8604 166.766 70.1712L167.269 71.0355ZM166.518 70.4608V70.6033H167.518V70.4608H166.518ZM166.525 70.3737L166.5 70.5163L167.485 70.6906L167.51 70.548L166.525 70.3737ZM166.741 70.1711L132.419 90.1054L132.921 90.9701L167.244 71.0358L166.741 70.1711ZM133.17 90.5393L133.222 73.4827L132.222 73.4796L132.17 90.5362L133.17 90.5393ZM132.974 73.9134L167.269 53.9797L166.766 53.1151L132.471 73.0488L132.974 73.9134ZM166.518 53.5206V53.5474H167.518V53.5206H166.518ZM182.502 34.1357C182.502 40.2884 177.641 46.7775 166.767 53.0881L167.269 53.953C178.212 47.602 183.502 40.8539 183.502 34.1357H182.502ZM133.169 90.5389L133.222 73.4823L132.222 73.4792L132.169 90.5358L133.169 90.5389ZM119.627 83.5933L132.42 90.9705L132.919 90.1042L120.127 82.727L119.627 83.5933ZM119.429 66.102L119.377 83.1586L120.377 83.1617L120.429 66.105L119.429 66.102ZM132.972 73.0476L120.179 65.6704L119.679 66.5367L132.472 73.9139L132.972 73.0476Z"
          fill="#1A1B1D"></path>
    <path opacity="0.5"
          d="M65.0228 26.5342C62.3026 26.1635 59.1503 26.2196 56.0194 26.7641C52.8885 27.3086 50.3787 28.3154 48.4829 29.6217C44.9768 31.8954 43.7589 34.9664 45.3862 37.8317C46.8529 40.4593 50.9759 41.9921 55.2381 43.2742C60.5605 44.7547 64.6834 46.2875 66.3249 49.4784C66.3249 49.4784 66.3249 49.4784 66.4784 49.5532C69.419 54.9712 60.1969 60.5124 49.9372 59.4922C49.9372 59.4922 49.9372 59.4922 49.7837 59.4173C43.7507 58.8651 40.5061 56.8045 37.233 54.0927C34.7345 51.918 31.4899 49.8574 26.2101 49.3538C20.7768 48.7754 15.2683 49.9132 11.4481 51.8744C9.2453 53.0309 7.65644 54.4868 6.9814 56.2291C6.30636 57.9715 6.37744 59.5997 7.49453 61.1006C9.26113 63.7151 13.4054 65.7363 18.8386 66.3148C23.8185 66.8314 28.7202 65.5571 32.8616 64.0712C38.1882 62.2074 42.79 60.9461 48.8302 61.6612C54.8632 62.2134 58.1078 64.274 61.3809 66.9858C63.8794 69.1605 67.124 71.2211 72.4038 71.7247C77.8371 72.3031 83.3456 71.1654 87.1658 69.2042C87.4586 69.0283 87.6049 68.9403 87.8977 68.7644C88.1905 68.5885 88.3369 68.5005 88.6296 68.3246C92.1357 66.0509 93.3536 62.9798 91.7263 60.1146C90.2595 57.487 86.1366 55.9542 81.8744 54.6721C76.552 53.1916 72.429 51.6588 70.7875 48.4679C69.1459 45.277 70.6851 42.6813 73.5559 39.6197C75.8553 37.2355 77.5408 34.5518 76.2205 31.8363C74.154 29.2349 70.0098 27.2136 65.0228 26.5342Z"
          fill="#51A6B1"></path>
    <path d="M77.5467 10.6246V24.9347C77.5426 25.5715 77.4269 26.2026 77.2047 26.7994C76.5626 28.5546 75.0344 30.1641 72.8193 31.4202C71.7418 32.0335 70.6039 32.5343 69.4238 32.9147L69.4631 19.2007C70.6432 18.8203 71.781 18.3195 72.8586 17.7062C75.0737 16.4472 75.3788 14.7957 76.0209 13.0405C76.2435 12.4439 76.0191 9.89161 76.0209 9.25488L77.5467 10.6246Z"
          fill="#51A6B1" stroke="#1A1B1D" stroke-linejoin="round"></path>
    <path d="M43.7735 27.0919L43.8128 13.3779C43.811 13.9633 44.8141 13.9448 45.0015 14.4993C45.5876 16.2546 47.8285 16.7404 50.0015 17.9993C52.3877 19.3789 54.3918 19.7554 57.7481 19.9993V35.8022C54.3834 35.5582 50.674 34.8223 48.2851 33.4372C46.112 32.1782 44.6399 30.5688 44.0539 28.8135C43.8664 28.259 43.7717 27.6773 43.7735 27.0919Z"
          fill="#51A6B1" stroke="#1A1B1D" stroke-linejoin="round"></path>
    <path d="M67 26.5L66 33.5L58 36.5V21L59.5 20L67 26.5Z" fill="#51A6B1" stroke="#1A1B1D"
          stroke-linejoin="round"></path>
    <path d="M64.3549 46.1639L65.3013 58.467C65.3013 58.467 59.623 50.8959 50.159 49.9495C40.6951 49.0031 34.3418 54.2812 34.3418 54.2812L34.3418 39.9551L51.1054 38.5928L64.3549 46.1639Z"
          fill="#51A6B1" stroke="#1A1B1D" stroke-linejoin="round"></path>
    <path d="M35.0064 39.9547L34.9671 53.6687C34.2043 54.4238 33.3455 55.0752 32.4128 55.6063C30.2257 56.8821 27.4415 57.7541 24.4076 58.1298C21.3949 58.4933 18.3418 58.3311 15.3846 57.6503C13.6104 57.2517 11.9037 56.5971 10.3179 55.7072C9.6318 55.3159 8.98483 54.8595 8.38597 54.3445C6.67557 52.864 5.76428 51.1172 5.77549 49.3283L5.81479 35.6143C5.81479 37.4032 6.67277 37.1059 8.38597 38.5864C8.98483 39.1014 10.3147 39.5634 11.0008 39.9547C12.5865 40.8447 13.6104 41.4936 15.3846 41.8923C18.3418 42.573 21.3947 42.7352 24.4075 42.3717C27.4386 42.01 29.3137 41.2417 31.5008 39.9547C32.4335 39.4237 34.2436 40.7098 35.0064 39.9547Z"
          fill="#51A6B1" stroke="#1A1B1D" stroke-linejoin="round"></path>
    <path d="M68.5616 48.0183L69.8736 61.7888C64.0989 60.6338 65.2538 57.169 60.0566 53.7042L62.1319 48.2999L64.2072 42.8955C64.6474 44.8386 66.1783 46.6388 68.5616 48.0183Z"
          fill="#51A6B1" stroke="#1A1B1D" stroke-linejoin="round"></path>
    <path d="M92.694 40.0078L92.6547 53.7218C92.6547 53.834 92.6547 53.9461 92.6547 54.0583C92.5033 56.3435 90.863 58.5193 88.0647 60.1456C85.2664 61.7719 81.5147 62.7308 77.5668 62.8262C73.6189 62.9215 69.7746 62.1476 66.7969 60.6615L66.8362 46.9475C69.8139 48.4336 73.661 49.2075 77.6061 49.1122C81.5512 49.0168 85.3029 48.0579 88.104 46.4316C90.9051 44.8053 92.5426 42.6295 92.694 40.3443C92.6912 40.2321 92.694 40.12 92.694 40.0078Z"
          fill="#51A6B1" stroke="#1A1B1D" stroke-linejoin="round"></path>
    <path d="M54.9147 20.8585L54.9229 20.861L54.9313 20.8633C60.2253 22.3359 64.154 23.8165 65.7262 26.8726L65.7719 26.9613L65.8964 27.022L65.8964 27.022L65.8964 27.022L65.8964 27.022L65.8964 27.022L65.8964 27.0221L65.8964 27.0221L65.8965 27.0221L65.8965 27.0221L65.8965 27.0221L65.8965 27.0221L65.8965 27.0221L65.8965 27.0221L65.8966 27.0221L65.8966 27.0221L65.8966 27.0221L65.8966 27.0222L65.8967 27.0222L65.8967 27.0222L65.8967 27.0222L65.8967 27.0222L65.8967 27.0222L65.8967 27.0222L65.8967 27.0222L65.8968 27.0222L65.8968 27.0222L65.8968 27.0222L65.8968 27.0222L65.8968 27.0223L65.8969 27.0223L65.8969 27.0223L65.8969 27.0223L65.8969 27.0223L65.8969 27.0223L65.897 27.0223L65.897 27.0223L65.897 27.0223L65.897 27.0223L65.8971 27.0224L65.8971 27.0224L65.8971 27.0224L65.8971 27.0224L65.8972 27.0224L65.8972 27.0224L65.8972 27.0224L65.8972 27.0225L65.8973 27.0225L65.8973 27.0225L65.8973 27.0225L65.8974 27.0225L65.8974 27.0225L65.8974 27.0225L65.8975 27.0226L65.8975 27.0226L65.8975 27.0226L65.8976 27.0226L65.8976 27.0226L65.8976 27.0226L65.8977 27.0227L65.8977 27.0227L65.8978 27.0227L65.8978 27.0227L65.8978 27.0227L65.8979 27.0228L65.8979 27.0228L65.898 27.0228L65.898 27.0228L65.898 27.0228L65.8981 27.0229L65.8981 27.0229L65.8982 27.0229L65.8982 27.0229L65.8983 27.023L65.8983 27.023L65.8984 27.023L65.8984 27.023L65.8985 27.0231L65.8985 27.0231L65.8986 27.0231L65.8986 27.0231L65.8987 27.0232L65.8988 27.0232L65.8988 27.0232L65.8989 27.0232L65.8989 27.0233L65.899 27.0233L65.899 27.0233L65.8991 27.0234L65.8992 27.0234L65.8992 27.0234L65.8993 27.0235L65.8994 27.0235L65.8994 27.0235L65.8995 27.0236L65.8996 27.0236L65.8996 27.0236L65.8997 27.0237L65.8998 27.0237L65.8998 27.0237L65.8999 27.0238L65.9 27.0238L65.9001 27.0238L65.9001 27.0239L65.9002 27.0239L65.9003 27.0239L65.9004 27.024L65.9005 27.024L65.9005 27.0241L65.9006 27.0241L65.9007 27.0241L65.9008 27.0242L65.9009 27.0242L65.901 27.0243L65.901 27.0243L65.9011 27.0243L65.9012 27.0244L65.9013 27.0244L65.9014 27.0245L65.9015 27.0245L65.9016 27.0246L65.9017 27.0246L65.9018 27.0247L65.9019 27.0247L65.902 27.0248L65.9021 27.0248L65.9022 27.0249L65.9023 27.0249L65.9024 27.025L65.9025 27.025L65.9026 27.0251L65.9027 27.0251L65.9028 27.0252L65.9029 27.0252L65.903 27.0253L65.9031 27.0253L65.9032 27.0254L65.9034 27.0254L65.9035 27.0255L65.9036 27.0256L65.9037 27.0256L65.9038 27.0257L65.904 27.0257L65.9041 27.0258L65.9042 27.0258L65.9043 27.0259L65.9044 27.026L65.9046 27.026L65.9047 27.0261L65.9048 27.0262L65.905 27.0262L65.9051 27.0263L65.9052 27.0264L65.9054 27.0264L65.9055 27.0265L65.9056 27.0266L65.9058 27.0266L65.9059 27.0267L65.9061 27.0268L65.9062 27.0268L65.9064 27.0269L65.9065 27.027L65.9066 27.027L65.9068 27.0271L65.9069 27.0272L65.9071 27.0273L65.9073 27.0273L65.9074 27.0274L65.9076 27.0275L65.9077 27.0276L65.9079 27.0276L65.908 27.0277L65.9082 27.0278L65.9084 27.0279L65.9085 27.028L65.9087 27.028L65.9089 27.0281L65.909 27.0282L65.9092 27.0283L65.9094 27.0284L65.9096 27.0285L65.9097 27.0285L65.9099 27.0286L65.9101 27.0287L65.9103 27.0288L65.9105 27.0289L65.9106 27.029L65.9108 27.0291L65.911 27.0292L65.9112 27.0293L65.9114 27.0294L65.9116 27.0294L65.9118 27.0295L65.912 27.0296L65.9122 27.0297L65.9124 27.0298L65.9126 27.0299L65.9128 27.03L65.913 27.0301L65.9132 27.0302L65.9134 27.0303L65.9136 27.0304L65.9138 27.0305L65.914 27.0306L65.9142 27.0307L65.9144 27.0308L65.9147 27.0309L65.9149 27.0311L65.9151 27.0312L65.9153 27.0313L65.9155 27.0314L65.9158 27.0315L65.916 27.0316L65.9162 27.0317L65.9165 27.0318L65.9167 27.0319L65.9169 27.0321L65.9172 27.0322L65.9174 27.0323L65.9176 27.0324L65.9179 27.0325L65.9181 27.0326L65.9184 27.0328L65.9186 27.0329L65.9189 27.033L65.9191 27.0331L65.9194 27.0332L65.9196 27.0334L65.9199 27.0335L65.9201 27.0336L65.9204 27.0337L65.9207 27.0339L65.9209 27.034L65.9212 27.0341L65.9215 27.0343L65.9217 27.0344L65.922 27.0345L65.9223 27.0347L65.9226 27.0348L65.9228 27.0349L65.9231 27.0351L65.9234 27.0352L65.9237 27.0353L65.924 27.0355L65.9242 27.0356L65.9245 27.0358L65.9248 27.0359L65.9251 27.0361L65.9254 27.0362L65.9257 27.0363L65.926 27.0365L65.9263 27.0366L65.9266 27.0368L65.9269 27.0369L65.9272 27.0371L65.9273 27.0371C68.5782 32.1547 59.921 37.3565 50.2433 36.461L50.2425 36.4606L50.2417 36.4603L50.2409 36.4599L50.2401 36.4595L50.2393 36.4591L50.2385 36.4587L50.2378 36.4583L50.237 36.4579L50.2362 36.4576L50.2353 36.4572L50.2345 36.4568L50.2337 36.4564L50.2329 36.456L50.2321 36.4556L50.2313 36.4552L50.2304 36.4548L50.2296 36.4544L50.2288 36.454L50.2279 36.4536L50.2271 36.4531L50.2263 36.4527L50.2254 36.4523L50.2246 36.4519L50.2237 36.4515L50.2229 36.4511L50.222 36.4507L50.2211 36.4502L50.2203 36.4498L50.2194 36.4494L50.2185 36.449L50.2177 36.4485L50.2168 36.4481L50.2159 36.4477L50.215 36.4472L50.2141 36.4468L50.2132 36.4464L50.2123 36.4459L50.0878 36.3852L49.92 36.3699C44.1441 35.8412 41.0157 33.8809 37.7613 31.185C35.2426 28.9934 31.8853 26.8359 26.3563 26.3073C20.6998 25.7064 14.9873 26.8921 11.0359 28.9207L11.0359 28.9207L11.0304 28.9235C8.73664 30.1278 7.07764 31.6476 6.37404 33.4636C5.68081 35.2529 5.74447 36.9499 6.91351 38.5239C8.75026 41.2371 13.0517 43.3331 18.6867 43.9329L18.6895 43.9332C23.9216 44.4761 29.0102 43.1332 33.1791 41.6378C38.4796 39.7832 42.8857 38.5937 48.6659 39.278L48.6798 39.2796L48.6939 39.2809C54.4698 39.8096 57.5983 41.7699 60.8527 44.4658C63.3714 46.6574 66.7287 48.8148 72.2576 49.3434C77.9141 49.9444 83.6266 48.7587 87.578 46.7301L87.5974 46.7202L87.6152 46.7095L87.6169 46.7085L87.6186 46.7074L87.6203 46.7064L87.622 46.7054L87.6237 46.7044L87.6254 46.7033L87.6271 46.7023L87.6288 46.7013L87.6305 46.7003L87.6322 46.6993L87.6339 46.6983L87.6355 46.6973L87.6372 46.6963L87.6389 46.6953L87.6406 46.6943L87.6422 46.6933L87.6439 46.6923L87.6455 46.6913L87.6472 46.6903L87.6488 46.6893L87.6505 46.6883L87.6521 46.6873L87.6538 46.6863L87.6554 46.6853L87.6571 46.6843L87.6587 46.6834L87.6603 46.6824L87.662 46.6814L87.6636 46.6804L87.6652 46.6794L87.6668 46.6785L87.6684 46.6775L87.6701 46.6765L87.6717 46.6756L87.6733 46.6746L87.6749 46.6736L87.6765 46.6727L87.6781 46.6717L87.6797 46.6708L87.6813 46.6698L87.6829 46.6688L87.6844 46.6679L87.686 46.6669L87.6876 46.666L87.6892 46.665L87.6908 46.6641L87.6923 46.6631L87.6939 46.6622L87.6955 46.6613L87.697 46.6603L87.6986 46.6594L87.7002 46.6584L87.7017 46.6575L87.7033 46.6566L87.7048 46.6556L87.7064 46.6547L87.7079 46.6538L87.7095 46.6528L87.711 46.6519L87.7126 46.651L87.7141 46.6501L87.7156 46.6491L87.7172 46.6482L87.7187 46.6473L87.7202 46.6464L87.7217 46.6455L87.7233 46.6446L87.7248 46.6436L87.7263 46.6427L87.7278 46.6418L87.7293 46.6409L87.7308 46.64L87.7323 46.6391L87.7338 46.6382L87.7353 46.6373L87.7368 46.6364L87.7383 46.6355L87.7398 46.6346L87.7413 46.6337L87.7428 46.6328L87.7443 46.6319L87.7458 46.631L87.7473 46.6301L87.7488 46.6292L87.7502 46.6284L87.7517 46.6275L87.7532 46.6266L87.7547 46.6257L87.7561 46.6248L87.7576 46.6239L87.7591 46.623L87.7605 46.6222L87.762 46.6213L87.7634 46.6204L87.7649 46.6195L87.7664 46.6187L87.7678 46.6178L87.7693 46.6169L87.7707 46.616L87.7722 46.6152L87.7736 46.6143L87.7751 46.6134L87.7765 46.6126L87.7779 46.6117L87.7794 46.6108L87.7808 46.61L87.7822 46.6091L87.7837 46.6083L87.7851 46.6074L87.7865 46.6065L87.7879 46.6057L87.7894 46.6048L87.7908 46.604L87.7922 46.6031L87.7936 46.6023L87.795 46.6014L87.7965 46.6006L87.7979 46.5997L87.7993 46.5989L87.8007 46.598L87.8021 46.5972L87.8035 46.5963L87.8049 46.5955L87.8063 46.5947L87.8077 46.5938L87.8091 46.593L87.8105 46.5921L87.8119 46.5913L87.8133 46.5905L87.8147 46.5896L87.8161 46.5888L87.8175 46.588L87.8188 46.5871L87.8202 46.5863L87.8216 46.5855L87.823 46.5846L87.8244 46.5838L87.8257 46.583L87.8271 46.5822L87.8285 46.5813L87.8299 46.5805L87.8312 46.5797L87.8326 46.5789L87.834 46.578L87.8354 46.5772L87.8367 46.5764L87.8381 46.5756L87.8394 46.5747L87.8408 46.5739L87.8422 46.5731L87.8435 46.5723L87.8449 46.5715L87.8462 46.5707L87.8476 46.5698L87.849 46.569L87.8503 46.5682L87.8517 46.5674L87.853 46.5666L87.8544 46.5658L87.8557 46.565L87.8571 46.5642L87.8584 46.5634L87.8597 46.5626L87.8611 46.5617L87.8624 46.5609L87.8638 46.5601L87.8651 46.5593L87.8664 46.5585L87.8678 46.5577L87.8691 46.5569L87.8705 46.5561L87.8718 46.5553L87.8731 46.5545L87.8744 46.5537L87.8758 46.5529L87.8771 46.5521L87.8784 46.5513L87.8798 46.5505L87.8811 46.5497L87.8824 46.5489L87.8837 46.5481L87.8851 46.5473L87.8864 46.5465L87.8877 46.5458L87.889 46.545L87.8903 46.5442L87.8917 46.5434L87.893 46.5426L87.8943 46.5418L87.8956 46.541L87.8969 46.5402L87.8982 46.5394L87.8995 46.5386L87.9009 46.5378L87.9022 46.5371L87.9035 46.5363L87.9048 46.5355L87.9061 46.5347L87.9074 46.5339L87.9087 46.5331L87.91 46.5323L87.9113 46.5316L87.9126 46.5308L87.9139 46.53L87.9152 46.5292L87.9165 46.5284L87.9179 46.5276L87.9192 46.5269L87.9205 46.5261L87.9218 46.5253L87.9231 46.5245L87.9244 46.5237L87.9257 46.523L87.927 46.5222L87.9282 46.5214L87.9295 46.5206L87.9308 46.5198L87.9321 46.5191L87.9334 46.5183L87.9347 46.5175L87.936 46.5167L87.9373 46.5159L87.9386 46.5152L87.9399 46.5144L87.9412 46.5136L87.9425 46.5128L87.9438 46.5121L87.9451 46.5113L87.9464 46.5105L87.9477 46.5097L87.9489 46.509L87.9502 46.5082L87.9515 46.5074L87.9528 46.5066L87.9541 46.5059L87.9554 46.5051L87.9567 46.5043L87.958 46.5035L87.9593 46.5028L87.9606 46.502L87.9618 46.5012L87.9631 46.5004L87.9644 46.4997L87.9657 46.4989L87.967 46.4981L87.9683 46.4973L87.9696 46.4966L87.9709 46.4958L87.9721 46.495L87.9734 46.4942L87.9747 46.4935L87.976 46.4927L87.9773 46.4919L87.9786 46.4912L87.9799 46.4904L87.9811 46.4896L87.9824 46.4888L87.9837 46.4881L87.985 46.4873L87.9863 46.4865L87.9876 46.4857L87.9889 46.485L87.9902 46.4842L87.9914 46.4834L87.9927 46.4826L87.994 46.4819L87.9953 46.4811L87.9966 46.4803L87.9979 46.4796L87.9992 46.4788L88.0005 46.478L88.0017 46.4772L88.003 46.4765L88.0043 46.4757L88.0056 46.4749L88.0069 46.4741L88.0082 46.4734L88.0095 46.4726L88.0108 46.4718L88.0121 46.471L88.0133 46.4703L88.0146 46.4695L88.0159 46.4687L88.0172 46.4679L88.0185 46.4672L88.0198 46.4664L88.0211 46.4656L88.0224 46.4648L88.0237 46.464L88.025 46.4633L88.0263 46.4625L88.0276 46.4617L88.0289 46.4609L88.0302 46.4602L88.0315 46.4594L88.0327 46.4586L88.034 46.4578L88.0353 46.457L88.0366 46.4563L88.0379 46.4555L88.0392 46.4547L88.0405 46.4539L88.0418 46.4531L88.0431 46.4524L88.0444 46.4516L88.0457 46.4508L88.0471 46.45L88.0484 46.4492L88.0497 46.4484L88.051 46.4477L88.0523 46.4469L88.0536 46.4461L88.0549 46.4453L88.0562 46.4445L88.0575 46.4437L88.0588 46.4429L88.0601 46.4422L88.0614 46.4414L88.0627 46.4406L88.0641 46.4398L88.0654 46.439L88.0667 46.4382L88.068 46.4374L88.0693 46.4366L88.0706 46.4358L88.072 46.435L88.0733 46.4343L88.0746 46.4335L88.0759 46.4327L88.0772 46.4319L88.0786 46.4311L88.0799 46.4303L88.0812 46.4295L88.0825 46.4287L88.0839 46.4279L88.0852 46.4271L88.0865 46.4263L88.0878 46.4255L88.0892 46.4247L88.0905 46.4239L88.0918 46.4231L88.0932 46.4223L88.0945 46.4215L88.0959 46.4207L88.0972 46.4199L88.0985 46.4191L88.0999 46.4183L88.1012 46.4175L88.1026 46.4167L88.1039 46.4159L88.1052 46.415L88.1066 46.4142L88.1079 46.4134L88.1093 46.4126L88.1106 46.4118L88.112 46.411L88.1133 46.4102L88.1147 46.4094L88.116 46.4085L88.1174 46.4077L88.1188 46.4069L88.1201 46.4061L88.1215 46.4053L88.1228 46.4045L88.1242 46.4036L88.1256 46.4028L88.1269 46.402L88.1283 46.4012L88.1297 46.4004L88.131 46.3995L88.1324 46.3987L88.1338 46.3979L88.1352 46.3971L88.1365 46.3962L88.1379 46.3954L88.1393 46.3946L88.1407 46.3937L88.1421 46.3929L88.1435 46.3921L88.1448 46.3913L88.1462 46.3904L88.1476 46.3896L88.149 46.3887L88.1504 46.3879L88.1518 46.3871L88.1532 46.3862L88.1546 46.3854L88.156 46.3846L88.1574 46.3837L88.1588 46.3829L88.1602 46.382L88.1616 46.3812L88.163 46.3803L88.1644 46.3795L88.1658 46.3786L88.1673 46.3778L88.1687 46.3769L88.1701 46.3761L88.1715 46.3752L88.1729 46.3744L88.1743 46.3735L88.1758 46.3727L88.1772 46.3718L88.1786 46.3709L88.1801 46.3701L88.1815 46.3692L88.1829 46.3684L88.1844 46.3675L88.1858 46.3666L88.1872 46.3658L88.1887 46.3649L88.1901 46.364L88.1916 46.3632L88.193 46.3623L88.1945 46.3614L88.1959 46.3606L88.1974 46.3597L88.1988 46.3588L88.2003 46.3579L88.2018 46.357L88.2032 46.3562L88.2047 46.3553L88.2062 46.3544L88.2076 46.3535L88.2091 46.3526L88.2106 46.3517L88.2121 46.3509L88.2135 46.35L88.215 46.3491L88.2165 46.3482L88.218 46.3473L88.2195 46.3464L88.221 46.3455L88.2225 46.3446L88.224 46.3437L88.2255 46.3428L88.2269 46.3419L88.2285 46.341L88.23 46.3401L88.2315 46.3392L88.233 46.3383L88.2345 46.3374L88.236 46.3365L88.2375 46.3356L88.239 46.3347L88.2406 46.3337L88.2421 46.3328L88.2436 46.3319L88.2451 46.331L88.2467 46.3301L88.2482 46.3291L88.2497 46.3282L88.2513 46.3273L88.2528 46.3264L88.2544 46.3254L88.2559 46.3245L88.2575 46.3236L88.259 46.3226L88.2606 46.3217L88.2621 46.3208L88.2637 46.3198L88.2652 46.3189L88.2668 46.318L88.2684 46.317L88.27 46.3161L88.2715 46.3151L88.2731 46.3142L88.2747 46.3132L88.2763 46.3123L88.2778 46.3113L88.2794 46.3104L88.281 46.3094L88.2826 46.3085L88.2842 46.3075L88.2858 46.3065L88.2874 46.3056L88.289 46.3046L88.2906 46.3037L88.2922 46.3027L88.2939 46.3017L88.2955 46.3007L88.2971 46.2998L88.2987 46.2988L88.3003 46.2978L88.302 46.2968L88.3036 46.2959L88.3052 46.2949L88.3069 46.2939L88.3085 46.2929L88.3101 46.2919L88.3118 46.2909L88.3134 46.2899L88.3151 46.2889L88.3168 46.288L88.3184 46.287L88.3201 46.286L88.3217 46.285L88.3234 46.284L88.3251 46.283L88.3268 46.2819L88.3284 46.2809L88.3301 46.2799L88.3318 46.2789L88.3335 46.2779L88.3352 46.2769L88.3369 46.2759L88.3386 46.2748L88.3403 46.2738L88.342 46.2728L88.3437 46.2718L88.3454 46.2707L88.3471 46.2697L88.3488 46.2687L88.3505 46.2677L88.3522 46.2666L88.3539 46.2656L88.3556 46.2646L88.3573 46.2636L88.359 46.2626L88.3607 46.2615L88.3624 46.2605L88.3641 46.2595L88.3658 46.2585L88.3674 46.2575L88.3691 46.2565L88.3708 46.2555L88.3725 46.2545L88.3741 46.2535L88.3758 46.2525L88.3774 46.2515L88.3791 46.2505L88.3808 46.2495L88.3824 46.2485L88.3841 46.2475L88.3857 46.2465L88.3873 46.2455L88.389 46.2446L88.3906 46.2436L88.3922 46.2426L88.3939 46.2416L88.3955 46.2406L88.3971 46.2397L88.3987 46.2387L88.4004 46.2377L88.402 46.2368L88.4036 46.2358L88.4052 46.2348L88.4068 46.2339L88.4084 46.2329L88.41 46.2319L88.4116 46.231L88.4132 46.23L88.4148 46.2291L88.4164 46.2281L88.4179 46.2272L88.4195 46.2262L88.4211 46.2253L88.4227 46.2243L88.4243 46.2234L88.4258 46.2224L88.4274 46.2215L88.429 46.2205L88.4305 46.2196L88.4321 46.2187L88.4336 46.2177L88.4352 46.2168L88.4367 46.2159L88.4383 46.2149L88.4398 46.214L88.4414 46.2131L88.4429 46.2121L88.4445 46.2112L88.446 46.2103L88.4475 46.2094L88.4491 46.2085L88.4506 46.2075L88.4521 46.2066L88.4536 46.2057L88.4552 46.2048L88.4567 46.2039L88.4582 46.203L88.4597 46.2021L88.4612 46.2011L88.4627 46.2002L88.4642 46.1993L88.4658 46.1984L88.4673 46.1975L88.4688 46.1966L88.4703 46.1957L88.4717 46.1948L88.4732 46.1939L88.4747 46.193L88.4762 46.1921L88.4777 46.1912L88.4792 46.1904L88.4807 46.1895L88.4821 46.1886L88.4836 46.1877L88.4851 46.1868L88.4866 46.1859L88.488 46.185L88.4895 46.1842L88.491 46.1833L88.4924 46.1824L88.4939 46.1815L88.4954 46.1806L88.4968 46.1798L88.4983 46.1789L88.4997 46.178L88.5012 46.1771L88.5026 46.1763L88.5041 46.1754L88.5055 46.1745L88.507 46.1737L88.5084 46.1728L88.5098 46.1719L88.5113 46.1711L88.5127 46.1702L88.5141 46.1693L88.5156 46.1685L88.517 46.1676L88.5184 46.1668L88.5199 46.1659L88.5213 46.1651L88.5227 46.1642L88.5241 46.1634L88.5255 46.1625L88.527 46.1617L88.5284 46.1608L88.5298 46.16L88.5312 46.1591L88.5326 46.1583L88.534 46.1574L88.5354 46.1566L88.5368 46.1557L88.5382 46.1549L88.5396 46.154L88.541 46.1532L88.5424 46.1524L88.5438 46.1515L88.5452 46.1507L88.5466 46.1499L88.548 46.149L88.5494 46.1482L88.5507 46.1474L88.5521 46.1465L88.5535 46.1457L88.5549 46.1449L88.5563 46.144L88.5577 46.1432L88.559 46.1424L88.5604 46.1415L88.5618 46.1407L88.5632 46.1399L88.5645 46.1391L88.5659 46.1383L88.5673 46.1374L88.5686 46.1366L88.57 46.1358L88.5714 46.135L88.5727 46.1342L88.5741 46.1333L88.5754 46.1325L88.5768 46.1317L88.5782 46.1309L88.5795 46.1301L88.5809 46.1293L88.5822 46.1284L88.5836 46.1276L88.5849 46.1268L88.5863 46.126L88.5876 46.1252L88.589 46.1244L88.5903 46.1236L88.5917 46.1228L88.593 46.122L88.5943 46.1212L88.5957 46.1204L88.597 46.1196L88.5984 46.1188L88.5997 46.1179L88.601 46.1171L88.6024 46.1163L88.6037 46.1155L88.605 46.1147L88.6064 46.1139L88.6077 46.1131L88.609 46.1123L88.6103 46.1115L88.6117 46.1108L88.613 46.11L88.6143 46.1092L88.6156 46.1084L88.617 46.1076L88.6183 46.1068L88.6196 46.106L88.6209 46.1052L88.6223 46.1044L88.6236 46.1036L88.6249 46.1028L88.6262 46.102L88.6275 46.1012L88.6288 46.1004L88.6301 46.0996L88.6315 46.0989L88.6328 46.0981L88.6341 46.0973L88.6354 46.0965L88.6367 46.0957L88.638 46.0949L88.6393 46.0941L88.6406 46.0934L88.6419 46.0926L88.6432 46.0918L88.6445 46.091L88.6458 46.0902L88.6472 46.0894L88.6485 46.0886L88.6498 46.0879L88.6511 46.0871L88.6524 46.0863L88.6537 46.0855L88.655 46.0847L88.6563 46.084L88.6576 46.0832L88.6589 46.0824L88.6602 46.0816L88.6615 46.0808L88.6628 46.0801L88.664 46.0793L88.6653 46.0785L88.6666 46.0777L88.6679 46.0769L88.6692 46.0762L88.6705 46.0754L88.6718 46.0746L88.6731 46.0738L88.6744 46.0731L88.6757 46.0723L88.677 46.0715L88.6783 46.0707L88.6796 46.07L88.6809 46.0692L88.6822 46.0684L88.6834 46.0676L88.6847 46.0669L88.686 46.0661L88.6873 46.0653L88.6886 46.0645L88.6899 46.0638L88.6912 46.063L88.6925 46.0622L88.6938 46.0614L88.695 46.0607L88.6963 46.0599L88.6976 46.0591L88.6989 46.0583L88.7002 46.0576L88.7015 46.0568L88.7028 46.056L88.7041 46.0552L88.7053 46.0545L88.7066 46.0537L88.7079 46.0529L88.7092 46.0521L88.7105 46.0514L88.7118 46.0506L88.7131 46.0498L88.7143 46.0491L88.7156 46.0483L88.7169 46.0475L88.7182 46.0467L88.7195 46.046L88.7208 46.0452L88.7221 46.0444L88.7234 46.0436L88.7246 46.0429L88.7259 46.0421L88.7272 46.0413L88.7285 46.0406L88.7298 46.0398L88.7311 46.039L88.7324 46.0382L88.7337 46.0375L88.7349 46.0367L88.7362 46.0359L88.7375 46.0351L88.7388 46.0344L88.7401 46.0336L88.7414 46.0328L88.7427 46.032L88.744 46.0313L88.7453 46.0305L88.7465 46.0297L88.7478 46.0289L88.7491 46.0282L88.7504 46.0274L88.7517 46.0266L88.753 46.0258L88.7543 46.025L88.7556 46.0243L88.7569 46.0235L88.7582 46.0227L88.7595 46.0219L88.7608 46.0212L88.7621 46.0204L88.7634 46.0196L88.7647 46.0188L88.766 46.018L88.7673 46.0173L88.7686 46.0165L88.7699 46.0157L88.7712 46.0149L88.7725 46.0141L88.7738 46.0134L88.7751 46.0126L88.7764 46.0118L88.7777 46.011L88.779 46.0102L88.7803 46.0094L88.7816 46.0087L88.7829 46.0079L88.7842 46.0071L88.7855 46.0063L88.7868 46.0055L88.7881 46.0047L88.7894 46.004L88.7907 46.0032L88.792 46.0024L88.7933 46.0016L88.7947 46.0008L88.796 46L88.7973 45.9992L88.7986 45.9984L88.7999 45.9976L88.8012 45.9969L88.8025 45.9961L88.8039 45.9953L88.8052 45.9945L88.8065 45.9937L88.8078 45.9929L88.8091 45.9921L88.8105 45.9913L88.8118 45.9905L88.8131 45.9897L88.8144 45.9889L88.8158 45.9881L88.8171 45.9873L88.8184 45.9865L88.8198 45.9857L88.8211 45.9849L88.8224 45.9841L88.8238 45.9833L88.8251 45.9825L88.8264 45.9817L88.8278 45.9809L88.8291 45.9801L88.8304 45.9793L88.8318 45.9785L88.8331 45.9777L88.8345 45.9769L88.8358 45.9761L88.8372 45.9753L88.8385 45.9745L88.8398 45.9736L88.8412 45.9728L88.8425 45.972L88.8439 45.9712L88.8452 45.9704L88.8466 45.9696L88.848 45.9688L88.8493 45.968L88.8507 45.9671L88.852 45.9663L88.8534 45.9655L88.8548 45.9647L88.8561 45.9639L88.8575 45.9631L88.8588 45.9622L88.8602 45.9614L88.8616 45.9606L88.863 45.9598L88.8643 45.9589L88.8657 45.9581L88.8671 45.9573L88.8685 45.9565L88.8698 45.9556L88.8712 45.9548L88.8726 45.954L88.874 45.9531L88.8754 45.9523L88.8768 45.9515L88.8781 45.9506L88.8795 45.9498L88.8809 45.949L88.8823 45.9481L88.8837 45.9473L88.8851 45.9465L88.8865 45.9456L88.8879 45.9448L88.8893 45.9439L88.8907 45.9431L88.8921 45.9422L88.8935 45.9414L88.8949 45.9406L88.8963 45.9397L88.8977 45.9389L88.8992 45.938L88.9006 45.9372L88.902 45.9363L88.9034 45.9355L88.9048 45.9346L88.9063 45.9337L88.9077 45.9329L88.9091 45.932L88.9105 45.9312L88.912 45.9303L88.9134 45.9295L88.9148 45.9286L88.9163 45.9277L88.9177 45.9269L88.9192 45.926L88.9206 45.9251L88.922 45.9243L88.9235 45.9234L88.9249 45.9225L88.9264 45.9216L88.9278 45.9208L88.9293 45.9199L88.9308 45.919L88.9322 45.9181L88.9337 45.9173L88.9351 45.9164L88.9366 45.9155L88.9381 45.9146L88.9395 45.9137L88.941 45.9129L88.9425 45.912L88.944 45.9111L88.9454 45.9102L88.9469 45.9093L88.9484 45.9084L88.9499 45.9075L88.9514 45.9066L88.9529 45.9057L88.9544 45.9048L88.9559 45.9039L88.9574 45.903L88.9589 45.9021L88.9604 45.9012L88.9619 45.9003L88.9634 45.8994L88.9649 45.8985L88.9664 45.8976L88.9679 45.8967L88.9694 45.8958L88.9709 45.8949L88.9725 45.894L88.974 45.893L88.9755 45.8921L88.977 45.8912L88.9786 45.8903L88.9801 45.8894L88.9816 45.8884L88.9832 45.8875L88.9847 45.8866L88.9863 45.8857L88.9878 45.8847L88.9894 45.8838L88.9909 45.8829L88.9925 45.8819L88.994 45.881L88.9956 45.8801L88.9972 45.8791L88.9987 45.8782L89.0003 45.8772L89.0019 45.8763L89.0034 45.8754L89.005 45.8744L89.0066 45.8735L89.0082 45.8725L89.0098 45.8716L89.0113 45.8706L89.0129 45.8696L89.0145 45.8687L89.0161 45.8677L89.0177 45.8668L89.0193 45.8658L89.0209 45.8648L89.0225 45.8639L89.0242 45.8629L89.0258 45.8619L89.0274 45.861L89.029 45.86L89.0306 45.859L89.0322 45.858L89.0339 45.8571L89.0355 45.8561L89.0371 45.8551L89.0388 45.8541L89.0404 45.8531L89.0421 45.8521L89.0437 45.8512L89.0454 45.8502L89.047 45.8492L89.0487 45.8482L89.0503 45.8472L89.052 45.8462L89.0537 45.8452L89.0553 45.8442L89.057 45.8432L89.0587 45.8422L89.0603 45.8412L89.062 45.8402L89.0637 45.8391L89.0654 45.8381L89.0671 45.8371L89.0688 45.8361L89.0705 45.8351L89.0722 45.834L89.0739 45.833L89.0756 45.832L89.0773 45.831L89.079 45.8299L89.0876 45.8248L89.0958 45.8195C92.7474 43.4513 94.0083 40.2571 92.3209 37.2851C90.7808 34.5271 86.4639 32.9433 82.1977 31.66L82.1895 31.6576L82.1812 31.6552C76.8872 30.1827 72.9584 28.702 71.3862 25.646C69.8068 22.5759 71.2627 20.0782 74.104 17.0476C76.4272 14.6383 78.2013 11.8569 76.8214 9.01883L76.8101 8.99558L76.7927 8.97365C74.6608 6.28995 70.3821 4.19728 65.2051 3.49193C62.3686 3.10546 59.0983 3.16564 55.8613 3.7286C52.6014 4.29556 49.9837 5.34515 48.0103 6.70324C44.3636 9.07098 43.1051 12.2632 44.7915 15.2334C46.3317 17.9914 50.6485 19.5753 54.9147 20.8585Z"
          fill="#C3F8FB" stroke="#1A1B1D"></path>
</svg>