<svg width="100%" viewBox="0 0 1920 56" fill="none" xmlns="http://www.w3.org/2000/svg">
    <path d="M333.467 -32.9017C334.658 -34.8936 335.819 -36.8338 338.286 -38.0174C342.545 -40.04 347.988 -38.8388 350.447 -35.3372C353.215 -31.3532 351.025 -28.6645 348.739 -25.8582C347.143 -23.8991 345.501 -21.8827 345.466 -19.3281C345.371 -16.838 346.991 -14.8909 348.6 -12.9569C350.151 -11.0923 351.692 -9.23977 351.677 -6.92449C351.646 -4.64977 350.145 -2.83873 348.629 -1.0095C347.039 0.909298 345.432 2.84812 345.488 5.36315C345.4 9.12459 350.416 11.543 354.367 9.63426C357.029 8.61063 358.329 6.37634 359.614 4.16753C360.803 2.12404 361.98 0.102364 364.21 -0.918621C368.47 -2.94125 373.913 -1.74003 376.372 1.76159C378.831 5.26321 377.37 9.74212 373.113 11.7647C370.921 12.842 368.208 12.6689 365.465 12.4939C362.498 12.3046 359.496 12.1132 357.083 13.4996C354.274 14.8848 352.883 17.2088 351.499 19.5208C350.976 20.3946 350.454 21.2667 349.857 22.0858C346.375 26.2989 338.028 25.8592 335.078 21.3723C332.348 17.4418 334.55 14.7687 336.829 12.0022C338.473 10.0068 340.157 7.96272 340.059 5.36315C340.056 2.87787 338.469 0.944489 336.9 -0.966423C335.357 -2.84511 333.833 -4.70208 333.849 -7.04043C333.879 -9.28478 335.416 -11.1028 336.952 -12.9211C338.607 -14.8788 340.262 -16.837 340.038 -19.3281C339.763 -23.1814 335.183 -25.38 331.159 -23.5992C328.497 -22.5756 327.197 -20.3413 325.911 -18.1325C324.722 -16.089 323.546 -14.0674 321.315 -13.0464C317.056 -11.0238 311.613 -12.2249 309.154 -15.7265C306.695 -19.2281 308.155 -23.7071 312.412 -25.7298C314.604 -26.807 317.318 -26.6339 320.061 -26.4589C323.028 -26.2696 326.029 -26.0781 328.442 -27.4645C331.047 -28.8554 332.272 -30.9046 333.467 -32.9017Z" fill="url(#paint0_linear_14813_51300)"/>
    <path d="M908.706 -32.9015C909.897 -34.8934 911.058 -36.8335 913.524 -38.0172C917.784 -40.0398 923.227 -38.8386 925.686 -35.3369C928.453 -31.3529 926.264 -28.6643 923.978 -25.858C922.382 -23.8989 920.74 -21.8824 920.705 -19.3278C920.609 -16.8378 922.229 -14.8907 923.839 -12.9566C925.39 -11.092 926.931 -9.23952 926.916 -6.92425C926.885 -4.64953 925.384 -2.8385 923.868 -1.00927C922.278 0.909534 920.671 2.84835 920.727 5.36339C920.639 9.12483 925.654 11.5432 929.605 9.63451C932.267 8.61087 933.568 6.37657 934.853 4.16777C936.042 2.12428 937.219 0.102604 939.449 -0.918377C943.709 -2.941 949.151 -1.73978 951.611 1.76183C954.07 5.26345 952.609 9.74237 948.352 11.765C946.16 12.8422 943.446 12.6691 940.703 12.4941C937.736 12.3049 934.735 12.1134 932.322 13.4998C929.513 14.885 928.122 17.2091 926.738 19.521C926.215 20.3949 925.693 21.267 925.096 22.086C921.614 26.2991 913.267 25.8595 910.317 21.3725C907.587 17.442 909.789 14.769 912.068 12.0024C913.712 10.007 915.396 7.96296 915.298 5.36339C915.295 2.87812 913.707 0.944733 912.139 -0.966179C910.596 -2.84487 909.072 -4.70184 909.087 -7.04018C909.118 -9.28453 910.654 -11.1025 912.191 -12.9208C913.846 -14.8786 915.501 -16.8367 915.276 -19.3278C915.002 -23.1812 910.421 -25.3797 906.398 -23.5989C903.736 -22.5753 902.435 -20.341 901.15 -18.1323C899.961 -16.0888 898.784 -14.0671 896.554 -13.0462C892.294 -11.0235 886.852 -12.2247 884.392 -15.7263C881.933 -19.2279 883.394 -23.7069 887.651 -25.7295C889.843 -26.8068 892.557 -26.6336 895.3 -26.4586C898.267 -26.2693 901.268 -26.0778 903.681 -27.4643C906.286 -28.8552 907.511 -30.9043 908.706 -32.9015Z" fill="url(#paint1_linear_14813_51300)"/>
    <path d="M716.882 -24.9015C718.073 -26.8934 719.234 -28.8335 721.701 -30.0172C725.96 -32.0398 731.403 -30.8386 733.862 -27.3369C736.63 -23.3529 734.44 -20.6643 732.154 -17.858C730.558 -15.8989 728.916 -13.8824 728.881 -11.3278C728.786 -8.83777 730.406 -6.89068 732.015 -4.95661C733.566 -3.09201 735.107 -1.23951 735.092 1.07575C735.061 3.35047 733.56 5.1615 732.044 6.99073C730.454 8.90953 728.847 10.8484 728.903 13.3634C728.815 17.1248 733.831 19.5432 737.781 17.6345C740.443 16.6109 741.744 14.3766 743.029 12.1678C744.218 10.1243 745.395 8.1026 747.625 7.08162C751.885 5.059 757.328 6.26022 759.787 9.76183C762.246 13.2635 760.785 17.7424 756.528 19.765C754.336 20.8422 751.622 20.6691 748.879 20.4941C745.912 20.3049 742.911 20.1134 740.498 21.4998C737.689 22.885 736.298 25.2091 734.914 27.521C734.391 28.3949 733.869 29.267 733.272 30.086C729.79 34.2991 721.443 33.8595 718.493 29.3725C715.763 25.442 717.965 22.769 720.244 20.0024C721.888 18.007 723.572 15.963 723.474 13.3634C723.471 10.8781 721.883 8.94473 720.315 7.03382C718.772 5.15513 717.248 3.29816 717.263 0.959816C717.294 -1.28453 718.83 -3.10251 720.367 -4.92082C722.022 -6.87859 723.677 -8.83673 723.452 -11.3278C723.178 -15.1812 718.598 -17.3797 714.574 -15.5989C711.912 -14.5753 710.611 -12.341 709.326 -10.1323C708.137 -8.0888 706.96 -6.06714 704.73 -5.04616C700.471 -3.02353 695.028 -4.22465 692.569 -7.72627C690.109 -11.2279 691.57 -15.7069 695.827 -17.7295C698.019 -18.8068 700.733 -18.6336 703.476 -18.4586C706.443 -18.2693 709.444 -18.0778 711.857 -19.4643C714.462 -20.8552 715.687 -22.9043 716.882 -24.9015Z" fill="url(#paint2_linear_14813_51300)"/>
    <path d="M597.824 56.0056C598.396 58.3829 598.953 60.6984 601.148 62.5199C604.945 65.6428 611.096 65.6414 614.892 62.5208C619.178 58.9631 617.792 55.6191 616.346 52.1287C615.336 49.6919 614.297 47.1839 615.137 44.4821C615.892 41.8344 618.269 40.1578 620.629 38.4925C622.906 36.887 625.167 35.2919 625.946 32.847C626.694 30.4412 625.734 28.1827 624.763 25.9015C623.745 23.5085 622.717 21.0906 623.639 18.4517C624.839 14.4651 630.958 13.0809 634.468 16.0119C636.924 17.7101 637.527 20.3683 638.124 22.9961C638.676 25.4273 639.223 27.8325 641.224 29.4276C645.021 32.5505 651.173 32.5491 654.968 29.4284C658.763 26.3078 658.762 21.2456 654.967 18.1232C653.026 16.4778 650.105 16.0295 647.153 15.5764C643.959 15.0863 640.729 14.5905 638.66 12.5677C636.174 10.4541 635.505 7.68016 634.84 4.92065L634.84 4.91914C634.588 3.87661 634.337 2.83617 633.989 1.83419C631.764 -3.41774 622.812 -4.89435 618.161 -0.848827C613.932 2.66101 615.336 5.99151 616.789 9.4385C617.838 11.9247 618.911 14.4715 617.916 17.1898C617.058 19.8096 614.721 21.4793 612.41 23.1295C610.139 24.752 607.894 26.3557 607.107 28.825C606.368 31.1986 607.364 33.4727 608.36 35.7473C609.433 38.1963 610.505 40.6457 609.413 43.2203C607.8 47.2196 602.216 48.4731 598.584 45.66C596.129 43.9619 595.525 41.3037 594.928 38.6759C594.376 36.2447 593.83 33.8395 591.829 32.2445C588.032 29.1216 581.88 29.1229 578.085 32.2435C574.289 35.3642 574.291 40.4265 578.085 43.5489C580.027 45.1943 582.948 45.6425 585.9 46.0956C589.094 46.5857 592.324 47.0815 594.392 49.1043C596.661 51.1764 597.25 53.622 597.824 56.0056Z" fill="url(#paint3_linear_14813_51300)"/>
    <path d="M651.084 63.9899C651.656 66.3672 652.214 68.6828 654.408 70.5043C658.205 73.6272 664.357 73.6258 668.152 70.5052C672.439 66.9475 671.053 63.6034 669.606 60.113C668.596 57.6763 667.557 55.1683 668.398 52.4665C669.152 49.8187 671.529 48.1422 673.89 46.4769C676.166 44.8714 678.427 43.2763 679.206 40.8314C679.955 38.4256 678.994 36.1671 678.023 33.8858C677.006 31.4929 675.977 29.075 676.9 26.4361C678.099 22.4495 684.218 21.0653 687.729 23.9963C690.184 25.6945 690.788 28.3527 691.385 30.9805C691.937 33.4117 692.483 35.8169 694.484 37.4119C698.281 40.5348 704.433 40.5335 708.228 37.4128C712.024 34.2922 712.022 29.2299 708.228 26.1076C706.286 24.4621 703.365 24.0139 700.413 23.5608C697.219 23.0706 693.989 22.5749 691.921 20.552C689.434 18.4385 688.766 15.6645 688.1 12.905L688.1 12.9035C687.849 11.861 687.598 10.8205 687.249 9.81857C685.025 4.56664 676.073 3.09003 671.421 7.13555C667.193 10.6454 668.597 13.9759 670.05 17.4229C671.098 19.9091 672.172 22.4558 671.176 25.1742C670.319 27.7939 667.981 29.4636 665.671 31.1139C663.399 32.7364 661.154 34.3401 660.367 36.8094C659.629 39.183 660.625 41.4571 661.621 43.7317C662.693 46.1806 663.766 48.6301 662.674 51.2047C661.061 55.204 655.476 56.4575 651.845 53.6444C649.389 51.9462 648.786 49.2881 648.189 46.6603C647.637 44.2291 647.09 41.8239 645.089 40.2289C641.292 37.106 635.14 37.1073 631.345 40.2279C627.55 43.3485 627.551 48.4109 631.346 51.5332C633.287 53.1787 636.208 53.6269 639.16 54.08C642.354 54.5701 645.585 55.0659 647.653 57.0887C649.921 59.1607 650.51 61.6064 651.084 63.9899Z" fill="url(#paint4_linear_14813_51300)"/>
    <path d="M691.396 76.9079C690.602 74.4277 691.527 72.1931 692.476 69.8989C693.428 67.5986 694.404 65.2384 693.698 62.5107C693.137 59.9081 690.64 58.1498 688.172 56.4116C685.891 54.8047 683.634 53.215 682.952 50.9913C681.564 46.7264 684.639 42.3416 689.822 41.2004C695.006 40.0591 700.334 42.5886 701.724 46.8551C702.488 49.0596 701.5 51.3673 700.5 53.6999C699.42 56.2212 698.328 58.7716 699.422 61.2523C700.857 65.1824 706.456 66.3942 710.283 63.5941C712.793 61.8136 713.353 59.2511 713.912 56.6891C714.432 54.3096 714.952 51.9305 717.034 50.1787C719.216 48.3638 722.135 47.8986 725.088 47.4279C728.092 46.9491 731.131 46.4647 733.465 44.5487C735.98 42.6041 736.598 39.9569 737.201 37.3726C738.037 33.7896 738.845 30.3277 744.64 29.0276C751.127 27.4375 757.982 32.3989 756.717 37.8624C756.41 38.8736 755.995 39.878 755.579 40.8845C754.478 43.548 753.371 46.2264 754.24 49.0796C754.802 51.6821 757.298 53.4404 759.766 55.1786C762.047 56.7856 764.305 58.3753 764.986 60.599C766.375 64.8639 763.3 69.2486 758.116 70.3899C752.933 71.5311 747.604 69.0016 746.214 64.7352C745.45 62.5306 746.439 60.2229 747.438 57.8903C748.518 55.369 749.611 52.8186 748.516 50.3379C747.257 46.3554 741.117 45.0371 737.656 47.9961C735.253 49.9019 734.674 52.419 734.101 54.91C733.555 57.2849 733.015 59.636 730.904 61.4115C728.744 63.2085 725.816 63.6597 722.87 64.1138C719.813 64.5848 716.736 65.059 714.473 67.0416C712.103 69.0357 711.479 71.6352 710.873 74.1609C710.004 77.7787 709.172 81.2448 703.298 82.5626C698.115 83.7039 692.786 81.1744 691.396 76.9079Z" fill="url(#paint5_linear_14813_51300)"/>
    <path d="M792.97 54.5199C790.775 52.6984 790.218 50.3829 789.645 48.0056C789.072 45.622 788.483 43.1764 786.214 41.1043C784.146 39.0815 780.915 38.5857 777.722 38.0956C774.769 37.6425 771.849 37.1943 769.907 35.5489C766.113 32.4265 766.111 27.3642 769.906 24.2435C773.702 21.1229 779.854 21.1216 783.651 24.2445C785.652 25.8395 786.198 28.2447 786.75 30.6759C787.347 33.3037 787.951 35.9619 790.406 37.66C794.037 40.4731 799.622 39.2196 801.235 35.2203C802.327 32.6457 801.254 30.1963 800.182 27.7473C799.186 25.4727 798.19 23.1986 798.929 20.825C799.715 18.3557 801.961 16.752 804.232 15.1295C806.542 13.4793 808.88 11.8096 809.737 9.18984C810.733 6.47145 809.659 3.92467 808.611 1.4385C807.158 -2.00849 805.754 -5.33899 809.983 -8.84883C814.634 -12.8944 823.586 -11.4177 825.811 -6.16581C826.159 -5.16383 826.41 -4.12339 826.661 -3.08086L826.662 -3.07935C827.327 -0.319836 827.996 2.45412 830.482 4.56766C832.55 6.59047 835.781 7.08627 838.974 7.57639C841.927 8.0295 844.848 8.47776 846.789 10.1232C850.584 13.2456 850.585 18.3078 846.79 21.4284C842.994 24.5491 836.843 24.5505 833.046 21.4275C831.045 19.8325 830.498 17.4273 829.946 14.9961C829.349 12.3683 828.746 9.71009 826.29 8.01195C822.78 5.0809 816.661 6.46511 815.461 10.4517C814.539 13.0906 815.567 15.5085 816.585 17.9015C817.555 20.1827 818.516 22.4412 817.767 24.847C816.989 27.2919 814.727 28.887 812.451 30.4925C810.09 32.1578 807.714 33.8344 806.959 36.4821C806.119 39.1839 807.158 41.6919 808.168 44.1287C809.614 47.6191 811 50.9631 806.714 54.5208C802.918 57.6414 796.767 57.6428 792.97 54.5199Z" fill="url(#paint6_linear_14813_51300)"/>
    <path d="M842.908 55.9899C843.48 58.3672 844.037 60.6828 846.232 62.5043C850.029 65.6272 856.181 65.6258 859.976 62.5052C864.262 58.9475 862.877 55.6034 861.43 52.113C860.42 49.6763 859.381 47.1683 860.221 44.4665C860.976 41.8187 863.353 40.1422 865.714 38.4769C867.99 36.8714 870.251 35.2763 871.03 32.8314C871.779 30.4256 870.818 28.1671 869.847 25.8858C868.83 23.4929 867.801 21.075 868.724 18.4361C869.923 14.4495 876.042 13.0653 879.553 15.9963C882.008 17.6945 882.612 20.3526 883.209 22.9805C883.761 25.4117 884.307 27.8169 886.308 29.4119C890.105 32.5348 896.257 32.5335 900.052 29.4128C903.848 26.2922 903.846 21.2299 900.052 18.1076C898.11 16.4621 895.189 16.0139 892.237 15.5608C889.043 15.0706 885.813 14.5748 883.745 12.552C881.258 10.4385 880.59 7.66454 879.924 4.90503L879.924 4.90351C879.672 3.86099 879.422 2.82055 879.073 1.81857C876.848 -3.43336 867.896 -4.90998 863.245 -0.864452C859.016 2.64539 860.421 5.97588 861.874 9.42287C862.922 11.909 863.996 14.4558 863 17.1742C862.142 19.7939 859.805 21.4636 857.494 23.1139C855.223 24.7364 852.978 26.3401 852.191 28.8094C851.453 31.183 852.448 33.4571 853.444 35.7317C854.517 38.1806 855.589 40.6301 854.497 43.2047C852.885 47.204 847.3 48.4575 843.669 45.6444C841.213 43.9462 840.609 41.2881 840.013 38.6603C839.46 36.2291 838.914 33.8239 836.913 32.2289C833.116 29.106 826.964 29.1073 823.169 32.2279C819.374 35.3485 819.375 40.4109 823.17 43.5332C825.111 45.1787 828.032 45.6269 830.984 46.08C834.178 46.5701 837.409 47.0659 839.477 49.0887C841.745 51.1607 842.334 53.6064 842.908 55.9899Z" fill="url(#paint7_linear_14813_51300)"/>
    <path d="M883.22 68.9079C882.426 66.4277 883.351 64.1931 884.3 61.8989C885.251 59.5986 886.228 57.2384 885.522 54.5107C884.961 51.9081 882.464 50.1498 879.996 48.4116C877.715 46.8047 875.458 45.215 874.776 42.9913C873.388 38.7264 876.463 34.3416 881.646 33.2004C886.83 32.0591 892.158 34.5886 893.548 38.8551C894.312 41.0596 893.323 43.3673 892.324 45.6999C891.244 48.2212 890.151 50.7716 891.246 53.2523C892.681 57.1824 898.279 58.3942 902.107 55.5941C904.617 53.8136 905.177 51.2511 905.736 48.6891C906.256 46.3096 906.776 43.9305 908.858 42.1787C911.04 40.3638 913.959 39.8986 916.912 39.4279C919.916 38.9491 922.955 38.4647 925.289 36.5487C927.804 34.6041 928.422 31.9569 929.025 29.3726C929.861 25.7896 930.669 22.3277 936.464 21.0276C942.951 19.4375 949.806 24.3989 948.541 29.8624C948.234 30.8736 947.819 31.878 947.403 32.8845C946.302 35.548 945.195 38.2264 946.064 41.0796C946.626 43.6821 949.122 45.4404 951.59 47.1786C953.871 48.7856 956.128 50.3753 956.81 52.599C958.198 56.8639 955.123 61.2486 949.94 62.3899C944.757 63.5311 939.428 61.0016 938.038 56.7352C937.274 54.5306 938.263 52.2229 939.262 49.8903C940.342 47.369 941.435 44.8186 940.34 42.3379C939.081 38.3554 932.941 37.0371 929.479 39.9961C927.077 41.9019 926.498 44.419 925.925 46.91C925.379 49.2849 924.839 51.636 922.728 53.4115C920.568 55.2085 917.64 55.6597 914.693 56.1138C911.637 56.5848 908.56 57.059 906.297 59.0416C903.927 61.0357 903.303 63.6352 902.697 66.1609C901.828 69.7787 900.996 73.2448 895.122 74.5626C889.939 75.7039 884.61 73.1744 883.22 68.9079Z" fill="url(#paint8_linear_14813_51300)"/>
    <path d="M986.227 54.5199C984.032 52.6984 983.475 50.3829 982.903 48.0056C982.329 45.622 981.74 43.1764 979.472 41.1043C977.404 39.0815 974.173 38.5857 970.979 38.0956C968.027 37.6425 965.106 37.1943 963.165 35.5489C959.37 32.4265 959.369 27.3642 963.164 24.2435C966.959 21.1229 973.111 21.1216 976.908 24.2445C978.909 25.8395 979.455 28.2447 980.008 30.6759C980.604 33.3037 981.208 35.9619 983.664 37.66C987.295 40.4731 992.88 39.2196 994.492 35.2203C995.584 32.6457 994.512 30.1963 993.439 27.7473C992.443 25.4727 991.448 23.1986 992.186 20.825C992.973 18.3557 995.218 16.752 997.489 15.1295C999.8 13.4793 1002.14 11.8096 1002.99 9.18984C1003.99 6.47145 1002.92 3.92467 1001.87 1.4385C1000.42 -2.00849 999.011 -5.33899 1003.24 -8.84883C1007.89 -12.8944 1016.84 -11.4177 1019.07 -6.16581C1019.42 -5.16383 1019.67 -4.12339 1019.92 -3.08086L1019.92 -3.07935C1020.58 -0.319836 1021.25 2.45412 1023.74 4.56766C1025.81 6.59047 1029.04 7.08627 1032.23 7.57639C1035.18 8.0295 1038.11 8.47776 1040.05 10.1232C1043.84 13.2456 1043.84 18.3078 1040.05 21.4284C1036.25 24.5491 1030.1 24.5505 1026.3 21.4275C1024.3 19.8325 1023.76 17.4273 1023.2 14.9962C1022.61 12.3683 1022 9.71011 1019.55 8.01195C1016.04 5.0809 1009.92 6.46511 1008.72 10.4517C1007.8 13.0906 1008.82 15.5085 1009.84 17.9015C1010.81 20.1827 1011.77 22.4412 1011.02 24.847C1010.25 27.2919 1007.98 28.887 1005.71 30.4925C1003.35 32.1578 1000.97 33.8344 1000.22 36.4821C999.376 39.1839 1000.42 41.6919 1001.43 44.1287C1002.87 47.6191 1004.26 50.9631 999.971 54.5208C996.176 57.6414 990.024 57.6428 986.227 54.5199Z" fill="url(#paint9_linear_14813_51300)"/>
    <path d="M1036.16 55.99C1036.74 58.3673 1037.29 60.6828 1039.49 62.5043C1043.29 65.6272 1049.44 65.6258 1053.23 62.5052C1057.52 58.9475 1056.13 55.6035 1054.69 52.1131C1053.68 49.6764 1052.64 47.1683 1053.48 44.4665C1054.23 41.8187 1056.61 40.1422 1058.97 38.4769C1061.25 36.8714 1063.51 35.2763 1064.29 32.8314C1065.04 30.4256 1064.07 28.1671 1063.1 25.8859C1062.09 23.4929 1061.06 21.075 1061.98 18.4361C1063.18 14.4495 1069.3 13.0653 1072.81 15.9963C1075.26 17.6945 1075.87 20.3526 1076.46 22.9805C1077.02 25.4117 1077.56 27.8169 1079.56 29.4119C1083.36 32.5348 1089.51 32.5335 1093.31 29.4128C1097.1 26.2922 1097.1 21.2299 1093.31 18.1076C1091.37 16.4621 1088.45 16.0139 1085.49 15.5608C1082.3 15.0706 1079.07 14.5749 1077 12.552C1074.51 10.4385 1073.85 7.66447 1073.18 4.90493C1072.93 3.86193 1072.68 2.821 1072.33 1.81857C1070.1 -3.43336 1061.15 -4.90998 1056.5 -0.864452C1052.27 2.64537 1053.68 5.97586 1055.13 9.42284C1056.18 11.909 1057.25 14.4558 1056.26 17.1742C1055.4 19.7939 1053.06 21.4636 1050.75 23.1139C1048.48 24.7364 1046.23 26.3401 1045.45 28.8094C1044.71 31.183 1045.7 33.4571 1046.7 35.7316C1047.77 38.1806 1048.85 40.6301 1047.75 43.2047C1046.14 47.204 1040.56 48.4575 1036.92 45.6444C1034.47 43.9462 1033.87 41.2881 1033.27 38.6603C1032.72 36.2291 1032.17 33.8239 1030.17 32.2289C1026.37 29.106 1020.22 29.1073 1016.43 32.2279C1012.63 35.3485 1012.63 40.4109 1016.43 43.5332C1018.37 45.1787 1021.29 45.6269 1024.24 46.08C1027.43 46.5701 1030.66 47.0659 1032.73 49.0887C1035 51.1607 1035.59 53.6064 1036.16 55.99Z" fill="url(#paint10_linear_14813_51300)"/>
    <path d="M1076.48 68.9079C1075.68 66.4277 1076.61 64.1931 1077.56 61.8988C1078.51 59.5986 1079.48 57.2384 1078.78 54.5107C1078.22 51.9081 1075.72 50.1498 1073.25 48.4117C1070.97 46.8047 1068.71 45.215 1068.03 42.9913C1066.64 38.7264 1069.72 34.3416 1074.9 33.2004C1080.09 32.0591 1085.41 34.5886 1086.8 38.8551C1087.57 41.0596 1086.58 43.3673 1085.58 45.7C1084.5 48.2212 1083.41 50.7716 1084.5 53.2523C1085.94 57.1824 1091.54 58.3942 1095.36 55.5941C1097.87 53.8136 1098.43 51.2511 1098.99 48.6891C1099.51 46.3096 1100.03 43.9305 1102.11 42.1787C1104.3 40.3638 1107.22 39.8986 1110.17 39.4279C1113.17 38.9491 1116.21 38.4647 1118.55 36.5487C1121.06 34.6041 1121.68 31.9569 1122.28 29.3726C1123.12 25.7896 1123.93 22.3277 1129.72 21.0276C1136.21 19.4375 1143.06 24.3989 1141.8 29.8624C1141.49 30.8731 1141.08 31.877 1140.66 32.8829L1140.66 32.8855C1139.56 35.549 1138.45 38.2264 1139.32 41.0796C1139.88 43.6821 1142.38 45.4404 1144.85 47.1786C1147.13 48.7855 1149.38 50.3753 1150.07 52.599C1151.45 56.8639 1148.38 61.2486 1143.2 62.3899C1138.01 63.5311 1132.68 61.0016 1131.29 56.7352C1130.53 54.5306 1131.52 52.2229 1132.52 49.8903C1133.6 47.369 1134.69 44.8186 1133.6 42.3379C1132.34 38.3554 1126.2 37.0371 1122.74 39.9961C1120.33 41.9019 1119.75 44.419 1119.18 46.9101C1118.64 49.2849 1118.1 51.6361 1115.98 53.4115C1113.82 55.2085 1110.9 55.6597 1107.95 56.1138C1104.89 56.5848 1101.82 57.059 1099.55 59.0416C1097.18 61.0357 1096.56 63.6352 1095.95 66.1609C1095.08 69.7787 1094.25 73.2448 1088.38 74.5626C1083.19 75.7039 1077.87 73.1744 1076.48 68.9079Z" fill="url(#paint11_linear_14813_51300)"/>
    <path d="M1101.96 -32.9015C1103.15 -34.8934 1104.31 -36.8335 1106.78 -38.0172C1111.04 -40.0398 1116.48 -38.8386 1118.94 -35.3369C1121.71 -31.3529 1119.52 -28.6643 1117.23 -25.858C1115.64 -23.8989 1114 -21.8824 1113.96 -19.3278C1113.87 -16.8378 1115.49 -14.8907 1117.09 -12.9567C1118.65 -11.0921 1120.19 -9.23954 1120.17 -6.92425C1120.14 -4.64952 1118.64 -2.83848 1117.12 -1.00925C1115.53 0.90955 1113.93 2.84837 1113.98 5.36339C1113.9 9.12483 1118.91 11.5432 1122.86 9.63451C1125.52 8.61088 1126.82 6.37659 1128.11 4.16779C1129.3 2.12429 1130.48 0.102608 1132.71 -0.918377C1136.96 -2.941 1142.41 -1.73978 1144.87 1.76183C1147.33 5.26345 1145.87 9.74237 1141.61 11.765C1139.42 12.8422 1136.7 12.6691 1133.96 12.4941C1130.99 12.3049 1127.99 12.1134 1125.58 13.4998C1122.77 14.885 1121.38 17.2091 1119.99 19.5211L1119.99 19.5226C1119.47 20.3959 1118.95 21.2675 1118.35 22.086C1114.87 26.2991 1106.52 25.8595 1103.57 21.3725C1100.84 17.442 1103.05 14.769 1105.32 12.0024C1106.97 10.007 1108.65 7.96296 1108.55 5.36339C1108.55 2.87811 1106.96 0.944717 1105.4 -0.966198C1103.85 -2.84488 1102.33 -4.70185 1102.34 -7.04018C1102.37 -9.28453 1103.91 -11.1025 1105.45 -12.9208C1107.1 -14.8786 1108.76 -16.8367 1108.53 -19.3278C1108.26 -23.1812 1103.68 -25.3797 1099.65 -23.5989C1096.99 -22.5753 1095.69 -20.341 1094.41 -18.1322C1093.22 -16.0888 1092.04 -14.0671 1089.81 -13.0462C1085.55 -11.0235 1080.11 -12.2247 1077.65 -15.7263C1075.19 -19.2279 1076.65 -23.7069 1080.91 -25.7295C1083.1 -26.8068 1085.81 -26.6336 1088.56 -26.4586C1091.52 -26.2693 1094.52 -26.0778 1096.94 -27.4643C1099.54 -28.8552 1100.77 -30.9043 1101.96 -32.9015Z" fill="url(#paint12_linear_14813_51300)"/>
    <path d="M1178.49 62.5199C1176.29 60.6984 1175.74 58.3829 1175.16 56.0056C1174.59 53.622 1174 51.1764 1171.73 49.1043C1169.66 47.0815 1166.43 46.5857 1163.24 46.0956C1160.29 45.6425 1157.37 45.1943 1155.43 43.5489C1151.63 40.4265 1151.63 35.3642 1155.42 32.2435C1159.22 29.1229 1165.37 29.1216 1169.17 32.2445C1171.17 33.8395 1171.72 36.2447 1172.27 38.6759C1172.86 41.3037 1173.47 43.9619 1175.92 45.66C1179.56 48.4731 1185.14 47.2196 1186.75 43.2203C1187.84 40.6457 1186.77 38.1962 1185.7 35.7473C1184.7 33.4727 1183.71 31.1986 1184.45 28.825C1185.23 26.3557 1187.48 24.752 1189.75 23.1295C1192.06 21.4793 1194.4 19.8096 1195.26 17.1898C1196.25 14.4714 1195.18 11.9247 1194.13 9.43847C1192.68 5.99149 1191.27 2.661 1195.5 -0.848827C1200.15 -4.89435 1209.1 -3.41774 1211.33 1.83419C1211.68 2.83662 1211.93 3.87756 1212.18 4.92056C1212.84 7.6801 1213.51 10.4541 1216 12.5677C1218.07 14.5905 1221.3 15.0863 1224.49 15.5764C1227.44 16.0295 1230.37 16.4778 1232.31 18.1232C1236.1 21.2456 1236.1 26.3078 1232.31 29.4284C1228.51 32.5491 1222.36 32.5505 1218.56 29.4276C1216.56 27.8325 1216.02 25.4273 1215.46 22.9961C1214.87 20.3683 1214.26 17.7101 1211.81 16.0119C1208.3 13.0809 1202.18 14.4651 1200.98 18.4517C1200.06 21.0906 1201.08 23.5085 1202.1 25.9015C1203.07 28.1827 1204.03 30.4412 1203.29 32.847C1202.51 35.2919 1200.25 36.887 1197.97 38.4925C1195.61 40.1578 1193.23 41.8344 1192.48 44.4821C1191.64 47.1839 1192.68 49.692 1193.69 52.1287C1195.13 55.6191 1196.52 58.9632 1192.23 62.5208C1188.44 65.6414 1182.28 65.6428 1178.49 62.5199Z" fill="url(#paint13_linear_14813_51300)"/>
    <path d="M1228.42 63.99C1229 66.3673 1229.55 68.6828 1231.75 70.5043C1235.55 73.6272 1241.7 73.6258 1245.49 70.5052C1249.78 66.9475 1248.39 63.6035 1246.95 60.1131C1245.94 57.6764 1244.9 55.1683 1245.74 52.4665C1246.49 49.8187 1248.87 48.1422 1251.23 46.4769C1253.51 44.8714 1255.77 43.2763 1256.55 40.8314C1257.3 38.4256 1256.33 36.1671 1255.36 33.8859C1254.35 31.4929 1253.32 29.075 1254.24 26.4361C1255.44 22.4495 1261.56 21.0653 1265.07 23.9963C1267.52 25.6945 1268.13 28.3527 1268.73 30.9805C1269.28 33.4117 1269.82 35.8169 1271.83 37.4119C1275.62 40.5348 1281.77 40.5335 1285.57 37.4128C1289.36 34.2922 1289.36 29.2299 1285.57 26.1076C1283.63 24.4621 1280.71 24.0139 1277.75 23.5608C1274.56 23.0706 1271.33 22.5749 1269.26 20.552C1266.78 18.4385 1266.11 15.6645 1265.44 12.9049C1265.19 11.8619 1264.94 10.821 1264.59 9.81857C1262.37 4.56664 1253.41 3.09003 1248.76 7.13555C1244.53 10.6454 1245.94 13.9759 1247.39 17.4228C1248.44 19.909 1249.51 22.4558 1248.52 25.1742C1247.66 27.7939 1245.32 29.4636 1243.01 31.1139C1240.74 32.7364 1238.49 34.3401 1237.71 36.8094C1236.97 39.183 1237.97 41.4571 1238.96 43.7316C1240.03 46.1806 1241.11 48.6301 1240.01 51.2047C1238.4 55.204 1232.82 56.4575 1229.19 53.6444C1226.73 51.9462 1226.13 49.2881 1225.53 46.6603C1224.98 44.2291 1224.43 41.8239 1222.43 40.2289C1218.63 37.106 1212.48 37.1073 1208.69 40.2279C1204.89 43.3485 1204.89 48.4109 1208.69 51.5332C1210.63 53.1787 1213.55 53.6269 1216.5 54.08C1219.69 54.5701 1222.93 55.0659 1224.99 57.0887C1227.26 59.1607 1227.85 61.6064 1228.42 63.99Z" fill="url(#paint14_linear_14813_51300)"/>
    <path d="M1268.74 76.9079C1267.94 74.4277 1268.87 72.1931 1269.82 69.8988C1270.77 67.5986 1271.74 65.2384 1271.04 62.5107C1270.48 59.9081 1267.98 58.1498 1265.51 56.4117C1263.23 54.8047 1260.97 53.215 1260.29 50.9913C1258.9 46.7264 1261.98 42.3416 1267.16 41.2004C1272.35 40.0591 1277.67 42.5886 1279.06 46.8551C1279.83 49.0596 1278.84 51.3673 1277.84 53.7C1276.76 56.2212 1275.67 58.7716 1276.76 61.2523C1278.2 65.1824 1283.8 66.3942 1287.62 63.5941C1290.13 61.8136 1290.69 59.2511 1291.25 56.6891C1291.77 54.3096 1292.29 51.9305 1294.37 50.1787C1296.56 48.3638 1299.48 47.8986 1302.43 47.4279C1305.43 46.9491 1308.47 46.4647 1310.81 44.5487C1313.32 42.6041 1313.94 39.9569 1314.54 37.3726C1315.38 33.7896 1316.19 30.3277 1321.98 29.0276C1328.47 27.4375 1335.32 32.3989 1334.06 37.8624C1333.75 38.8731 1333.34 39.877 1332.92 40.8829L1332.92 40.8855C1331.82 43.549 1330.71 46.2264 1331.58 49.0796C1332.14 51.6821 1334.64 53.4404 1337.11 55.1786C1339.39 56.7855 1341.64 58.3753 1342.33 60.599C1343.71 64.8639 1340.64 69.2486 1335.46 70.3899C1330.27 71.5311 1324.94 69.0016 1323.55 64.7352C1322.79 62.5306 1323.78 60.2229 1324.78 57.8903C1325.86 55.369 1326.95 52.8186 1325.86 50.3379C1324.6 46.3554 1318.46 45.0371 1315 47.9961C1312.59 49.9019 1312.01 52.419 1311.44 54.9101C1310.9 57.2849 1310.36 59.6361 1308.24 61.4115C1306.08 63.2085 1303.16 63.6597 1300.21 64.1138C1297.15 64.5848 1294.08 65.059 1291.81 67.0416C1289.44 69.0357 1288.82 71.6352 1288.21 74.1609C1287.34 77.7787 1286.51 81.2448 1280.64 82.5626C1275.45 83.7039 1270.13 81.1744 1268.74 76.9079Z" fill="url(#paint15_linear_14813_51300)"/>
    <path d="M1294.22 -24.9015C1295.41 -26.8934 1296.57 -28.8335 1299.04 -30.0172C1303.3 -32.0398 1308.74 -30.8386 1311.2 -27.3369C1313.97 -23.3529 1311.78 -20.6643 1309.49 -17.858C1307.9 -15.8989 1306.26 -13.8824 1306.22 -11.3278C1306.13 -8.8378 1307.75 -6.89072 1309.35 -4.95667C1310.91 -3.09205 1312.45 -1.23954 1312.43 1.07575C1312.4 3.35048 1310.9 5.16152 1309.38 6.99075C1307.79 8.90955 1306.19 10.8484 1306.24 13.3634C1306.16 17.1248 1311.17 19.5432 1315.12 17.6345C1317.78 16.6109 1319.08 14.3766 1320.37 12.1678C1321.56 10.1243 1322.73 8.10261 1324.97 7.08162C1329.22 5.059 1334.67 6.26022 1337.13 9.76183C1339.59 13.2635 1338.13 17.7424 1333.87 19.765C1331.68 20.8422 1328.96 20.6691 1326.22 20.4941C1323.25 20.3049 1320.25 20.1134 1317.84 21.4998C1315.03 22.885 1313.64 25.2091 1312.25 27.5211L1312.25 27.5226C1311.73 28.3959 1311.21 29.2675 1310.61 30.086C1307.13 34.2991 1298.78 33.8595 1295.83 29.3725C1293.1 25.442 1295.31 22.769 1297.58 20.0024C1299.23 18.007 1300.91 15.963 1300.81 13.3634C1300.81 10.8781 1299.22 8.94472 1297.65 7.0338C1296.11 5.15512 1294.59 3.29815 1294.6 0.959816C1294.63 -1.28453 1296.17 -3.10251 1297.71 -4.92082C1299.36 -6.87859 1301.02 -8.83673 1300.79 -11.3278C1300.52 -15.1812 1295.94 -17.3797 1291.91 -15.5989C1289.25 -14.5753 1287.95 -12.341 1286.67 -10.1322C1285.48 -8.08877 1284.3 -6.06713 1282.07 -5.04616C1277.81 -3.02353 1272.37 -4.22465 1269.91 -7.72627C1267.45 -11.2279 1268.91 -15.7069 1273.17 -17.7295C1275.36 -18.8068 1278.07 -18.6336 1280.82 -18.4586C1283.78 -18.2693 1286.78 -18.0778 1289.2 -19.4643C1291.8 -20.8552 1293.03 -22.9043 1294.22 -24.9015Z" fill="url(#paint16_linear_14813_51300)"/>
    <path d="M1370.31 54.5199C1368.12 52.6984 1367.56 50.3829 1366.99 48.0056C1366.41 45.622 1365.82 43.1764 1363.55 41.1043C1361.49 39.0815 1358.26 38.5857 1355.06 38.0956C1352.11 37.6425 1349.19 37.1943 1347.25 35.5489C1343.45 32.4265 1343.45 27.3642 1347.25 24.2435C1351.04 21.1229 1357.19 21.1216 1360.99 24.2445C1362.99 25.8395 1363.54 28.2447 1364.09 30.6759C1364.69 33.3037 1365.29 35.9619 1367.75 37.66C1371.38 40.4731 1376.96 39.2196 1378.58 35.2203C1379.67 32.6457 1378.6 30.1962 1377.52 27.7473C1376.53 25.4727 1375.53 23.1986 1376.27 20.825C1377.06 18.3557 1379.3 16.752 1381.57 15.1295C1383.88 13.4793 1386.22 11.8096 1387.08 9.18984C1388.07 6.47145 1387 3.92466 1385.95 1.43847C1384.5 -2.00851 1383.09 -5.339 1387.32 -8.84883C1391.97 -12.8944 1400.93 -11.4177 1403.15 -6.16581C1403.5 -5.16338 1403.75 -4.12244 1404 -3.07944C1404.67 -0.319901 1405.34 2.45409 1407.82 4.56766C1409.89 6.59048 1413.12 7.08627 1416.32 7.57639C1419.27 8.0295 1422.19 8.47776 1424.13 10.1232C1427.92 13.2456 1427.93 18.3078 1424.13 21.4284C1420.34 24.5491 1414.18 24.5505 1410.39 21.4275C1408.39 19.8325 1407.84 17.4273 1407.29 14.9961C1406.69 12.3683 1406.09 9.71009 1403.63 8.01195C1400.12 5.0809 1394 6.46511 1392.8 10.4517C1391.88 13.0906 1392.91 15.5085 1393.93 17.9015C1394.9 20.1827 1395.86 22.4412 1395.11 24.847C1394.33 27.2919 1392.07 28.887 1389.79 30.4925C1387.43 32.1578 1385.05 33.8344 1384.3 36.4821C1383.46 39.1839 1384.5 41.692 1385.51 44.1287C1386.95 47.6191 1388.34 50.9632 1384.05 54.5208C1380.26 57.6414 1374.11 57.6428 1370.31 54.5199Z" fill="url(#paint17_linear_14813_51300)"/>
    <path d="M1420.25 55.99C1420.82 58.3673 1421.38 60.6828 1423.57 62.5043C1427.37 65.6272 1433.52 65.6258 1437.32 62.5052C1441.6 58.9475 1440.22 55.6035 1438.77 52.1131C1437.76 49.6764 1436.72 47.1683 1437.56 44.4665C1438.32 41.8187 1440.69 40.1422 1443.05 38.4769C1445.33 36.8714 1447.59 35.2763 1448.37 32.8314C1449.12 30.4256 1448.16 28.1671 1447.19 25.8859C1446.17 23.4929 1445.14 21.075 1446.06 18.4361C1447.26 14.4495 1453.38 13.0653 1456.89 15.9963C1459.35 17.6945 1459.95 20.3526 1460.55 22.9805C1461.1 25.4117 1461.65 27.8169 1463.65 29.4119C1467.44 32.5348 1473.6 32.5335 1477.39 29.4128C1481.19 26.2922 1481.19 21.2299 1477.39 18.1076C1475.45 16.4621 1472.53 16.0139 1469.58 15.5608C1466.38 15.0706 1463.15 14.5749 1461.08 12.552C1458.6 10.4385 1457.93 7.66447 1457.26 4.90493C1457.01 3.86193 1456.76 2.821 1456.41 1.81857C1454.19 -3.43336 1445.24 -4.90998 1440.58 -0.864452C1436.36 2.64537 1437.76 5.97586 1439.21 9.42284C1440.26 11.909 1441.33 14.4558 1440.34 17.1742C1439.48 19.7939 1437.14 21.4636 1434.83 23.1139C1432.56 24.7364 1430.32 26.3401 1429.53 28.8094C1428.79 31.183 1429.79 33.4571 1430.78 35.7316C1431.86 38.1806 1432.93 40.6301 1431.84 43.2047C1430.22 47.204 1424.64 48.4575 1421.01 45.6444C1418.55 43.9462 1417.95 41.2881 1417.35 38.6603C1416.8 36.2291 1416.25 33.8239 1414.25 32.2289C1410.46 29.106 1404.3 29.1073 1400.51 32.2279C1396.71 35.3485 1396.71 40.4109 1400.51 43.5332C1402.45 45.1787 1405.37 45.6269 1408.32 46.08C1411.52 46.5701 1414.75 47.0659 1416.82 49.0887C1419.08 51.1607 1419.67 53.6064 1420.25 55.99Z" fill="url(#paint18_linear_14813_51300)"/>
    <path d="M1460.56 68.9079C1459.77 66.4277 1460.69 64.1931 1461.64 61.8988C1462.59 59.5986 1463.57 57.2384 1462.86 54.5107C1462.3 51.9081 1459.8 50.1498 1457.34 48.4117C1455.05 46.8047 1452.8 45.215 1452.12 42.9913C1450.73 38.7264 1453.8 34.3416 1458.99 33.2004C1464.17 32.0591 1469.5 34.5886 1470.89 38.8551C1471.65 41.0596 1470.66 43.3673 1469.66 45.7C1468.58 48.2212 1467.49 50.7716 1468.59 53.2523C1470.02 57.1824 1475.62 58.3942 1479.45 55.5941C1481.96 53.8136 1482.52 51.2511 1483.08 48.6891C1483.6 46.3096 1484.12 43.9305 1486.2 42.1787C1488.38 40.3638 1491.3 39.8986 1494.25 39.4279C1497.26 38.9491 1500.29 38.4647 1502.63 36.5487C1505.14 34.6041 1505.76 31.9569 1506.36 29.3726C1507.2 25.7896 1508.01 22.3277 1513.8 21.0276C1520.29 19.4375 1527.15 24.3989 1525.88 29.8624C1525.57 30.8731 1525.16 31.877 1524.74 32.8829L1524.74 32.8855C1523.64 35.549 1522.53 38.2264 1523.4 41.0796C1523.97 43.6821 1526.46 45.4404 1528.93 47.1786C1531.21 48.7855 1533.47 50.3753 1534.15 52.599C1535.54 56.8639 1532.46 61.2486 1527.28 62.3899C1522.1 63.5311 1516.77 61.0016 1515.38 56.7352C1514.61 54.5306 1515.6 52.2229 1516.6 49.8903C1517.68 47.369 1518.77 44.8186 1517.68 42.3379C1516.42 38.3554 1510.28 37.0371 1506.82 39.9961C1504.42 41.9019 1503.84 44.419 1503.26 46.9101C1502.72 49.2849 1502.18 51.6361 1500.07 53.4115C1497.91 55.2085 1494.98 55.6597 1492.03 56.1138C1488.98 56.5848 1485.9 57.059 1483.64 59.0416C1481.27 61.0357 1480.64 63.6352 1480.04 66.1609C1479.17 69.7787 1478.34 73.2448 1472.46 74.5626C1467.28 75.7039 1461.95 73.1744 1460.56 68.9079Z" fill="url(#paint19_linear_14813_51300)"/>
    <path d="M1486.05 -32.9015C1487.24 -34.8934 1488.4 -36.8335 1490.86 -38.0172C1495.12 -40.0398 1500.57 -38.8386 1503.03 -35.3369C1505.79 -31.3529 1503.6 -28.6643 1501.32 -25.858C1499.72 -23.8989 1498.08 -21.8824 1498.04 -19.3278C1497.95 -16.8378 1499.57 -14.8907 1501.18 -12.9567C1502.73 -11.0921 1504.27 -9.23954 1504.25 -6.92425C1504.22 -4.64952 1502.72 -2.83848 1501.21 -1.00925C1499.62 0.90955 1498.01 2.84837 1498.07 5.36339C1497.98 9.12483 1502.99 11.5432 1506.94 9.63451C1509.61 8.61088 1510.91 6.37659 1512.19 4.16779C1513.38 2.12429 1514.56 0.102608 1516.79 -0.918377C1521.05 -2.941 1526.49 -1.73978 1528.95 1.76183C1531.41 5.26345 1529.95 9.74237 1525.69 11.765C1523.5 12.8422 1520.79 12.6691 1518.04 12.4941C1515.08 12.3049 1512.07 12.1134 1509.66 13.4998C1506.85 14.885 1505.46 17.2091 1504.08 19.5211L1504.08 19.5226C1503.55 20.3959 1503.03 21.2675 1502.43 22.086C1498.95 26.2991 1490.61 25.8595 1487.66 21.3725C1484.93 17.442 1487.13 14.769 1489.41 12.0024C1491.05 10.007 1492.74 7.96296 1492.64 5.36339C1492.63 2.87811 1491.05 0.944717 1489.48 -0.966198C1487.94 -2.84488 1486.41 -4.70185 1486.43 -7.04018C1486.46 -9.28453 1487.99 -11.1025 1489.53 -12.9208C1491.18 -14.8786 1492.84 -16.8367 1492.62 -19.3278C1492.34 -23.1812 1487.76 -25.3797 1483.74 -23.5989C1481.07 -22.5753 1479.77 -20.341 1478.49 -18.1322C1477.3 -16.0888 1476.12 -14.0671 1473.89 -13.0462C1469.63 -11.0235 1464.19 -12.2247 1461.73 -15.7263C1459.27 -19.2279 1460.73 -23.7069 1464.99 -25.7295C1467.18 -26.8068 1469.9 -26.6336 1472.64 -26.4586C1475.61 -26.2693 1478.61 -26.0778 1481.02 -27.4643C1483.62 -28.8552 1484.85 -30.9043 1486.05 -32.9015Z" fill="url(#paint20_linear_14813_51300)"/>
    <path d="M1563.57 54.5199C1561.37 52.6984 1560.82 50.3829 1560.24 48.0056C1559.67 45.622 1559.08 43.1764 1556.81 41.1043C1554.74 39.0815 1551.51 38.5857 1548.32 38.0956C1545.37 37.6425 1542.45 37.1943 1540.5 35.5489C1536.71 32.4265 1536.71 27.3642 1540.5 24.2435C1544.3 21.1229 1550.45 21.1216 1554.25 24.2445C1556.25 25.8395 1556.8 28.2447 1557.35 30.6759C1557.94 33.3037 1558.55 35.9619 1561 37.66C1564.64 40.4731 1570.22 39.2196 1571.83 35.2203C1572.92 32.6457 1571.85 30.1962 1570.78 27.7473C1569.78 25.4727 1568.79 23.1986 1569.53 20.825C1570.31 18.3557 1572.56 16.752 1574.83 15.1295C1577.14 13.4793 1579.48 11.8096 1580.34 9.18984C1581.33 6.47145 1580.26 3.92466 1579.21 1.43847C1577.76 -2.00851 1576.35 -5.339 1580.58 -8.84883C1585.23 -12.8944 1594.18 -11.4177 1596.41 -6.16581C1596.76 -5.16338 1597.01 -4.12244 1597.26 -3.07944C1597.92 -0.319901 1598.59 2.45409 1601.08 4.56766C1603.15 6.59048 1606.38 7.08627 1609.57 7.57639C1612.52 8.0295 1615.45 8.47776 1617.39 10.1232C1621.18 13.2456 1621.18 18.3078 1617.39 21.4284C1613.59 24.5491 1607.44 24.5505 1603.64 21.4275C1601.64 19.8325 1601.1 17.4273 1600.54 14.9961C1599.95 12.3683 1599.34 9.71009 1596.89 8.01195C1593.38 5.0809 1587.26 6.46511 1586.06 10.4517C1585.14 13.0906 1586.16 15.5085 1587.18 17.9015C1588.15 20.1827 1589.11 22.4412 1588.37 24.847C1587.59 27.2919 1585.33 28.887 1583.05 30.4925C1580.69 32.1578 1578.31 33.8344 1577.56 36.4821C1576.72 39.1839 1577.76 41.692 1578.77 44.1287C1580.21 47.6191 1581.6 50.9632 1577.31 54.5208C1573.52 57.6414 1567.36 57.6428 1563.57 54.5199Z" fill="url(#paint21_linear_14813_51300)"/>
    <path d="M1613.5 55.99C1614.08 58.3673 1614.63 60.6828 1616.83 62.5043C1620.63 65.6272 1626.78 65.6258 1630.57 62.5052C1634.86 58.9475 1633.47 55.6035 1632.03 52.1131C1631.02 49.6764 1629.98 47.1683 1630.82 44.4665C1631.57 41.8187 1633.95 40.1422 1636.31 38.4769C1638.59 36.8714 1640.85 35.2763 1641.63 32.8314C1642.37 30.4256 1641.41 28.1671 1640.44 25.8859C1639.43 23.4929 1638.4 21.075 1639.32 18.4361C1640.52 14.4495 1646.64 13.0653 1650.15 15.9963C1652.6 17.6945 1653.21 20.3526 1653.8 22.9805C1654.36 25.4117 1654.9 27.8169 1656.9 29.4119C1660.7 32.5348 1666.85 32.5335 1670.65 29.4128C1674.44 26.2922 1674.44 21.2299 1670.65 18.1076C1668.71 16.4621 1665.79 16.0139 1662.83 15.5608C1659.64 15.0706 1656.41 14.5749 1654.34 12.552C1651.85 10.4385 1651.19 7.66447 1650.52 4.90493C1650.27 3.86193 1650.02 2.821 1649.67 1.81857C1647.44 -3.43336 1638.49 -4.90998 1633.84 -0.864452C1629.61 2.64537 1631.02 5.97586 1632.47 9.42284C1633.52 11.909 1634.59 14.4558 1633.6 17.1742C1632.74 19.7939 1630.4 21.4636 1628.09 23.1139C1625.82 24.7364 1623.57 26.3401 1622.79 28.8094C1622.05 31.183 1623.04 33.4571 1624.04 35.7316C1625.11 38.1806 1626.19 40.6301 1625.09 43.2047C1623.48 47.204 1617.9 48.4575 1614.26 45.6444C1611.81 43.9462 1611.21 41.2881 1610.61 38.6603C1610.06 36.2291 1609.51 33.8239 1607.51 32.2289C1603.71 29.106 1597.56 29.1073 1593.77 32.2279C1589.97 35.3485 1589.97 40.4109 1593.77 43.5332C1595.71 45.1787 1598.63 45.6269 1601.58 46.08C1604.77 46.5701 1608 47.0659 1610.07 49.0887C1612.34 51.1607 1612.93 53.6064 1613.5 55.99Z" fill="url(#paint22_linear_14813_51300)"/>
    <path d="M1653.82 68.9079C1653.02 66.4277 1653.95 64.1931 1654.9 61.8988C1655.85 59.5986 1656.82 57.2384 1656.12 54.5107C1655.56 51.9081 1653.06 50.1498 1650.59 48.4117C1648.31 46.8047 1646.05 45.215 1645.37 42.9913C1643.98 38.7264 1647.06 34.3416 1652.24 33.2004C1657.43 32.0591 1662.75 34.5886 1664.15 38.8551C1664.91 41.0596 1663.92 43.3673 1662.92 45.7C1661.84 48.2212 1660.75 50.7716 1661.84 53.2523C1663.28 57.1824 1668.88 58.3942 1672.7 55.5941C1675.21 53.8136 1675.77 51.2511 1676.33 48.6891C1676.85 46.3096 1677.37 43.9305 1679.45 42.1787C1681.64 40.3638 1684.56 39.8986 1687.51 39.4279C1690.51 38.9491 1693.55 38.4647 1695.89 36.5487C1698.4 34.6041 1699.02 31.9569 1699.62 29.3726C1700.46 25.7896 1701.27 22.3277 1707.06 21.0276C1713.55 19.4375 1720.4 24.3989 1719.14 29.8624C1718.83 30.8731 1718.42 31.877 1718 32.8829L1718 32.8855C1716.9 35.549 1715.79 38.2264 1716.66 41.0796C1717.22 43.6821 1719.72 45.4404 1722.19 47.1786C1724.47 48.7855 1726.73 50.3753 1727.41 52.599C1728.8 56.8639 1725.72 61.2486 1720.54 62.3899C1715.35 63.5311 1710.02 61.0016 1708.63 56.7352C1707.87 54.5306 1708.86 52.2229 1709.86 49.8903C1710.94 47.369 1712.03 44.8186 1710.94 42.3379C1709.68 38.3554 1703.54 37.0371 1700.08 39.9961C1697.67 41.9019 1697.09 44.419 1696.52 46.9101C1695.98 49.2849 1695.44 51.6361 1693.33 53.4115C1691.16 55.2085 1688.24 55.6597 1685.29 56.1138C1682.23 56.5848 1679.16 57.059 1676.89 59.0416C1674.52 61.0357 1673.9 63.6352 1673.29 66.1609C1672.42 69.7787 1671.59 73.2448 1665.72 74.5626C1660.54 75.7039 1655.21 73.1744 1653.82 68.9079Z" fill="url(#paint23_linear_14813_51300)"/>
    <path d="M1679.3 -32.9015C1680.49 -34.8934 1681.65 -36.8335 1684.12 -38.0172C1688.38 -40.0398 1693.82 -38.8386 1696.28 -35.3369C1699.05 -31.3529 1696.86 -28.6643 1694.57 -25.858C1692.98 -23.8989 1691.34 -21.8824 1691.3 -19.3278C1691.21 -16.8378 1692.83 -14.8907 1694.43 -12.9567C1695.99 -11.0921 1697.53 -9.23954 1697.51 -6.92425C1697.48 -4.64952 1695.98 -2.83848 1694.46 -1.00925C1692.87 0.90955 1691.27 2.84837 1691.32 5.36339C1691.24 9.12483 1696.25 11.5432 1700.2 9.63451C1702.86 8.61088 1704.16 6.37659 1705.45 4.16779C1706.64 2.12429 1707.81 0.102608 1710.05 -0.918377C1714.3 -2.941 1719.75 -1.73978 1722.21 1.76183C1724.67 5.26345 1723.21 9.74237 1718.95 11.765C1716.76 12.8422 1714.04 12.6691 1711.3 12.4941C1708.33 12.3049 1705.33 12.1134 1702.92 13.4998C1700.11 14.885 1698.72 17.2091 1697.33 19.5211L1697.33 19.5226C1696.81 20.3959 1696.29 21.2675 1695.69 22.086C1692.21 26.2991 1683.86 25.8595 1680.91 21.3725C1678.18 17.442 1680.39 14.769 1682.66 12.0024C1684.31 10.007 1685.99 7.96296 1685.89 5.36339C1685.89 2.87811 1684.3 0.944717 1682.73 -0.966198C1681.19 -2.84488 1679.67 -4.70185 1679.68 -7.04018C1679.71 -9.28453 1681.25 -11.1025 1682.79 -12.9208C1684.44 -14.8786 1686.1 -16.8367 1685.87 -19.3278C1685.6 -23.1812 1681.02 -25.3797 1676.99 -23.5989C1674.33 -22.5753 1673.03 -20.341 1671.75 -18.1322C1670.56 -16.0888 1669.38 -14.0671 1667.15 -13.0462C1662.89 -11.0235 1657.45 -12.2247 1654.99 -15.7263C1652.53 -19.2279 1653.99 -23.7069 1658.25 -25.7295C1660.44 -26.8068 1663.15 -26.6336 1665.9 -26.4586C1668.86 -26.2693 1671.86 -26.0778 1674.28 -27.4643C1676.88 -28.8552 1678.11 -30.9043 1679.3 -32.9015Z" fill="url(#paint24_linear_14813_51300)"/>
    <path d="M1755.83 54.5199C1753.63 52.6984 1753.08 50.3829 1752.5 48.0056C1751.93 45.622 1751.34 43.1764 1749.07 41.1043C1747 39.0815 1743.77 38.5857 1740.58 38.0956C1737.63 37.6425 1734.71 37.1943 1732.76 35.5489C1728.97 32.4265 1728.97 27.3642 1732.76 24.2435C1736.56 21.1229 1742.71 21.1216 1746.51 24.2445C1748.51 25.8395 1749.06 28.2447 1749.61 30.6759C1750.2 33.3037 1750.81 35.9619 1753.26 37.66C1756.9 40.4731 1762.48 39.2196 1764.09 35.2203C1765.18 32.6457 1764.11 30.1962 1763.04 27.7473C1762.04 25.4727 1761.05 23.1986 1761.79 20.825C1762.57 18.3557 1764.82 16.752 1767.09 15.1295C1769.4 13.4793 1771.74 11.8096 1772.6 9.18984C1773.59 6.47145 1772.52 3.92466 1771.47 1.43847C1770.02 -2.00851 1768.61 -5.339 1772.84 -8.84883C1777.49 -12.8944 1786.44 -11.4177 1788.67 -6.16581C1789.02 -5.16338 1789.27 -4.12244 1789.52 -3.07944C1790.18 -0.319901 1790.85 2.45409 1793.34 4.56766C1795.41 6.59048 1798.64 7.08627 1801.83 7.57639C1804.78 8.0295 1807.71 8.47776 1809.65 10.1232C1813.44 13.2456 1813.44 18.3078 1809.65 21.4284C1805.85 24.5491 1799.7 24.5505 1795.9 21.4275C1793.9 19.8325 1793.36 17.4273 1792.8 14.9961C1792.21 12.3683 1791.6 9.71009 1789.15 8.01195C1785.64 5.0809 1779.52 6.46511 1778.32 10.4517C1777.4 13.0906 1778.42 15.5085 1779.44 17.9015C1780.41 20.1827 1781.37 22.4412 1780.63 24.847C1779.85 27.2919 1777.59 28.887 1775.31 30.4925C1772.95 32.1578 1770.57 33.8344 1769.82 36.4821C1768.98 39.1839 1770.02 41.692 1771.03 44.1287C1772.47 47.6191 1773.86 50.9632 1769.57 54.5208C1765.78 57.6414 1759.62 57.6428 1755.83 54.5199Z" fill="url(#paint25_linear_14813_51300)"/>
    <path d="M1805.76 55.99C1806.34 58.3673 1806.89 60.6828 1809.09 62.5043C1812.89 65.6272 1819.04 65.6258 1822.83 62.5052C1827.12 58.9475 1825.73 55.6035 1824.29 52.1131C1823.28 49.6764 1822.24 47.1683 1823.08 44.4665C1823.83 41.8187 1826.21 40.1422 1828.57 38.4769C1830.85 36.8714 1833.11 35.2763 1833.89 32.8314C1834.64 30.4256 1833.67 28.1671 1832.7 25.8859C1831.69 23.4929 1830.66 21.075 1831.58 18.4361C1832.78 14.4495 1838.9 13.0653 1842.41 15.9963C1844.86 17.6945 1845.47 20.3526 1846.07 22.9805C1846.62 25.4117 1847.16 27.8169 1849.16 29.4119C1852.96 32.5348 1859.11 32.5335 1862.91 29.4128C1866.7 26.2922 1866.7 21.2299 1862.91 18.1076C1860.97 16.4621 1858.05 16.0139 1855.09 15.5608C1851.9 15.0706 1848.67 14.5749 1846.6 12.552C1844.11 10.4385 1843.45 7.66447 1842.78 4.90493C1842.53 3.86193 1842.28 2.821 1841.93 1.81857C1839.71 -3.43336 1830.75 -4.90998 1826.1 -0.864452C1821.87 2.64537 1823.28 5.97586 1824.73 9.42284C1825.78 11.909 1826.85 14.4558 1825.86 17.1742C1825 19.7939 1822.66 21.4636 1820.35 23.1139C1818.08 24.7364 1815.83 26.3401 1815.05 28.8094C1814.31 31.183 1815.31 33.4571 1816.3 35.7316C1817.37 38.1806 1818.45 40.6301 1817.35 43.2047C1815.74 47.204 1810.16 48.4575 1806.53 45.6444C1804.07 43.9462 1803.47 41.2881 1802.87 38.6603C1802.32 36.2291 1801.77 33.8239 1799.77 32.2289C1795.97 29.106 1789.82 29.1073 1786.03 32.2279C1782.23 35.3485 1782.23 40.4109 1786.03 43.5332C1787.97 45.1787 1790.89 45.6269 1793.84 46.08C1797.03 46.5701 1800.27 47.0659 1802.33 49.0887C1804.6 51.1607 1805.19 53.6064 1805.76 55.99Z" fill="url(#paint26_linear_14813_51300)"/>
    <path d="M1846.08 68.9079C1845.28 66.4277 1846.21 64.1931 1847.16 61.8988C1848.11 59.5986 1849.08 57.2384 1848.38 54.5107C1847.82 51.9081 1845.32 50.1498 1842.85 48.4117C1840.57 46.8047 1838.31 45.215 1837.63 42.9913C1836.24 38.7264 1839.32 34.3416 1844.5 33.2004C1849.69 32.0591 1855.01 34.5886 1856.4 38.8551C1857.17 41.0596 1856.18 43.3673 1855.18 45.7C1854.1 48.2212 1853.01 50.7716 1854.1 53.2523C1855.54 57.1824 1861.14 58.3942 1864.96 55.5941C1867.47 53.8136 1868.03 51.2511 1868.59 48.6891C1869.11 46.3096 1869.63 43.9305 1871.71 42.1787C1873.9 40.3638 1876.81 39.8986 1879.77 39.4279C1882.77 38.9491 1885.81 38.4647 1888.15 36.5487C1890.66 34.6041 1891.28 31.9569 1891.88 29.3726C1892.72 25.7896 1893.53 22.3277 1899.32 21.0276C1905.81 19.4375 1912.66 24.3989 1911.4 29.8624C1911.09 30.8731 1910.68 31.877 1910.26 32.8829L1910.26 32.8855C1909.16 35.549 1908.05 38.2264 1908.92 41.0796C1909.48 43.6821 1911.98 45.4404 1914.45 47.1786C1916.73 48.7855 1918.98 50.3753 1919.67 52.599C1921.05 56.8639 1917.98 61.2486 1912.8 62.3899C1907.61 63.5311 1902.28 61.0016 1900.89 56.7352C1900.13 54.5306 1901.12 52.2229 1902.12 49.8903C1903.2 47.369 1904.29 44.8186 1903.2 42.3379C1901.94 38.3554 1895.8 37.0371 1892.34 39.9961C1889.93 41.9019 1889.35 44.419 1888.78 46.9101C1888.24 49.2849 1887.69 51.6361 1885.58 53.4115C1883.42 55.2085 1880.5 55.6597 1877.55 56.1138C1874.49 56.5848 1871.42 57.059 1869.15 59.0416C1866.78 61.0357 1866.16 63.6352 1865.55 66.1609C1864.68 69.7787 1863.85 73.2448 1857.98 74.5626C1852.79 75.7039 1847.47 73.1744 1846.08 68.9079Z" fill="url(#paint27_linear_14813_51300)"/>
    <path d="M1871.56 -32.9015C1872.75 -34.8934 1873.91 -36.8335 1876.38 -38.0172C1880.64 -40.0398 1886.08 -38.8386 1888.54 -35.3369C1891.31 -31.3529 1889.12 -28.6643 1886.83 -25.858C1885.24 -23.8989 1883.6 -21.8824 1883.56 -19.3278C1883.47 -16.8378 1885.09 -14.8907 1886.7 -12.9567C1888.25 -11.0921 1889.79 -9.23954 1889.77 -6.92425C1889.74 -4.64952 1888.24 -2.83848 1886.72 -1.00925C1885.13 0.90955 1883.53 2.84837 1883.58 5.36339C1883.5 9.12483 1888.51 11.5432 1892.46 9.63451C1895.12 8.61088 1896.42 6.37659 1897.71 4.16779C1898.9 2.12429 1900.08 0.102608 1902.31 -0.918377C1906.57 -2.941 1912.01 -1.73978 1914.47 1.76183C1916.93 5.26345 1915.47 9.74237 1911.21 11.765C1909.02 12.8422 1906.3 12.6691 1903.56 12.4941C1900.59 12.3049 1897.59 12.1134 1895.18 13.4998C1892.37 14.885 1890.98 17.2091 1889.59 19.5211L1889.59 19.5226C1889.07 20.3959 1888.55 21.2675 1887.95 22.086C1884.47 26.2991 1876.12 25.8595 1873.17 21.3725C1870.44 17.442 1872.65 14.769 1874.92 12.0024C1876.57 10.007 1878.25 7.96296 1878.15 5.36339C1878.15 2.87811 1876.56 0.944717 1875 -0.966198C1873.45 -2.84488 1871.93 -4.70185 1871.94 -7.04018C1871.97 -9.28453 1873.51 -11.1025 1875.05 -12.9208C1876.7 -14.8786 1878.36 -16.8367 1878.13 -19.3278C1877.86 -23.1812 1873.28 -25.3797 1869.25 -23.5989C1866.59 -22.5753 1865.29 -20.341 1864.01 -18.1322C1862.82 -16.0888 1861.64 -14.0671 1859.41 -13.0462C1855.15 -11.0235 1849.71 -12.2247 1847.25 -15.7263C1844.79 -19.2279 1846.25 -23.7069 1850.51 -25.7295C1852.7 -26.8068 1855.41 -26.6336 1858.16 -26.4586C1861.12 -26.2693 1864.12 -26.0778 1866.54 -27.4643C1869.14 -28.8552 1870.37 -30.9043 1871.56 -32.9015Z" fill="url(#paint28_linear_14813_51300)"/>
    <path d="M25.909 62.5196C23.7144 60.6982 23.157 58.3826 22.5847 56.0053C22.011 53.6218 21.4223 51.1761 19.1535 49.1041C17.0854 47.0812 13.8548 46.5855 10.6613 46.0954C7.70886 45.6423 4.78804 45.1941 2.84649 43.5486C-0.947868 40.4263 -0.949579 35.3639 2.84585 32.2433C6.64128 29.1226 12.793 29.1214 16.5899 32.2443C18.5911 33.8393 19.1374 36.2445 19.6895 38.6756C20.2864 41.3035 20.8901 43.9616 23.3454 45.6598C26.9769 48.4729 32.5616 47.2194 34.1744 43.22C35.2663 40.6454 34.1937 38.196 33.1214 35.747C32.1254 33.4725 31.1296 31.1984 31.8682 28.8247C32.6547 26.3555 34.8999 24.7518 37.1714 23.1293C39.4818 21.479 41.8194 19.8093 42.6767 17.1896C43.6725 14.4712 42.5988 11.9244 41.5507 9.43825C40.0974 5.99126 38.6933 2.66076 42.922 -0.849072C47.5733 -4.8946 56.5254 -3.41798 58.7502 1.83395C59.0986 2.83639 59.3496 3.87734 59.6011 4.92035C60.2664 7.67988 60.9352 10.4539 63.4216 12.5674C65.4897 14.5902 68.7202 15.086 71.9138 15.5761C74.8662 16.0293 77.787 16.4775 79.7285 18.123C83.5229 21.2453 83.5247 26.3075 79.7292 29.4282C75.9338 32.5488 69.782 32.5502 65.9851 29.4273C63.9839 27.8323 63.4376 25.4271 62.8855 22.9959C62.2887 20.368 61.6849 17.7098 59.2296 16.0117C55.719 13.0807 49.6001 14.4649 48.4006 18.4514C47.4779 21.0904 48.5064 23.5083 49.5244 25.9012C50.4948 28.1825 51.4555 30.441 50.7068 32.8467C49.9281 35.2917 47.6668 36.8868 45.3907 38.4923C43.0298 40.1576 40.653 41.8341 39.8984 44.4819C39.0579 47.1837 40.0973 49.6917 41.1071 52.1284C42.5536 55.6188 43.9394 58.9629 39.6531 62.5205C35.8577 65.6412 29.7059 65.6426 25.909 62.5196Z" fill="url(#paint29_linear_14813_51300)"/>
    <path d="M75.8452 63.9897C76.4174 66.367 76.9748 68.6825 79.1693 70.504C82.9663 73.6269 89.1181 73.6256 92.9135 70.5049C97.1998 66.9473 95.814 63.6032 94.3675 60.1128C93.3577 57.6761 92.3184 55.1681 93.1588 52.4663C93.9134 49.8185 96.2902 48.142 98.6511 46.4767C100.927 44.8711 103.188 43.276 103.967 40.8311C104.716 38.4254 103.755 36.1668 102.785 33.8856C101.767 31.4927 100.738 29.0748 101.661 26.4358C102.86 22.4492 108.979 21.065 112.49 23.9961C114.945 25.6942 115.549 28.3524 116.146 30.9802C116.698 33.4114 117.244 35.8167 119.245 37.4117C123.042 40.5346 129.194 40.5332 132.99 37.4126C136.785 34.2919 136.783 29.2297 132.989 26.1074C131.047 24.4619 128.127 24.0136 125.174 23.5605C121.981 23.0704 118.75 22.5746 116.682 20.5518C114.196 18.4382 113.527 15.6643 112.861 12.9047C112.61 11.8617 112.359 10.8208 112.011 9.81833C109.786 4.56639 100.834 3.08978 96.1824 7.13531C91.9537 10.6451 93.3578 13.9756 94.8111 17.4226C95.8592 19.9088 96.9329 22.4556 95.9371 25.174C95.0798 27.7937 92.7422 29.4634 90.4318 31.1137C88.1603 32.7361 85.9151 34.3398 85.1286 36.8091C84.39 39.1827 85.3858 41.4569 86.3818 43.7314C87.4541 46.1804 88.5267 48.6298 87.4348 51.2044C85.822 55.2038 80.2373 56.4573 76.6058 53.6441C74.1505 51.946 73.5468 49.2878 72.9499 46.66C72.3978 44.2289 71.8515 41.8237 69.8503 40.2286C66.0534 37.1057 59.9017 37.107 56.1063 40.2277C52.3108 43.3483 52.3125 48.4106 56.1069 51.533C58.0484 53.1784 60.9693 53.6267 63.9217 54.0798C67.1152 54.5699 70.3458 55.0656 72.4139 57.0884C74.6827 59.1605 75.2714 61.6061 75.8452 63.9897Z" fill="url(#paint30_linear_14813_51300)"/>
    <path d="M116.158 76.9077C115.365 74.4274 116.289 72.1928 117.238 69.8986C118.19 67.5984 119.166 65.2382 118.461 62.5104C117.899 59.9079 115.403 58.1496 112.935 56.4114C110.653 54.8045 108.396 53.2148 107.715 50.9911C106.326 46.7262 109.401 42.3413 114.585 41.2001C119.768 40.0589 125.096 42.5884 126.487 46.8549C127.25 49.0594 126.262 51.3671 125.263 53.6997C124.182 56.2209 123.09 58.7713 124.184 61.252C125.62 65.1821 131.218 66.3939 135.045 63.5939C137.555 61.8134 138.115 59.2509 138.675 56.6889C139.194 54.3093 139.714 51.9302 141.796 50.1785C143.978 48.3636 146.897 47.8983 149.85 47.4276C152.854 46.9489 155.893 46.4645 158.228 44.5484C160.742 42.6039 161.36 39.9566 161.963 37.3723C162.799 33.7893 163.608 30.3274 169.403 29.0274C175.889 27.4373 182.745 32.3987 181.48 37.8622C181.172 38.8736 180.757 39.8784 180.341 40.8851C179.24 43.5486 178.134 46.2261 179.002 49.0793C179.564 51.6819 182.06 53.4402 184.528 55.1784C186.81 56.7853 189.067 58.375 189.748 60.5987C191.137 64.8637 188.062 69.2484 182.878 70.3896C177.695 71.5309 172.366 69.0014 170.976 64.7349C170.212 62.5304 171.201 60.2227 172.2 57.8901C173.281 55.3688 174.373 52.8184 173.279 50.3377C172.02 46.3552 165.879 45.0368 162.418 47.9958C160.015 49.9017 159.436 52.4187 158.864 54.9098C158.318 57.2846 157.777 59.6358 155.667 61.4113C153.506 63.2083 150.579 63.6594 147.632 64.1135C144.575 64.5845 141.498 65.0587 139.235 67.0413C136.866 69.0354 136.241 71.635 135.635 74.1607C134.767 77.7785 133.934 81.2446 128.06 82.5624C122.877 83.7036 117.548 81.1741 116.158 76.9077Z" fill="url(#paint31_linear_14813_51300)"/>
    <path d="M141.643 -24.9017C142.835 -26.8936 143.995 -28.8338 146.462 -30.0174C150.721 -32.04 156.164 -30.8388 158.623 -27.3372C161.391 -23.3532 159.201 -20.6645 156.915 -17.8582C155.319 -15.8991 153.677 -13.8827 153.642 -11.3281C153.547 -8.83802 155.167 -6.89094 156.776 -4.95688C158.327 -3.09227 159.868 -1.23977 159.853 1.07551C159.822 3.35023 158.321 5.16126 156.805 6.99049C155.215 8.90929 153.608 10.8481 153.664 13.3631C153.576 17.1246 158.592 19.543 162.543 17.6343C165.205 16.6106 166.505 14.3763 167.79 12.1675C168.979 10.124 170.156 8.10236 172.386 7.08138C176.646 5.05875 182.089 6.25997 184.548 9.76159C187.007 13.2632 185.547 17.7421 181.289 19.7647C179.097 20.842 176.384 20.6689 173.641 20.4939C170.674 20.3046 167.672 20.1132 165.259 21.4996C162.45 22.8848 161.059 25.2088 159.675 27.5208C159.152 28.3946 158.63 29.2668 158.033 30.0858C154.551 34.2989 146.204 33.8592 143.254 29.3723C140.524 25.4418 142.726 22.7687 145.005 20.0022C146.649 18.0068 148.333 15.9627 148.236 13.3631C148.232 10.8779 146.645 8.94449 145.076 7.03358C143.534 5.15489 142.009 3.29792 142.025 0.959572C142.055 -1.28477 143.592 -3.10276 145.128 -4.92107C146.783 -6.87884 148.438 -8.83698 148.214 -11.3281C147.939 -15.1814 143.359 -17.38 139.335 -15.5992C136.673 -14.5756 135.373 -12.3413 134.087 -10.1325C132.898 -8.08904 131.722 -6.06739 129.491 -5.0464C125.232 -3.02378 119.789 -4.2249 117.33 -7.72651C114.871 -11.2281 116.331 -15.7071 120.588 -17.7298C122.78 -18.807 125.494 -18.6339 128.237 -18.4589C131.204 -18.2696 134.205 -18.0781 136.618 -19.4645C139.223 -20.8554 140.449 -22.9046 141.643 -24.9017Z" fill="url(#paint32_linear_14813_51300)"/>
    <path d="M217.732 54.5196C215.537 52.6982 214.98 50.3826 214.408 48.0053C213.834 45.6218 213.245 43.1761 210.976 41.1041C208.908 39.0812 205.678 38.5855 202.484 38.0954C199.532 37.6423 196.611 37.1941 194.669 35.5486C190.875 32.4263 190.873 27.3639 194.669 24.2433C198.464 21.1226 204.616 21.1214 208.413 24.2443C210.414 25.8393 210.96 28.2445 211.512 30.6756C212.109 33.3035 212.713 35.9616 215.168 37.6598C218.8 40.4729 224.384 39.2194 225.997 35.22C227.089 32.6454 226.017 30.196 224.944 27.747C223.948 25.4725 222.952 23.1984 223.691 20.8247C224.478 18.3554 226.723 16.7518 228.994 15.1293C231.305 13.479 233.642 11.8093 234.5 9.18959C235.495 6.47121 234.422 3.92443 233.374 1.43825C231.92 -2.00874 230.516 -5.33924 234.745 -8.84907C239.396 -12.8946 248.348 -11.418 250.573 -6.16605C250.921 -5.1636 251.172 -4.12265 251.424 -3.07964C252.089 -0.32011 252.758 2.45387 255.244 4.56742C257.313 6.59023 260.543 7.08603 263.737 7.57615C266.689 8.02925 269.61 8.47751 271.551 10.123C275.346 13.2453 275.348 18.3075 271.552 21.4282C267.757 24.5488 261.605 24.5502 257.808 21.4273C255.807 19.8323 255.261 17.4271 254.708 14.9959C254.112 12.368 253.508 9.70985 251.052 8.0117C247.542 5.08065 241.423 6.46487 240.223 10.4514C239.301 13.0904 240.329 15.5083 241.347 17.9012C242.318 20.1825 243.278 22.441 242.53 24.8467C241.751 27.2917 239.49 28.8868 237.214 30.4923C234.853 32.1576 232.476 33.8341 231.721 36.4819C230.881 39.1837 231.92 41.6917 232.93 44.1284C234.376 47.6188 235.762 50.9629 231.476 54.5205C227.681 57.6412 221.529 57.6426 217.732 54.5196Z" fill="url(#paint33_linear_14813_51300)"/>
    <path d="M267.669 55.9897C268.241 58.367 268.799 60.6825 270.993 62.504C274.79 65.6269 280.942 65.6256 284.737 62.5049C289.024 58.9473 287.638 55.6032 286.191 52.1128C285.182 49.6761 284.142 47.1681 284.983 44.4663C285.737 41.8185 288.114 40.142 290.475 38.4767C292.751 36.8711 295.012 35.276 295.791 32.8311C296.54 30.4254 295.579 28.1668 294.609 25.8856C293.591 23.4927 292.562 21.0748 293.485 18.4358C294.684 14.4492 300.803 13.065 304.314 15.9961C306.769 17.6942 307.373 20.3524 307.97 22.9802C308.522 25.4114 309.068 27.8167 311.069 29.4117C314.866 32.5346 321.018 32.5332 324.814 29.4126C328.609 26.2919 328.607 21.2297 324.813 18.1073C322.871 16.4619 319.951 16.0136 316.998 15.5605C313.805 15.0704 310.574 14.5746 308.506 12.5518C306.02 10.4382 305.351 7.66425 304.685 4.90471L304.685 4.90352C304.434 3.86092 304.183 2.82038 303.834 1.81833C301.61 -3.43361 292.658 -4.91022 288.006 -0.864697C283.778 2.64514 285.182 5.97564 286.635 9.42263C287.683 11.9088 288.757 14.4556 287.761 17.174C286.904 19.7937 284.566 21.4634 282.256 23.1137C279.984 24.7361 277.739 26.3398 276.953 28.8091C276.214 31.1827 277.21 33.4569 278.206 35.7314C279.278 38.1804 280.351 40.6298 279.259 43.2044C277.646 47.2038 272.061 48.4573 268.43 45.6441C265.974 43.946 265.371 41.2878 264.774 38.66C264.222 36.2289 263.675 33.8237 261.674 32.2286C257.877 29.1057 251.726 29.107 247.93 32.2277C244.135 35.3483 244.136 40.4106 247.931 43.533C249.872 45.1784 252.793 45.6267 255.746 46.0798C258.939 46.5699 262.17 47.0656 264.238 49.0884C266.507 51.1605 267.095 53.6061 267.669 55.9897Z" fill="url(#paint34_linear_14813_51300)"/>
    <path d="M307.981 68.9077C307.187 66.4274 308.112 64.1928 309.061 61.8986C310.013 59.5984 310.989 57.2382 310.284 54.5104C309.722 51.9079 307.225 50.1496 304.758 48.4114C302.476 46.8045 300.219 45.2148 299.538 42.9911C298.149 38.7262 301.224 34.3413 306.407 33.2001C311.591 32.0589 316.919 34.5884 318.31 38.8549C319.073 41.0594 318.085 43.3671 317.085 45.6997C316.005 48.221 314.913 50.7713 316.007 53.252C317.442 57.1821 323.041 58.3939 326.868 55.5939C329.378 53.8134 329.938 51.2509 330.498 48.6889C331.017 46.3093 331.537 43.9302 333.619 42.1785C335.801 40.3636 338.72 39.8983 341.673 39.4276C344.677 38.9489 347.716 38.4645 350.051 36.5484C352.565 34.6039 353.183 31.9566 353.786 29.3723C354.622 25.7893 355.43 22.3274 361.226 21.0274C367.712 19.4373 374.568 24.3987 373.303 29.8622C372.995 30.8737 372.58 31.8784 372.164 32.8851C371.063 35.5487 369.956 38.2261 370.825 41.0793C371.387 43.6819 373.883 45.4402 376.351 47.1784C378.633 48.7853 380.89 50.375 381.571 52.5987C382.96 56.8637 379.885 61.2484 374.701 62.3896C369.518 63.5309 364.189 61.0014 362.799 56.7349C362.035 54.5304 363.024 52.2227 364.023 49.8901C365.103 47.3688 366.196 44.8184 365.102 42.3377C363.843 38.3552 357.702 37.0368 354.241 39.9958C351.838 41.9017 351.259 44.4188 350.686 46.9098C350.141 49.2846 349.6 51.6358 347.49 53.4113C345.329 55.2083 342.402 55.6594 339.455 56.1135C336.398 56.5845 333.321 57.0587 331.058 59.0413C328.688 61.0354 328.064 63.635 327.458 66.1607C326.589 69.7785 325.757 73.2446 319.883 74.5624C314.7 75.7036 309.371 73.1741 307.981 68.9077Z" fill="url(#paint35_linear_14813_51300)"/>
    <path d="M410.988 54.5196C408.794 52.6982 408.236 50.3826 407.664 48.0053C407.09 45.6218 406.502 43.1761 404.233 41.1041C402.165 39.0812 398.934 38.5855 395.741 38.0954C392.788 37.6423 389.867 37.1941 387.926 35.5486C384.131 32.4263 384.13 27.3639 387.925 24.2433C391.721 21.1226 397.872 21.1214 401.669 24.2443C403.67 25.8393 404.217 28.2445 404.769 30.6757C405.366 33.3035 405.969 35.9616 408.425 37.6598C412.056 40.4729 417.641 39.2194 419.254 35.22C420.346 32.6454 419.273 30.196 418.201 27.747C417.205 25.4725 416.209 23.1984 416.947 20.8247C417.734 18.3554 419.979 16.7518 422.251 15.1293C424.561 13.479 426.899 11.8093 427.756 9.18959C428.752 6.47121 427.678 3.92443 426.63 1.43826C425.177 -2.00874 423.773 -5.33923 428.001 -8.84907C432.653 -12.8946 441.605 -11.418 443.829 -6.16605C444.178 -5.16399 444.429 -4.12346 444.68 -3.08085L444.68 -3.07966C445.346 -0.320129 446.014 2.45386 448.501 4.56742C450.569 6.59023 453.799 7.08602 456.993 7.57614C459.945 8.02925 462.866 8.47751 464.808 10.123C468.602 13.2453 468.604 18.3075 464.808 21.4282C461.013 24.5488 454.861 24.5502 451.064 21.4273C449.063 19.8323 448.517 17.4271 447.965 14.9959C447.368 12.368 446.764 9.70984 444.309 8.0117C440.798 5.08065 434.679 6.46487 433.48 10.4514C432.557 13.0904 433.586 15.5083 434.604 17.9012C435.574 20.1824 436.535 22.441 435.786 24.8467C435.007 27.2917 432.746 28.8868 430.47 30.4923C428.109 32.1576 425.732 33.8341 424.978 36.4819C424.137 39.1837 425.177 41.6917 426.186 44.1284C427.633 47.6188 429.019 50.9629 424.732 54.5205C420.937 57.6412 414.785 57.6426 410.988 54.5196Z" fill="url(#paint36_linear_14813_51300)"/>
    <path d="M460.927 55.9897C461.499 58.367 462.056 60.6825 464.251 62.504C468.048 65.6269 474.199 65.6256 477.995 62.5049C482.281 58.9473 480.895 55.6032 479.449 52.1128C478.439 49.6761 477.4 47.1681 478.24 44.4663C478.995 41.8185 481.372 40.142 483.732 38.4767C486.009 36.8711 488.27 35.276 489.049 32.8311C489.797 30.4254 488.837 28.1668 487.866 25.8856C486.848 23.4927 485.82 21.0748 486.742 18.4358C487.942 14.4492 494.061 13.065 497.571 15.9961C500.027 17.6942 500.63 20.3524 501.227 22.9802C501.779 25.4114 502.326 27.8167 504.327 29.4117C508.124 32.5346 514.276 32.5332 518.071 29.4126C521.866 26.2919 521.865 21.2297 518.07 18.1073C516.129 16.4619 513.208 16.0136 510.256 15.5605C507.062 15.0704 503.831 14.5746 501.763 12.5518C499.277 10.4382 498.608 7.66425 497.943 4.90471L497.943 4.90352C497.691 3.86092 497.44 2.82038 497.092 1.81833C494.867 -3.43361 485.915 -4.91022 481.264 -0.864697C477.035 2.64514 478.439 5.97564 479.892 9.42263C480.941 11.9088 482.014 14.4556 481.018 17.174C480.161 19.7937 477.824 21.4634 475.513 23.1137C473.242 24.7361 470.996 26.3398 470.21 28.8091C469.471 31.1827 470.467 33.4569 471.463 35.7314C472.536 38.1804 473.608 40.6298 472.516 43.2044C470.903 47.2038 465.319 48.4573 461.687 45.6441C459.232 43.946 458.628 41.2878 458.031 38.66C457.479 36.2289 456.933 33.8237 454.932 32.2286C451.135 29.1057 444.983 29.107 441.188 32.2277C437.392 35.3483 437.394 40.4106 441.188 43.533C443.13 45.1784 446.051 45.6267 449.003 46.0798C452.197 46.5699 455.427 47.0656 457.495 49.0884C459.764 51.1605 460.353 53.6061 460.927 55.9897Z" fill="url(#paint37_linear_14813_51300)"/>
    <path d="M501.238 68.9077C500.445 66.4274 501.369 64.1928 502.319 61.8986C503.27 59.5984 504.247 57.2382 503.541 54.5104C502.979 51.9079 500.483 50.1496 498.015 48.4114C495.734 46.8045 493.476 45.2148 492.795 42.9911C491.407 38.7262 494.482 34.3413 499.665 33.2001C504.848 32.0589 510.177 34.5884 511.567 38.8549C512.331 41.0594 511.342 43.3671 510.343 45.6997C509.263 48.221 508.17 50.7713 509.265 53.252C510.7 57.1821 516.298 58.3939 520.125 55.5939C522.636 53.8134 523.195 51.2509 523.755 48.6888C524.275 46.3093 524.794 43.9302 526.877 42.1785C529.058 40.3636 531.977 39.8983 534.931 39.4276C537.934 38.9489 540.974 38.4645 543.308 36.5484C545.822 34.6039 546.44 31.9566 547.044 29.3723C547.88 25.7893 548.688 22.3274 554.483 21.0274C560.97 19.4373 567.825 24.3987 566.56 29.8622C566.253 30.8734 565.838 31.8778 565.422 32.8842C564.321 35.5478 563.214 38.2261 564.083 41.0793C564.644 43.6819 567.141 45.4402 569.609 47.1784C571.89 48.7853 574.147 50.375 574.829 52.5987C576.217 56.8637 573.142 61.2484 567.959 62.3896C562.775 63.5309 557.447 61.0014 556.057 56.7349C555.293 54.5304 556.281 52.2227 557.281 49.8901C558.361 47.3688 559.453 44.8184 558.359 42.3377C557.1 38.3552 550.96 37.0368 547.498 39.9958C545.095 41.9017 544.517 44.4187 543.944 46.9098C543.398 49.2846 542.857 51.6358 540.747 53.4113C538.587 55.2083 535.659 55.6594 532.712 56.1135C529.656 56.5845 526.578 57.0587 524.316 59.0413C521.946 61.0354 521.322 63.635 520.715 66.1607C519.847 69.7785 519.015 73.2446 513.141 74.5624C507.957 75.7036 502.629 73.1741 501.238 68.9077Z" fill="url(#paint38_linear_14813_51300)"/>
    <path d="M526.724 -32.9017C527.916 -34.8936 529.076 -36.8338 531.543 -38.0174C535.803 -40.04 541.246 -38.8388 543.705 -35.3372C546.472 -31.3532 544.282 -28.6645 541.997 -25.8583C540.401 -23.8991 538.758 -21.8827 538.723 -19.3281C538.628 -16.838 540.248 -14.8909 541.857 -12.9569C543.409 -11.0923 544.95 -9.23976 544.934 -6.92449C544.903 -4.64977 543.402 -2.83874 541.886 -1.00951C540.296 0.90929 538.689 2.84811 538.745 5.36315C538.658 9.12459 543.673 11.543 547.624 9.63426C550.286 8.61063 551.586 6.37633 552.872 4.16752C554.061 2.12403 555.237 0.10236 557.468 -0.918621C561.727 -2.94125 567.17 -1.74003 569.629 1.76159C572.088 5.26321 570.628 9.74212 566.371 11.7647C564.179 12.842 561.465 12.6689 558.722 12.4939C555.755 12.3046 552.754 12.1132 550.341 13.4996C547.532 14.8848 546.141 17.2088 544.757 19.5208C544.233 20.3946 543.711 21.2667 543.114 22.0858C539.632 26.2989 531.286 25.8592 528.336 21.3723C525.605 17.4418 527.808 14.7687 530.087 12.0022C531.731 10.0068 533.415 7.96271 533.317 5.36315C533.313 2.87787 531.726 0.944489 530.157 -0.966423C528.615 -2.84511 527.09 -4.70208 527.106 -7.04043C527.137 -9.28477 528.673 -11.1028 530.21 -12.9211C531.864 -14.8788 533.519 -16.837 533.295 -19.3281C533.02 -23.1814 528.44 -25.38 524.416 -23.5992C521.754 -22.5756 520.454 -20.3413 519.169 -18.1325C517.979 -16.089 516.803 -14.0674 514.573 -13.0464C510.313 -11.0238 504.87 -12.2249 502.411 -15.7265C499.952 -19.2281 501.412 -23.7071 505.67 -25.7298C507.862 -26.807 510.575 -26.6339 513.318 -26.4589C516.285 -26.2696 519.287 -26.0781 521.7 -27.4645C524.304 -28.8554 525.53 -30.9046 526.724 -32.9017Z" fill="url(#paint39_linear_14813_51300)"/>
    <defs>
        <linearGradient id="paint0_linear_14813_51300" x1="0" y1="21.9184" x2="1920" y2="21.9184" gradientUnits="userSpaceOnUse">
            <stop stop-color="#818790" stop-opacity="0.12"/>
            <stop offset="0.37113" stop-color="#212325"/>
            <stop offset="0.619388" stop-color="#212325"/>
            <stop offset="1" stop-color="#818790" stop-opacity="0.12"/>
        </linearGradient>
        <linearGradient id="paint1_linear_14813_51300" x1="0" y1="21.9184" x2="1920" y2="21.9184" gradientUnits="userSpaceOnUse">
            <stop stop-color="#818790" stop-opacity="0.12"/>
            <stop offset="0.37113" stop-color="#212325"/>
            <stop offset="0.619388" stop-color="#212325"/>
            <stop offset="1" stop-color="#818790" stop-opacity="0.12"/>
        </linearGradient>
        <linearGradient id="paint2_linear_14813_51300" x1="0" y1="21.9184" x2="1920" y2="21.9184" gradientUnits="userSpaceOnUse">
            <stop stop-color="#818790" stop-opacity="0.12"/>
            <stop offset="0.37113" stop-color="#212325"/>
            <stop offset="0.619388" stop-color="#212325"/>
            <stop offset="1" stop-color="#818790" stop-opacity="0.12"/>
        </linearGradient>
        <linearGradient id="paint3_linear_14813_51300" x1="0" y1="21.9184" x2="1920" y2="21.9184" gradientUnits="userSpaceOnUse">
            <stop stop-color="#818790" stop-opacity="0.12"/>
            <stop offset="0.37113" stop-color="#212325"/>
            <stop offset="0.619388" stop-color="#212325"/>
            <stop offset="1" stop-color="#818790" stop-opacity="0.12"/>
        </linearGradient>
        <linearGradient id="paint4_linear_14813_51300" x1="0" y1="21.9184" x2="1920" y2="21.9184" gradientUnits="userSpaceOnUse">
            <stop stop-color="#818790" stop-opacity="0.12"/>
            <stop offset="0.37113" stop-color="#212325"/>
            <stop offset="0.619388" stop-color="#212325"/>
            <stop offset="1" stop-color="#818790" stop-opacity="0.12"/>
        </linearGradient>
        <linearGradient id="paint5_linear_14813_51300" x1="0" y1="21.9184" x2="1920" y2="21.9184" gradientUnits="userSpaceOnUse">
            <stop stop-color="#818790" stop-opacity="0.12"/>
            <stop offset="0.37113" stop-color="#212325"/>
            <stop offset="0.619388" stop-color="#212325"/>
            <stop offset="1" stop-color="#818790" stop-opacity="0.12"/>
        </linearGradient>
        <linearGradient id="paint6_linear_14813_51300" x1="0" y1="21.9184" x2="1920" y2="21.9184" gradientUnits="userSpaceOnUse">
            <stop stop-color="#818790" stop-opacity="0.12"/>
            <stop offset="0.37113" stop-color="#212325"/>
            <stop offset="0.619388" stop-color="#212325"/>
            <stop offset="1" stop-color="#818790" stop-opacity="0.12"/>
        </linearGradient>
        <linearGradient id="paint7_linear_14813_51300" x1="0" y1="21.9184" x2="1920" y2="21.9184" gradientUnits="userSpaceOnUse">
            <stop stop-color="#818790" stop-opacity="0.12"/>
            <stop offset="0.37113" stop-color="#212325"/>
            <stop offset="0.619388" stop-color="#212325"/>
            <stop offset="1" stop-color="#818790" stop-opacity="0.12"/>
        </linearGradient>
        <linearGradient id="paint8_linear_14813_51300" x1="0" y1="21.9184" x2="1920" y2="21.9184" gradientUnits="userSpaceOnUse">
            <stop stop-color="#818790" stop-opacity="0.12"/>
            <stop offset="0.37113" stop-color="#212325"/>
            <stop offset="0.619388" stop-color="#212325"/>
            <stop offset="1" stop-color="#818790" stop-opacity="0.12"/>
        </linearGradient>
        <linearGradient id="paint9_linear_14813_51300" x1="0" y1="21.9184" x2="1920" y2="21.9184" gradientUnits="userSpaceOnUse">
            <stop stop-color="#818790" stop-opacity="0.12"/>
            <stop offset="0.37113" stop-color="#212325"/>
            <stop offset="0.619388" stop-color="#212325"/>
            <stop offset="1" stop-color="#818790" stop-opacity="0.12"/>
        </linearGradient>
        <linearGradient id="paint10_linear_14813_51300" x1="0" y1="21.9184" x2="1920" y2="21.9184" gradientUnits="userSpaceOnUse">
            <stop stop-color="#818790" stop-opacity="0.12"/>
            <stop offset="0.37113" stop-color="#212325"/>
            <stop offset="0.619388" stop-color="#212325"/>
            <stop offset="1" stop-color="#818790" stop-opacity="0.12"/>
        </linearGradient>
        <linearGradient id="paint11_linear_14813_51300" x1="0" y1="21.9184" x2="1920" y2="21.9184" gradientUnits="userSpaceOnUse">
            <stop stop-color="#818790" stop-opacity="0.12"/>
            <stop offset="0.37113" stop-color="#212325"/>
            <stop offset="0.619388" stop-color="#212325"/>
            <stop offset="1" stop-color="#818790" stop-opacity="0.12"/>
        </linearGradient>
        <linearGradient id="paint12_linear_14813_51300" x1="0" y1="21.9184" x2="1920" y2="21.9184" gradientUnits="userSpaceOnUse">
            <stop stop-color="#818790" stop-opacity="0.12"/>
            <stop offset="0.37113" stop-color="#212325"/>
            <stop offset="0.619388" stop-color="#212325"/>
            <stop offset="1" stop-color="#818790" stop-opacity="0.12"/>
        </linearGradient>
        <linearGradient id="paint13_linear_14813_51300" x1="0" y1="21.9184" x2="1920" y2="21.9184" gradientUnits="userSpaceOnUse">
            <stop stop-color="#818790" stop-opacity="0.12"/>
            <stop offset="0.37113" stop-color="#212325"/>
            <stop offset="0.619388" stop-color="#212325"/>
            <stop offset="1" stop-color="#818790" stop-opacity="0.12"/>
        </linearGradient>
        <linearGradient id="paint14_linear_14813_51300" x1="0" y1="21.9184" x2="1920" y2="21.9184" gradientUnits="userSpaceOnUse">
            <stop stop-color="#818790" stop-opacity="0.12"/>
            <stop offset="0.37113" stop-color="#212325"/>
            <stop offset="0.619388" stop-color="#212325"/>
            <stop offset="1" stop-color="#818790" stop-opacity="0.12"/>
        </linearGradient>
        <linearGradient id="paint15_linear_14813_51300" x1="0" y1="21.9184" x2="1920" y2="21.9184" gradientUnits="userSpaceOnUse">
            <stop stop-color="#818790" stop-opacity="0.12"/>
            <stop offset="0.37113" stop-color="#212325"/>
            <stop offset="0.619388" stop-color="#212325"/>
            <stop offset="1" stop-color="#818790" stop-opacity="0.12"/>
        </linearGradient>
        <linearGradient id="paint16_linear_14813_51300" x1="0" y1="21.9184" x2="1920" y2="21.9184" gradientUnits="userSpaceOnUse">
            <stop stop-color="#818790" stop-opacity="0.12"/>
            <stop offset="0.37113" stop-color="#212325"/>
            <stop offset="0.619388" stop-color="#212325"/>
            <stop offset="1" stop-color="#818790" stop-opacity="0.12"/>
        </linearGradient>
        <linearGradient id="paint17_linear_14813_51300" x1="0" y1="21.9184" x2="1920" y2="21.9184" gradientUnits="userSpaceOnUse">
            <stop stop-color="#818790" stop-opacity="0.12"/>
            <stop offset="0.37113" stop-color="#212325"/>
            <stop offset="0.619388" stop-color="#212325"/>
            <stop offset="1" stop-color="#818790" stop-opacity="0.12"/>
        </linearGradient>
        <linearGradient id="paint18_linear_14813_51300" x1="0" y1="21.9184" x2="1920" y2="21.9184" gradientUnits="userSpaceOnUse">
            <stop stop-color="#818790" stop-opacity="0.12"/>
            <stop offset="0.37113" stop-color="#212325"/>
            <stop offset="0.619388" stop-color="#212325"/>
            <stop offset="1" stop-color="#818790" stop-opacity="0.12"/>
        </linearGradient>
        <linearGradient id="paint19_linear_14813_51300" x1="0" y1="21.9184" x2="1920" y2="21.9184" gradientUnits="userSpaceOnUse">
            <stop stop-color="#818790" stop-opacity="0.12"/>
            <stop offset="0.37113" stop-color="#212325"/>
            <stop offset="0.619388" stop-color="#212325"/>
            <stop offset="1" stop-color="#818790" stop-opacity="0.12"/>
        </linearGradient>
        <linearGradient id="paint20_linear_14813_51300" x1="0" y1="21.9184" x2="1920" y2="21.9184" gradientUnits="userSpaceOnUse">
            <stop stop-color="#818790" stop-opacity="0.12"/>
            <stop offset="0.37113" stop-color="#212325"/>
            <stop offset="0.619388" stop-color="#212325"/>
            <stop offset="1" stop-color="#818790" stop-opacity="0.12"/>
        </linearGradient>
        <linearGradient id="paint21_linear_14813_51300" x1="0" y1="21.9184" x2="1920" y2="21.9184" gradientUnits="userSpaceOnUse">
            <stop stop-color="#818790" stop-opacity="0.12"/>
            <stop offset="0.37113" stop-color="#212325"/>
            <stop offset="0.619388" stop-color="#212325"/>
            <stop offset="1" stop-color="#818790" stop-opacity="0.12"/>
        </linearGradient>
        <linearGradient id="paint22_linear_14813_51300" x1="0" y1="21.9184" x2="1920" y2="21.9184" gradientUnits="userSpaceOnUse">
            <stop stop-color="#818790" stop-opacity="0.12"/>
            <stop offset="0.37113" stop-color="#212325"/>
            <stop offset="0.619388" stop-color="#212325"/>
            <stop offset="1" stop-color="#818790" stop-opacity="0.12"/>
        </linearGradient>
        <linearGradient id="paint23_linear_14813_51300" x1="0" y1="21.9184" x2="1920" y2="21.9184" gradientUnits="userSpaceOnUse">
            <stop stop-color="#818790" stop-opacity="0.12"/>
            <stop offset="0.37113" stop-color="#212325"/>
            <stop offset="0.619388" stop-color="#212325"/>
            <stop offset="1" stop-color="#818790" stop-opacity="0.12"/>
        </linearGradient>
        <linearGradient id="paint24_linear_14813_51300" x1="0" y1="21.9184" x2="1920" y2="21.9184" gradientUnits="userSpaceOnUse">
            <stop stop-color="#818790" stop-opacity="0.12"/>
            <stop offset="0.37113" stop-color="#212325"/>
            <stop offset="0.619388" stop-color="#212325"/>
            <stop offset="1" stop-color="#818790" stop-opacity="0.12"/>
        </linearGradient>
        <linearGradient id="paint25_linear_14813_51300" x1="0" y1="21.9184" x2="1920" y2="21.9184" gradientUnits="userSpaceOnUse">
            <stop stop-color="#818790" stop-opacity="0.12"/>
            <stop offset="0.37113" stop-color="#212325"/>
            <stop offset="0.619388" stop-color="#212325"/>
            <stop offset="1" stop-color="#818790" stop-opacity="0.12"/>
        </linearGradient>
        <linearGradient id="paint26_linear_14813_51300" x1="0" y1="21.9184" x2="1920" y2="21.9184" gradientUnits="userSpaceOnUse">
            <stop stop-color="#818790" stop-opacity="0.12"/>
            <stop offset="0.37113" stop-color="#212325"/>
            <stop offset="0.619388" stop-color="#212325"/>
            <stop offset="1" stop-color="#818790" stop-opacity="0.12"/>
        </linearGradient>
        <linearGradient id="paint27_linear_14813_51300" x1="0" y1="21.9184" x2="1920" y2="21.9184" gradientUnits="userSpaceOnUse">
            <stop stop-color="#818790" stop-opacity="0.12"/>
            <stop offset="0.37113" stop-color="#212325"/>
            <stop offset="0.619388" stop-color="#212325"/>
            <stop offset="1" stop-color="#818790" stop-opacity="0.12"/>
        </linearGradient>
        <linearGradient id="paint28_linear_14813_51300" x1="0" y1="21.9184" x2="1920" y2="21.9184" gradientUnits="userSpaceOnUse">
            <stop stop-color="#818790" stop-opacity="0.12"/>
            <stop offset="0.37113" stop-color="#212325"/>
            <stop offset="0.619388" stop-color="#212325"/>
            <stop offset="1" stop-color="#818790" stop-opacity="0.12"/>
        </linearGradient>
        <linearGradient id="paint29_linear_14813_51300" x1="0" y1="21.9184" x2="1920" y2="21.9184" gradientUnits="userSpaceOnUse">
            <stop stop-color="#818790" stop-opacity="0.12"/>
            <stop offset="0.37113" stop-color="#212325"/>
            <stop offset="0.619388" stop-color="#212325"/>
            <stop offset="1" stop-color="#818790" stop-opacity="0.12"/>
        </linearGradient>
        <linearGradient id="paint30_linear_14813_51300" x1="0" y1="21.9184" x2="1920" y2="21.9184" gradientUnits="userSpaceOnUse">
            <stop stop-color="#818790" stop-opacity="0.12"/>
            <stop offset="0.37113" stop-color="#212325"/>
            <stop offset="0.619388" stop-color="#212325"/>
            <stop offset="1" stop-color="#818790" stop-opacity="0.12"/>
        </linearGradient>
        <linearGradient id="paint31_linear_14813_51300" x1="0" y1="21.9184" x2="1920" y2="21.9184" gradientUnits="userSpaceOnUse">
            <stop stop-color="#818790" stop-opacity="0.12"/>
            <stop offset="0.37113" stop-color="#212325"/>
            <stop offset="0.619388" stop-color="#212325"/>
            <stop offset="1" stop-color="#818790" stop-opacity="0.12"/>
        </linearGradient>
        <linearGradient id="paint32_linear_14813_51300" x1="0" y1="21.9184" x2="1920" y2="21.9184" gradientUnits="userSpaceOnUse">
            <stop stop-color="#818790" stop-opacity="0.12"/>
            <stop offset="0.37113" stop-color="#212325"/>
            <stop offset="0.619388" stop-color="#212325"/>
            <stop offset="1" stop-color="#818790" stop-opacity="0.12"/>
        </linearGradient>
        <linearGradient id="paint33_linear_14813_51300" x1="0" y1="21.9184" x2="1920" y2="21.9184" gradientUnits="userSpaceOnUse">
            <stop stop-color="#818790" stop-opacity="0.12"/>
            <stop offset="0.37113" stop-color="#212325"/>
            <stop offset="0.619388" stop-color="#212325"/>
            <stop offset="1" stop-color="#818790" stop-opacity="0.12"/>
        </linearGradient>
        <linearGradient id="paint34_linear_14813_51300" x1="0" y1="21.9184" x2="1920" y2="21.9184" gradientUnits="userSpaceOnUse">
            <stop stop-color="#818790" stop-opacity="0.12"/>
            <stop offset="0.37113" stop-color="#212325"/>
            <stop offset="0.619388" stop-color="#212325"/>
            <stop offset="1" stop-color="#818790" stop-opacity="0.12"/>
        </linearGradient>
        <linearGradient id="paint35_linear_14813_51300" x1="0" y1="21.9184" x2="1920" y2="21.9184" gradientUnits="userSpaceOnUse">
            <stop stop-color="#818790" stop-opacity="0.12"/>
            <stop offset="0.37113" stop-color="#212325"/>
            <stop offset="0.619388" stop-color="#212325"/>
            <stop offset="1" stop-color="#818790" stop-opacity="0.12"/>
        </linearGradient>
        <linearGradient id="paint36_linear_14813_51300" x1="0" y1="21.9184" x2="1920" y2="21.9184" gradientUnits="userSpaceOnUse">
            <stop stop-color="#818790" stop-opacity="0.12"/>
            <stop offset="0.37113" stop-color="#212325"/>
            <stop offset="0.619388" stop-color="#212325"/>
            <stop offset="1" stop-color="#818790" stop-opacity="0.12"/>
        </linearGradient>
        <linearGradient id="paint37_linear_14813_51300" x1="0" y1="21.9184" x2="1920" y2="21.9184" gradientUnits="userSpaceOnUse">
            <stop stop-color="#818790" stop-opacity="0.12"/>
            <stop offset="0.37113" stop-color="#212325"/>
            <stop offset="0.619388" stop-color="#212325"/>
            <stop offset="1" stop-color="#818790" stop-opacity="0.12"/>
        </linearGradient>
        <linearGradient id="paint38_linear_14813_51300" x1="0" y1="21.9184" x2="1920" y2="21.9184" gradientUnits="userSpaceOnUse">
            <stop stop-color="#818790" stop-opacity="0.12"/>
            <stop offset="0.37113" stop-color="#212325"/>
            <stop offset="0.619388" stop-color="#212325"/>
            <stop offset="1" stop-color="#818790" stop-opacity="0.12"/>
        </linearGradient>
        <linearGradient id="paint39_linear_14813_51300" x1="0" y1="21.9184" x2="1920" y2="21.9184" gradientUnits="userSpaceOnUse">
            <stop stop-color="#818790" stop-opacity="0.12"/>
            <stop offset="0.37113" stop-color="#212325"/>
            <stop offset="0.619388" stop-color="#212325"/>
            <stop offset="1" stop-color="#818790" stop-opacity="0.12"/>
        </linearGradient>
    </defs>
</svg>
