<svg width="151" height="139" viewBox="0 0 151 139" fill="none" xmlns="http://www.w3.org/2000/svg">
    <rect opacity="0.1" width="94.3542" height="94.3542" rx="11" transform="matrix(0.866044 0.499967 -0.866044 0.499967 92.0664 44.6523)" fill="#51A6B1"/>
    <rect width="105.861" height="105.861" rx="11" transform="matrix(0.866044 0.499967 -0.866044 0.499967 92.0684 9.27637)" fill="#F5F6F6" stroke="#1A1B1D" stroke-linejoin="round"/>
    <path opacity="0.3" d="M61.5812 32.7991L69.7886 37.5477L75.6217 34.2433C76.7559 33.5223 78.0718 33.1393 79.4157 33.1393C80.7596 33.1393 82.0756 33.5223 83.2097 34.2433L99.9863 44.0003C102.573 45.4553 105.443 46.3356 108.4 46.5813C111.198 46.9311 114.038 46.6481 116.711 45.7545C116.009 46.3113 115.494 47.069 115.235 47.9272C114.977 48.7855 114.988 49.7041 115.266 50.5561C115.639 51.6155 116.219 52.5889 116.972 53.4219C117.725 54.255 118.637 54.9308 119.654 55.4081L136.43 65.165C138.96 66.662 139.011 68.1067 136.43 69.6037L130.494 73.0089L138.701 77.8105L149.025 71.978C152.432 70.0164 154.188 67.9506 154.188 65.7826C154.188 63.6145 152.484 61.6546 149.025 59.693L132.094 49.8327C129.668 48.439 128.429 47.199 128.326 46.115C128.222 45.0309 128.945 43.8969 130.803 42.6064L133.694 40.5925L125.796 35.9976L122.338 37.6511C120.459 38.6782 118.336 39.1765 116.195 39.0953C113.922 38.8791 111.731 38.1373 109.794 36.9277L92.9144 27.0674C89.7926 25.1935 86.2309 24.1794 82.5903 24.126C78.8301 24.1377 75.1414 25.1526 71.9052 27.0674L61.5812 32.7991Z" fill="#51A6B1"/>
    <path d="M61.5806 9.27148L61.6322 26.0997L69.8398 30.9003L69.7882 14.0722L61.5806 9.27148Z" fill="#51A6B1" stroke="#1A1B1D" stroke-linejoin="round"/>
    <path fill-rule="evenodd" clip-rule="evenodd" d="M130.804 18.9769L130.804 18.9761L133.694 16.9629L133.746 33.8427L130.855 35.8042L130.855 35.6576L130.804 35.8039C129.152 36.9395 128.274 38.0241 128.274 39.0049V22.178C128.274 21.0423 129.152 20.1125 130.804 18.9769L130.804 18.9769Z" fill="#51A6B1"/>
    <path d="M130.804 18.9761L130.304 18.9778C130.303 18.8136 130.383 18.6596 130.518 18.5658L130.804 18.9761ZM130.804 18.9769L131.304 18.9751C131.304 19.1486 131.215 19.3099 131.068 19.4015L130.804 18.9769ZM133.694 16.9629L133.409 16.5526C133.561 16.4463 133.76 16.4335 133.925 16.5193C134.09 16.6051 134.194 16.7754 134.194 16.9614L133.694 16.9629ZM133.746 33.8427L134.246 33.8411C134.247 34.0074 134.164 34.163 134.027 34.2564L133.746 33.8427ZM130.855 35.8042L131.136 36.218C130.983 36.3218 130.785 36.3327 130.622 36.2464C130.458 36.1601 130.356 35.9906 130.355 35.8058L130.855 35.8042ZM130.855 35.6576L130.383 35.4924C130.463 35.2626 130.698 35.1241 130.938 35.1645C131.178 35.2049 131.354 35.4125 131.355 35.656L130.855 35.6576ZM130.804 35.8039L131.276 35.969C131.241 36.0693 131.174 36.1557 131.087 36.2159L130.804 35.8039ZM128.774 39.0049C128.774 39.2811 128.551 39.5049 128.274 39.5049C127.998 39.5049 127.774 39.2811 127.774 39.0049H128.774ZM130.804 18.9769L130.52 18.5649C130.527 18.5605 130.533 18.5563 130.54 18.5523L130.804 18.9769ZM131.304 18.9743L131.304 18.9751L130.304 18.9787L130.304 18.9778L131.304 18.9743ZM133.98 17.3732L131.089 19.3864L130.518 18.5658L133.409 16.5526L133.98 17.3732ZM133.246 33.8442L133.194 16.9644L134.194 16.9614L134.246 33.8411L133.246 33.8442ZM130.575 35.3905L133.465 33.4289L134.027 34.2564L131.136 36.218L130.575 35.3905ZM131.355 35.656L131.355 35.8027L130.355 35.8058L130.355 35.6591L131.355 35.656ZM130.332 35.6387L130.383 35.4924L131.327 35.8227L131.276 35.969L130.332 35.6387ZM127.774 39.0049C127.774 38.3618 128.062 37.7384 128.528 37.1513C128.996 36.5629 129.672 35.9755 130.52 35.3919L131.087 36.2159C130.284 36.7679 129.695 37.2906 129.311 37.7736C128.926 38.258 128.774 38.6673 128.774 39.0049H127.774ZM128.774 22.178V39.0049H127.774V22.178H128.774ZM131.087 19.3889C129.419 20.5354 128.774 21.3305 128.774 22.178H127.774C127.774 20.7541 128.884 19.6897 130.52 18.5649L131.087 19.3889ZM131.068 19.4015L131.068 19.4015L130.54 18.5523L130.54 18.5522L131.068 19.4015Z" fill="#1A1B1D"/>
    <path d="M75.829 27.4144C76.9113 26.7647 78.1512 26.4216 79.4167 26.4216C80.7634 26.4216 82.0811 26.8101 83.2107 27.5433V27.4636L100.194 37.249L100.194 37.2261C102.761 38.6774 105.616 39.5485 108.556 39.7778C111.35 40.119 114.185 39.8554 116.867 39.004V22.1241C114.194 23.0177 111.354 23.3008 108.556 22.9509C105.599 22.7052 102.729 21.8249 100.142 20.3699V20.4208L82.6498 10.1675V10.3947C81.6524 9.88197 80.5444 9.6123 79.4167 9.6123C78.1335 9.6123 76.8758 9.96148 75.7775 10.6207L75.7775 10.6129L69.7895 14.0715L69.8411 30.8997L75.8291 27.4411L75.829 27.4144Z" fill="#51A6B1" stroke="#1A1B1D" stroke-linejoin="round"/>
    <path fill-rule="evenodd" clip-rule="evenodd" d="M115.422 26.9268V43.7537C115.79 44.8159 116.368 45.7934 117.122 46.6271C117.876 47.4608 118.79 48.1333 119.81 48.6057L119.861 48.6343L119.861 48.658L136.638 58.4142L136.638 58.3628C137.876 59.1369 138.547 59.8603 138.547 60.5829V43.7534C138.547 43.0307 137.876 42.3096 136.637 41.5353L136.586 41.5663L136.586 41.5344L119.836 31.8452L119.81 31.7788C118.793 31.3014 117.881 30.6256 117.128 29.7926C116.375 28.9595 115.795 27.9862 115.422 26.9268Z" fill="#51A6B1"/>
    <path d="M115.422 43.7537L114.949 43.9173C114.931 43.8647 114.922 43.8094 114.922 43.7537H115.422ZM115.422 26.9268H114.922C114.922 26.6831 115.097 26.4749 115.338 26.4339C115.578 26.3929 115.813 26.5309 115.893 26.7607L115.422 26.9268ZM117.122 46.6271L117.493 46.2918L117.122 46.6271ZM119.81 48.6057L120.02 48.152C120.032 48.1573 120.043 48.1631 120.054 48.1692L119.81 48.6057ZM119.861 48.6343L120.105 48.1978C120.263 48.2859 120.361 48.4522 120.361 48.6328L119.861 48.6343ZM119.861 48.658L119.61 49.0902C119.456 49.001 119.362 48.837 119.361 48.6595L119.861 48.658ZM136.638 58.4142L137.138 58.4127C137.138 58.5918 137.043 58.7576 136.888 58.8472C136.733 58.9368 136.541 58.9365 136.386 58.8464L136.638 58.4142ZM136.638 58.3628L136.138 58.3643C136.137 58.1823 136.236 58.0143 136.395 57.9258C136.554 57.8373 136.748 57.8423 136.903 57.9388L136.638 58.3628ZM139.047 60.5829C139.047 60.859 138.823 61.0829 138.547 61.0829C138.271 61.0829 138.047 60.859 138.047 60.5829H139.047ZM136.637 41.5353L136.376 41.1086C136.538 41.0099 136.741 41.011 136.902 41.1113L136.637 41.5353ZM136.586 41.5663L136.847 41.993C136.693 42.0871 136.5 42.0908 136.342 42.0027C136.185 41.9146 136.087 41.7484 136.086 41.5678L136.586 41.5663ZM136.586 41.5344L136.837 41.1016C136.991 41.1907 137.086 41.3549 137.086 41.5329L136.586 41.5344ZM119.836 31.8452L119.586 32.278C119.488 32.2215 119.413 32.1337 119.371 32.0287L119.836 31.8452ZM119.81 31.7788L120.023 31.3261C120.138 31.3803 120.228 31.4766 120.275 31.5952L119.81 31.7788ZM117.128 29.7926L116.757 30.1279V30.1279L117.128 29.7926ZM114.922 43.7537V26.9268H115.922V43.7537H114.922ZM116.751 46.9625C115.952 46.0789 115.339 45.043 114.949 43.9173L115.894 43.5902C116.24 44.5888 116.784 45.5079 117.493 46.2918L116.751 46.9625ZM119.6 49.0594C118.519 48.5588 117.55 47.8462 116.751 46.9625L117.493 46.2918C118.201 47.0755 119.061 47.7078 120.02 48.152L119.6 49.0594ZM119.617 49.0708L119.566 49.0422L120.054 48.1692L120.105 48.1978L119.617 49.0708ZM119.361 48.6595L119.361 48.6358L120.361 48.6328L120.361 48.6564L119.361 48.6595ZM136.386 58.8464L119.61 49.0902L120.113 48.2257L136.889 57.982L136.386 58.8464ZM137.138 58.3612L137.138 58.4127L136.138 58.4157L136.138 58.3643L137.138 58.3612ZM136.903 57.9388C137.541 58.338 138.065 58.7425 138.433 59.1626C138.802 59.5836 139.047 60.0578 139.047 60.5829H138.047C138.047 60.3855 137.957 60.1366 137.681 59.8217C137.404 59.5059 136.972 59.1617 136.373 58.7867L136.903 57.9388ZM138.047 60.5829V43.7534H139.047V60.5829H138.047ZM138.047 43.7534C138.047 43.5561 137.957 43.308 137.681 42.9936C137.404 42.6783 136.972 42.3345 136.372 41.9593L136.902 41.1113C137.541 41.5105 138.064 41.9144 138.432 42.3338C138.801 42.7543 139.047 43.228 139.047 43.7534H138.047ZM136.898 41.962L136.847 41.993L136.326 41.1396L136.376 41.1086L136.898 41.962ZM137.086 41.5329L137.086 41.5647L136.086 41.5678L136.086 41.5359L137.086 41.5329ZM120.087 31.4124L136.837 41.1016L136.336 41.9672L119.586 32.278L120.087 31.4124ZM120.275 31.5952L120.301 31.6617L119.371 32.0287L119.345 31.9623L120.275 31.5952ZM117.499 29.4572C118.208 30.2412 119.066 30.8771 120.023 31.3261L119.598 32.2314C118.521 31.7258 117.555 31.0101 116.757 30.1279L117.499 29.4572ZM115.893 26.7607C116.244 27.7574 116.79 28.6732 117.499 29.4572L116.757 30.1279C115.96 29.2459 115.345 28.215 114.95 27.0928L115.893 26.7607Z" fill="#1A1B1D"/>
    <path d="M130.649 49.4316L130.701 66.2598L138.908 71.0089L138.857 54.1807L130.649 49.4316Z" fill="#51A6B1" stroke="#1A1B1D" stroke-linejoin="round"/>
    <path fill-rule="evenodd" clip-rule="evenodd" d="M148.975 48.3484V48.3478C152.382 46.3862 154.033 44.3204 154.137 42.1523V58.9818C154.137 61.1389 152.399 63.1922 149.027 65.1448L149.027 65.1764L138.909 71.0095L138.857 54.1813L148.975 48.3484Z" fill="#51A6B1"/>
    <path d="M148.975 48.3478H148.475C148.475 48.1689 148.57 48.0037 148.725 47.9145L148.975 48.3478ZM148.975 48.3484H149.475C149.475 48.5272 149.379 48.6923 149.224 48.7816L148.975 48.3484ZM154.137 42.1523L153.637 42.1286C153.65 41.8574 153.877 41.646 154.149 41.6525C154.42 41.6589 154.637 41.8808 154.637 42.1523H154.137ZM149.027 65.1448L148.527 65.1464C148.526 64.9674 148.621 64.8018 148.776 64.7121L149.027 65.1448ZM149.027 65.1764L149.527 65.1749C149.527 65.3542 149.432 65.52 149.276 65.6096L149.027 65.1764ZM138.909 71.0095L139.159 71.4427C139.004 71.5317 138.814 71.5318 138.66 71.4428C138.505 71.3538 138.41 71.1893 138.409 71.011L138.909 71.0095ZM138.857 54.1813L138.357 54.1828C138.357 54.0035 138.452 53.8377 138.608 53.7481L138.857 54.1813ZM149.475 48.3478V48.3484H148.475V48.3478H149.475ZM154.636 42.1761C154.52 44.6076 152.674 46.795 149.224 48.7811L148.725 47.9145C152.09 45.9774 153.547 44.0332 153.637 42.1286L154.636 42.1761ZM153.637 58.9818V42.1523H154.637V58.9818H153.637ZM148.776 64.7121C152.125 62.7731 153.637 60.8485 153.637 58.9818H154.637C154.637 61.4292 152.674 63.6113 149.277 65.5775L148.776 64.7121ZM148.527 65.178L148.527 65.1464L149.527 65.1433L149.527 65.1749L148.527 65.178ZM138.659 70.5763L148.777 64.7433L149.276 65.6096L139.159 71.4427L138.659 70.5763ZM139.357 54.1798L139.409 71.008L138.409 71.011L138.357 54.1828L139.357 54.1798ZM149.224 48.7816L139.107 54.6145L138.608 53.7481L148.725 47.9152L149.224 48.7816Z" fill="#1A1B1D"/>
    <path d="M61.5812 9.27271L69.7886 14.0214L75.6217 10.717C76.7559 9.99597 78.0718 9.61298 79.4157 9.61298C80.7596 9.61298 82.0756 9.99597 83.2097 10.717L99.9863 20.4739C102.573 21.9289 105.443 22.8092 108.4 23.0549C111.198 23.4048 114.038 23.1217 116.711 22.2282C116.009 22.7849 115.494 23.5426 115.235 24.4008C114.977 25.2591 114.988 26.1777 115.266 27.0297C115.639 28.0892 116.219 29.0625 116.972 29.8956C117.725 30.7286 118.637 31.4044 119.654 31.8817L136.43 41.6387C138.96 43.1356 139.011 44.5803 136.43 46.0773L130.494 49.4825L138.701 54.2841L149.025 48.4516C152.432 46.4901 154.188 44.4242 154.188 42.2562C154.188 40.0881 152.484 38.1282 149.025 36.1666L132.094 26.3064C129.668 24.9126 128.429 23.6726 128.326 22.5886C128.222 21.5046 128.945 20.3705 130.803 19.08L133.694 17.0661L125.796 12.4712L122.338 14.1247C120.459 15.1518 118.336 15.6501 116.195 15.569C113.922 15.3528 111.731 14.6109 109.794 13.4013L92.9144 3.54105C89.7926 1.66718 86.2309 0.652997 82.5903 0.599609C78.8301 0.61133 75.1414 1.62621 71.9052 3.54105L61.5812 9.27271Z" fill="#F5F6F6" stroke="#1A1B1D" stroke-linejoin="round"/>
    <path opacity="0.3" d="M34.8219 54.3195C31.6533 56.1719 29.9471 58.074 29.9471 60.0726C29.9471 62.0713 31.4095 64.0709 34.8219 65.9233L50.8107 75.2326C53.0044 76.5 54.2231 77.6222 54.4668 78.6459C54.7106 79.6696 53.7844 80.8405 52.0294 82.0592L49.2999 83.911L56.8066 88.2479L60.0242 86.6888C61.8252 85.7408 63.8397 85.2719 65.8743 85.3249C67.9927 85.5516 70.0289 86.2678 71.8214 87.4195L87.8108 96.7311C90.8466 98.5187 94.3051 99.4613 97.8282 99.4613C101.351 99.4613 104.81 98.5187 107.846 96.7311L117.596 91.2232L109.844 86.6888L104.141 90.0045C103.08 90.6868 101.845 91.0494 100.583 91.0494C99.3209 91.0494 98.0851 90.6868 97.0236 90.0045L81.1806 80.7905C78.734 79.4334 76.0246 78.62 73.2352 78.4031C70.5901 78.0781 67.9052 78.3612 65.3863 79.2314C66.0326 78.6814 66.5056 77.9549 66.7478 77.1415C66.9901 76.3282 66.9914 75.4634 66.7514 74.6494C66.0484 72.6274 64.5775 70.9626 62.6567 70.0174L46.8137 60.8034C44.3763 59.4384 44.3763 58.0743 46.8137 56.7093L52.5656 53.3936L44.7661 48.9092L34.8219 54.3195Z" fill="#51A6B1"/>
    <path fill-rule="evenodd" clip-rule="evenodd" d="M46.4242 33.175L46.4726 48.9773L52.2249 45.7111L52.5684 45.5259L52.5683 29.957L52.1761 29.8193L46.4242 33.0853V32.9881C45.303 33.7681 44.7175 34.4026 44.7175 35.0851V50.9758C44.7175 50.2933 45.303 49.6588 46.4242 48.9764V33.175Z" fill="#51A6B1"/>
    <path d="M46.4242 33.175H45.9242C45.9242 32.8991 46.1475 32.6754 46.4234 32.675C46.6992 32.6745 46.9233 32.8976 46.9242 33.1734L46.4242 33.175ZM46.4726 48.9773L46.7195 49.4121C46.565 49.4998 46.3755 49.4989 46.2217 49.4098C46.068 49.3206 45.9732 49.1565 45.9726 48.9788L46.4726 48.9773ZM52.2249 45.7111L51.978 45.2762L51.9875 45.2711L52.2249 45.7111ZM52.5684 45.5259L53.0684 45.5259C53.0684 45.7097 52.9675 45.8787 52.8057 45.9659L52.5684 45.5259ZM52.5683 29.957L52.734 29.4853C52.9343 29.5556 53.0683 29.7447 53.0683 29.957L52.5683 29.957ZM52.1761 29.8193L51.9293 29.3845C52.0549 29.3132 52.2054 29.2997 52.3418 29.3476L52.1761 29.8193ZM46.4242 33.0853L46.671 33.5201C46.5163 33.608 46.3264 33.6069 46.1726 33.5174C46.0188 33.4278 45.9242 33.2633 45.9242 33.0853H46.4242ZM46.4242 32.9881L46.1386 32.5776C46.2915 32.4713 46.4907 32.4587 46.6557 32.5449C46.8207 32.6312 46.9242 32.8019 46.9242 32.9881H46.4242ZM45.2175 50.9758C45.2175 51.2519 44.9936 51.4758 44.7175 51.4758C44.4414 51.4758 44.2175 51.2519 44.2175 50.9758H45.2175ZM46.4242 48.9764H46.9242C46.9242 49.1509 46.8332 49.3127 46.6841 49.4035L46.4242 48.9764ZM46.9242 33.1734L46.9726 48.9757L45.9726 48.9788L45.9242 33.1765L46.9242 33.1734ZM46.2258 48.5425L51.978 45.2763L52.4718 46.1459L46.7195 49.4121L46.2258 48.5425ZM51.9875 45.2711L52.331 45.0858L52.8057 45.9659L52.4623 46.1512L51.9875 45.2711ZM52.0684 45.5259L52.0683 29.957L53.0683 29.957L53.0684 45.5259L52.0684 45.5259ZM52.4027 30.4288L52.0105 30.2911L52.3418 29.3476L52.734 29.4853L52.4027 30.4288ZM52.423 30.2541L46.671 33.5201L46.1773 32.6505L51.9293 29.3845L52.423 30.2541ZM45.9242 33.0853V32.9881H46.9242V33.0853H45.9242ZM46.7097 33.3986C46.1614 33.78 45.7774 34.1038 45.5334 34.3946C45.2936 34.6804 45.2175 34.8996 45.2175 35.0851H44.2175C44.2175 34.5881 44.4341 34.1489 44.7674 33.7518C45.0964 33.3597 45.5657 32.9762 46.1386 32.5776L46.7097 33.3986ZM45.2175 35.0851V50.9758H44.2175V35.0851H45.2175ZM44.2175 50.9758C44.2175 50.4789 44.434 50.0376 44.7732 49.6478C45.108 49.2631 45.5838 48.9026 46.1642 48.5493L46.6841 49.4035C46.1433 49.7326 45.7658 50.0306 45.5276 50.3043C45.2937 50.573 45.2175 50.7902 45.2175 50.9758H44.2175ZM45.9242 48.9764V33.175H46.9242V48.9764H45.9242Z" fill="#1A1B1D"/>
    <path d="M30.0928 36.7412V52.4867C30.0928 54.4076 31.6067 56.282 34.821 58.0617L50.7619 67.5702V67.599C52.9555 68.8665 54.1742 69.9862 54.418 71.0099V55.1193C54.1742 54.0956 52.9555 52.9734 50.7619 51.706L34.9676 42.2492C31.6528 40.5917 30.0928 38.6911 30.0928 36.7412Z" fill="#51A6B1" stroke="#1A1B1D" stroke-linejoin="round"/>
    <path d="M66.849 68.1852V52.4873C66.8558 53.1169 66.724 53.7401 66.4628 54.313C66.2017 54.8859 65.8173 55.3952 65.3376 55.803V71.6937C65.8324 71.2561 66.2248 70.7152 66.486 70.1084C66.7473 69.5017 66.8712 68.8454 66.849 68.1852Z" fill="#51A6B1" stroke="#1A1B1D" stroke-linejoin="round"/>
    <path d="M49.2507 60.4326L49.2995 76.3244L56.8066 80.663L56.7579 64.7712L49.2507 60.4326Z" fill="#51A6B1" stroke="#1A1B1D" stroke-linejoin="round"/>
    <path d="M59.9752 63.1626C61.7763 62.2146 63.7908 61.745 65.8253 61.798C67.6677 61.9951 69.4478 62.5625 71.0595 63.4646V63.3971L87.7616 73.2048C90.7999 75.0077 94.2708 75.9517 97.8036 75.9351C101.32 75.9428 104.773 74.9993 107.797 73.205L117.352 67.6964L117.4 83.5882L107.846 89.0967L107.846 89.0662L107.797 89.0956C104.773 90.89 101.32 91.8335 97.8036 91.8258C94.2708 91.8423 90.8001 90.8985 87.7619 89.0956V89.0685L71.8211 79.8345L71.0595 79.3858V79.3575C69.4478 78.455 67.6677 77.8858 65.8253 77.6887C63.8091 77.6361 61.8126 78.0985 60.024 79.0294L60.024 79.0544L56.8067 80.6631L56.7579 64.7713L59.9752 63.1626Z" fill="#51A6B1" stroke="#1A1B1D" stroke-linejoin="round"/>
    <path d="M34.8219 30.7932C31.6533 32.6456 29.9471 34.5476 29.9471 36.5463C29.9471 38.5449 31.4095 40.5445 34.8219 42.397L50.8107 51.7062C53.0044 52.9736 54.2231 54.0958 54.4668 55.1195C54.7106 56.1432 53.7844 57.3141 52.0294 58.5328L49.2999 60.3847L56.8066 64.7215L60.0242 63.1624C61.8252 62.2145 63.8397 61.7455 65.8743 61.7985C67.9927 62.0252 70.0289 62.7415 71.8214 63.8932L87.8108 73.2048C90.8466 74.9924 94.3051 75.9349 97.8282 75.9349C101.351 75.9349 104.81 74.9924 107.846 73.2048L117.596 67.6968L109.844 63.1624L104.141 66.4781C103.08 67.1605 101.845 67.5231 100.583 67.5231C99.3209 67.5231 98.0851 67.1605 97.0236 66.4781L81.1806 57.2641C78.734 55.9071 76.0246 55.0937 73.2352 54.8767C70.5901 54.5518 67.9052 54.8348 65.3863 55.705C66.0326 55.1551 66.5056 54.4285 66.7478 53.6152C66.9901 52.8019 66.9914 51.937 66.7514 51.123C66.0484 49.101 64.5775 47.4363 62.6567 46.491L46.8137 37.277C44.3763 35.9121 44.3763 34.5479 46.8137 33.183L52.5656 29.8672L44.766 25.3828L34.8219 30.7932Z" fill="#F5F6F6" stroke="#1A1B1D" stroke-linejoin="round"/>
</svg>
